SplineFontDB: 3.0
FontName: Vazir-Bold
FullName: Vazir Bold
FamilyName: Vazir
Weight: Bold
Copyright: Copyright (c) 2003 by Bitstream, Inc. All Rights Reserved.\nDejaVu changes are in public domain\nChanges by Saber Rastikerdar are in public domain.\nNon-Arabic(Latin) glyphs and data in extended version are imported from Roboto font under the Apache License, Version 2.0.
Version: 10.0.1
ItalicAngle: 0
UnderlinePosition: -500
UnderlineWidth: 100
Ascent: 1638
Descent: 410
InvalidEm: 0
LayerCount: 2
Layer: 0 1 "Back" 1
Layer: 1 1 "Fore" 0
PreferredKerning: 4
XUID: [1021 502 1027637223 8571893]
UniqueID: 4013149
UseUniqueID: 1
FSType: 0
OS2Version: 1
OS2_WeightWidthSlopeOnly: 0
OS2_UseTypoMetrics: 1
CreationTime: 1431850356
ModificationTime: 1496612690
PfmFamily: 33
TTFWeight: 700
TTFWidth: 5
LineGap: 0
VLineGap: 0
Panose: 2 11 6 3 3 8 4 2 2 4
OS2TypoAscent: 2350
OS2TypoAOffset: 0
OS2TypoDescent: -1100
OS2TypoDOffset: 0
OS2TypoLinegap: 0
OS2WinAscent: 2350
OS2WinAOffset: 0
OS2WinDescent: 1100
OS2WinDOffset: 0
HheadAscent: 2350
HheadAOffset: 0
HheadDescent: -1100
HheadDOffset: 0
OS2SubXSize: 1331
OS2SubYSize: 1433
OS2SubXOff: 0
OS2SubYOff: 286
OS2SupXSize: 1331
OS2SupYSize: 1433
OS2SupXOff: 0
OS2SupYOff: 983
OS2StrikeYSize: 102
OS2StrikeYPos: 530
OS2CapHeight: 1638
OS2XHeight: 1082
OS2Vendor: 'PfEd'
OS2CodePages: 00000041.20080000
OS2UnicodeRanges: 80002003.80000000.00000008.00000000
Lookup: 1 9 0 "'fina' Terminal Forms in Arabic lookup 9" { "'fina' Terminal Forms in Arabic lookup 9 subtable"  } ['fina' ('arab' <'KUR ' 'SND ' 'URD ' 'dflt' > ) ]
Lookup: 1 9 0 "'medi' Medial Forms in Arabic lookup 11" { "'medi' Medial Forms in Arabic lookup 11 subtable"  } ['medi' ('arab' <'KUR ' 'SND ' 'URD ' 'dflt' > ) ]
Lookup: 1 9 0 "'init' Initial Forms in Arabic lookup 13" { "'init' Initial Forms in Arabic lookup 13 subtable"  } ['init' ('arab' <'KUR ' 'SND ' 'URD ' 'dflt' > ) ]

StartChar: exclam
Encoding: 33 33 1
GlifName: exclam
Width: 641
VWidth: 2804
GlyphClass: 2
Flags: W
LayerCount: 2
Fore
SplineSet
145.091796875 180.493164062 m 0,0,1
 145.091796875 252.936523438 145.091796875 252.936523438 196.463867188 304.307617188 c 128,-1,2
 247.834960938 355.6796875 247.834960938 355.6796875 320.278320312 355.6796875 c 128,-1,3
 392.72265625 355.6796875 392.72265625 355.6796875 444.09375 304.307617188 c 128,-1,4
 495.463867188 252.936523438 495.463867188 252.936523438 495.463867188 180.493164062 c 128,-1,5
 495.463867188 108.049804688 495.463867188 108.049804688 444.09375 56.6787109375 c 128,-1,6
 392.72265625 5.306640625 392.72265625 5.306640625 320.278320312 5.306640625 c 0,7,8
 299.705078125 5.306640625 299.705078125 5.306640625 280.225585938 9.7607421875 c 128,-1,9
 260.747070312 14.21484375 260.747070312 14.21484375 242.829101562 23.0751953125 c 128,-1,10
 224.911132812 31.935546875 224.911132812 31.935546875 209.326171875 44.919921875 c 0,11,12
 192.16796875 59.2138671875 192.16796875 59.2138671875 179.182617188 76.4482421875 c 128,-1,13
 166.197265625 93.6826171875 166.197265625 93.6826171875 158.041992188 113.330078125 c 0,14,15
 145.091796875 144.526367188 145.091796875 144.526367188 145.091796875 180.493164062 c 0,0,1
213.161132812 1466.07128906 m 5,16,-1
 430.612304688 1466.07128906 l 5,17,-1
 471.639648438 1466.07128906 l 5,18,-1
 470.599609375 1425.05761719 l 5,19,-1
 446.08203125 538.310546875 l 1,20,-1
 445.092773438 499.32421875 l 1,21,-1
 406.094726562 499.32421875 l 1,22,-1
 238.90234375 499.32421875 l 1,23,-1
 199.953125 499.32421875 l 1,24,-1
 198.916992188 538.259765625 l 1,25,-1
 173.17578125 1425.00683594 l 5,26,-1
 172.08203125 1466.07128906 l 5,27,-1
 213.161132812 1466.07128906 l 5,16,-1
EndSplineSet
EndChar

StartChar: period
Encoding: 46 46 2
GlifName: period
Width: 641
VWidth: 2804
GlyphClass: 2
Flags: W
LayerCount: 2
Fore
SplineSet
145.091796875 180.493164062 m 0,0,1
 145.091796875 252.936523438 145.091796875 252.936523438 196.463867188 304.307617188 c 128,-1,2
 247.834960938 355.6796875 247.834960938 355.6796875 320.278320312 355.6796875 c 128,-1,3
 392.72265625 355.6796875 392.72265625 355.6796875 444.09375 304.307617188 c 128,-1,4
 495.463867188 252.936523438 495.463867188 252.936523438 495.463867188 180.493164062 c 128,-1,5
 495.463867188 108.049804688 495.463867188 108.049804688 444.09375 56.6787109375 c 128,-1,6
 392.72265625 5.306640625 392.72265625 5.306640625 320.278320312 5.306640625 c 0,7,8
 299.705078125 5.306640625 299.705078125 5.306640625 280.225585938 9.7607421875 c 128,-1,9
 260.747070312 14.21484375 260.747070312 14.21484375 242.829101562 23.0751953125 c 128,-1,10
 224.911132812 31.935546875 224.911132812 31.935546875 209.326171875 44.919921875 c 0,11,12
 192.16796875 59.2138671875 192.16796875 59.2138671875 179.182617188 76.4482421875 c 128,-1,13
 166.197265625 93.6826171875 166.197265625 93.6826171875 158.041992188 113.330078125 c 0,14,15
 145.091796875 144.526367188 145.091796875 144.526367188 145.091796875 180.493164062 c 0,0,1
EndSplineSet
EndChar

StartChar: colon
Encoding: 58 58 3
GlifName: colon
Width: 641
VWidth: 2804
GlyphClass: 2
Flags: W
LayerCount: 2
Fore
SplineSet
145.091796875 1050.49316406 m 0,0,1
 145.091796875 1122.93652344 145.091796875 1122.93652344 196.463867188 1174.30761719 c 0,2,3
 221.541015625 1199.38574219 221.541015625 1199.38574219 253.2109375 1212.53222656 c 128,-1,4
 284.879882812 1225.6796875 284.879882812 1225.6796875 320.278320312 1225.6796875 c 0,5,6
 392.72265625 1225.6796875 392.72265625 1225.6796875 444.09375 1174.30761719 c 128,-1,7
 495.463867188 1122.93652344 495.463867188 1122.93652344 495.463867188 1050.49316406 c 128,-1,8
 495.463867188 978.049804688 495.463867188 978.049804688 444.09375 926.678710938 c 128,-1,9
 392.72265625 875.306640625 392.72265625 875.306640625 320.278320312 875.306640625 c 0,10,11
 304.861328125 875.306640625 304.861328125 875.306640625 289.984375 877.834960938 c 128,-1,12
 275.107421875 880.36328125 275.107421875 880.36328125 261.125 885.32421875 c 128,-1,13
 247.141601562 890.286132812 247.141601562 890.286132812 234.081054688 897.732421875 c 128,-1,14
 221.01953125 905.177734375 221.01953125 905.177734375 209.326171875 914.919921875 c 0,15,16
 174.33984375 944.065429688 174.33984375 944.065429688 158.041992188 983.330078125 c 0,17,18
 151.547851562 998.973632812 151.547851562 998.973632812 148.3203125 1015.88378906 c 128,-1,19
 145.091796875 1032.79296875 145.091796875 1032.79296875 145.091796875 1050.49316406 c 0,0,1
145.091796875 180.493164062 m 0,20,21
 145.091796875 252.936523438 145.091796875 252.936523438 196.463867188 304.307617188 c 128,-1,22
 247.834960938 355.6796875 247.834960938 355.6796875 320.278320312 355.6796875 c 128,-1,23
 392.72265625 355.6796875 392.72265625 355.6796875 444.09375 304.307617188 c 128,-1,24
 495.463867188 252.936523438 495.463867188 252.936523438 495.463867188 180.493164062 c 128,-1,25
 495.463867188 108.049804688 495.463867188 108.049804688 444.09375 56.6787109375 c 128,-1,26
 392.72265625 5.306640625 392.72265625 5.306640625 320.278320312 5.306640625 c 0,27,28
 299.705078125 5.306640625 299.705078125 5.306640625 280.225585938 9.7607421875 c 128,-1,29
 260.747070312 14.21484375 260.747070312 14.21484375 242.829101562 23.0751953125 c 128,-1,30
 224.911132812 31.935546875 224.911132812 31.935546875 209.326171875 44.919921875 c 0,31,32
 192.16796875 59.2138671875 192.16796875 59.2138671875 179.182617188 76.4482421875 c 128,-1,33
 166.197265625 93.6826171875 166.197265625 93.6826171875 158.041992188 113.330078125 c 0,34,35
 145.091796875 144.526367188 145.091796875 144.526367188 145.091796875 180.493164062 c 0,20,21
EndSplineSet
EndChar

StartChar: afii57388
Encoding: 1548 1548 5
GlifName: afii57388
Width: 739
VWidth: 2812
GlyphClass: 2
Flags: W
LayerCount: 2
Fore
SplineSet
196.286132812 337.889648438 m 0,0,1
 248.787109375 597.743164062 248.787109375 597.743164062 458 756.318359375 c 2,2,-1
 479.926757812 772.938476562 l 1,3,-1
 503.290039062 758.405273438 l 1,4,-1
 551.524414062 728.401367188 l 1,5,-1
 596.72265625 700.286132812 l 1,6,-1
 557.142578125 664.693359375 l 2,7,8
 425.723632812 546.515625 425.723632812 546.515625 400.288085938 367.825195312 c 1,9,10
 457.500976562 363.08984375 457.500976562 363.08984375 497.8828125 342.73828125 c 128,-1,11
 538.264648438 322.38671875 538.264648438 322.38671875 558.359375 282.899414062 c 0,12,13
 582.2265625 234.950195312 582.2265625 234.950195312 581.080078125 187.219726562 c 0,14,15
 579.82421875 103.581054688 579.82421875 103.581054688 530.471679688 56.2724609375 c 128,-1,16
 481.120117188 8.962890625 481.120117188 8.962890625 396.096679688 8.9072265625 c 0,17,18
 364.05078125 8.7734375 364.05078125 8.7734375 336.604492188 14.1806640625 c 0,19,20
 237.368164062 33.73046875 237.368164062 33.73046875 203.586914062 119.728515625 c 128,-1,21
 169.806640625 205.7265625 169.806640625 205.7265625 196.286132812 337.889648438 c 0,0,1
EndSplineSet
EndChar

StartChar: uni0615
Encoding: 1557 1557 6
GlifName: uni0615
Width: -29
VWidth: 2714
GlyphClass: 4
Flags: W
AnchorPoint: "Anchor-10" 658.199 1624.46 mark 0
AnchorPoint: "Anchor-9" 658.199 1624.46 mark 0
AnchorPoint: "Anchor-1" 672.366 2447.86 basemark 0
AnchorPoint: "Anchor-1" 658.199 1624.46 mark 0
LayerCount: 2
Fore
SplineSet
541.2421875 1790.00390625 m 1,0,-1
 677.703125 1790.00390625 l 2,1,2
 781.798204784 1790.00390625 781.798204784 1790.00390625 845.899102392 1824.50195312 c 128,-1,3
 910 1859 910 1859 912.581054688 1912.3965269 c 128,-1,4
 915.162109375 1965.79305381 915.162109375 1965.79305381 882.439453125 1983.51855469 c 0,5,6
 775.123475479 2043.41282427 775.123475479 2043.41282427 541.2421875 1790.00390625 c 1,0,-1
991.1328125 1928.79980469 m 0,7,8
 991.00004589 1714.07421875 991.00004589 1714.07421875 668.384765625 1714.07421875 c 6,9,-1
 354.936523438 1714.07421875 l 1,10,-1
 354.936523438 1790.00390625 l 1,11,-1
 462.987304688 1790.00390625 l 1,12,-1
 462.987304688 2322.15039062 l 1,13,-1
 540.234375 2321.18359375 l 1,14,-1
 539.275390625 1893.90234375 l 1,15,16
 747 2130 747 2130 912.387695312 2066.69433594 c 0,17,18
 991 2037 991 2037 991.1328125 1928.79980469 c 0,7,8
EndSplineSet
EndChar

StartChar: uni061B
Encoding: 1563 1563 7
GlifName: uni061B_
Width: 739
VWidth: 2812
GlyphClass: 2
Flags: W
LayerCount: 2
Fore
SplineSet
222.091796875 180.493164062 m 0,0,1
 222.091796875 252.936523438 222.091796875 252.936523438 273.463867188 304.307617188 c 128,-1,2
 324.834960938 355.6796875 324.834960938 355.6796875 397.278320312 355.6796875 c 128,-1,3
 469.72265625 355.6796875 469.72265625 355.6796875 521.09375 304.307617188 c 128,-1,4
 572.463867188 252.936523438 572.463867188 252.936523438 572.463867188 180.493164062 c 128,-1,5
 572.463867188 108.049804688 572.463867188 108.049804688 521.09375 56.6787109375 c 128,-1,6
 469.72265625 5.306640625 469.72265625 5.306640625 397.278320312 5.306640625 c 0,7,8
 366.3125 5.306640625 366.3125 5.306640625 338.018554688 15.3671875 c 128,-1,9
 309.723632812 25.4267578125 309.723632812 25.4267578125 286.326171875 44.919921875 c 0,10,11
 269.16796875 59.2138671875 269.16796875 59.2138671875 256.182617188 76.4482421875 c 128,-1,12
 243.197265625 93.6826171875 243.197265625 93.6826171875 235.041992188 113.330078125 c 0,13,14
 222.091796875 144.526367188 222.091796875 144.526367188 222.091796875 180.493164062 c 0,0,1
196.286132812 817.889648438 m 0,15,16
 248.787109375 1077.74316406 248.787109375 1077.74316406 458 1236.31835938 c 2,17,-1
 479.926757812 1252.93847656 l 1,18,-1
 503.290039062 1238.40527344 l 1,19,-1
 551.524414062 1208.40136719 l 1,20,-1
 596.72265625 1180.28613281 l 1,21,-1
 557.142578125 1144.69335938 l 2,22,23
 425.723632812 1026.515625 425.723632812 1026.515625 400.288085938 847.825195312 c 1,24,25
 520.192382812 837.900390625 520.192382812 837.900390625 558.359375 762.899414062 c 0,26,27
 582.2265625 714.94921875 582.2265625 714.94921875 581.079101562 667.21875 c 0,28,29
 580.247070312 611.772460938 580.247070312 611.772460938 557.680664062 571.51171875 c 128,-1,30
 535.11328125 531.250976562 535.11328125 531.250976562 493.723632812 510.09765625 c 128,-1,31
 452.334960938 488.943359375 452.334960938 488.943359375 396.096679688 488.907226562 c 0,32,33
 380.2890625 488.840820312 380.2890625 488.840820312 365.373046875 490.146484375 c 128,-1,34
 350.45703125 491.451171875 350.45703125 491.451171875 336.604492188 494.180664062 c 0,35,36
 237.368164062 513.73046875 237.368164062 513.73046875 203.586914062 599.728515625 c 128,-1,37
 169.806640625 685.7265625 169.806640625 685.7265625 196.286132812 817.889648438 c 0,15,16
EndSplineSet
EndChar

StartChar: uni061F
Encoding: 1567 1567 8
GlifName: uni061F_
Width: 974
VWidth: 2804
GlyphClass: 2
Flags: W
LayerCount: 2
Fore
SplineSet
429.463867188 304.307617188 m 128,-1,1
 480.834960938 355.6796875 480.834960938 355.6796875 553.278320312 355.6796875 c 128,-1,2
 625.72265625 355.6796875 625.72265625 355.6796875 677.09375 304.307617188 c 128,-1,3
 728.463867188 252.936523438 728.463867188 252.936523438 728.463867188 180.493164062 c 128,-1,4
 728.463867188 108.049804688 728.463867188 108.049804688 677.09375 56.6787109375 c 128,-1,5
 625.72265625 5.306640625 625.72265625 5.306640625 553.278320312 5.306640625 c 0,6,7
 465.784718047 5.306640625 465.784718047 5.306640625 412.182617188 76.4482421875 c 0,8,9
 378.091796875 121.694147044 378.091796875 121.694147044 378.091796875 187.315335241 c 128,-1,0
 378.091796875 252.936523438 378.091796875 252.936523438 429.463867188 304.307617188 c 128,-1,1
415.522460938 502.6484375 m 2,10,11
 413.299731484 541.709283624 413.299731484 541.709283624 251.631835938 698.514648438 c 0,12,13
 2 941 2 941 90.845703125 1193.91992188 c 0,14,15
 115 1262 115 1262 162.005859375 1315.46484375 c 0,16,17
 295 1465 295 1465 501.259765625 1464.37109375 c 0,18,19
 707 1464 707 1464 811.715820312 1353.3046875 c 0,20,21
 916 1243 916 1243 916 1036 c 2,22,-1
 916 986.25 l 1,23,-1
 876 986.25 l 1,24,-1
 715.799804688 986.248046875 l 1,25,-1
 675.799804688 986.248046875 l 1,26,-1
 675.799804688 1034.88574219 l 2,27,28
 676 1144 676 1144 609.458984375 1175.02929688 c 0,29,30
 575 1191 575 1191 517.59375 1190.89453125 c 0,31,32
 419 1191 419 1191 379.341796875 1143.67089844 c 0,33,34
 286 1032 286 1032 468.479492188 840.391601562 c 0,35,36
 616 686 616 686 654.595703125 627.868164062 c 0,37,38
 691.802774139 572.294582379 691.802774139 572.294582379 695.946289062 508.013671875 c 6,39,-1
 696.69921875 496.333007812 l 1,40,-1
 415.881835938 496.333007812 l 1,41,-1
 415.522460938 502.6484375 l 2,10,11
EndSplineSet
EndChar

StartChar: uni0621
Encoding: 1569 1569 9
GlifName: uni0621
Width: 938
VWidth: 2992
GlyphClass: 2
Flags: W
AnchorPoint: "Anchor-7" 465.326 -199.646 basechar 0
AnchorPoint: "Anchor-10" 483.848 1412.06 basechar 0
LayerCount: 2
Fore
SplineSet
77.76953125 51.8525390625 m 1,0,-1
 77.76953125 249.793945312 l 1,1,-1
 77.76953125 271.80859375 l 1,2,-1
 96.369140625 283.587890625 l 2,3,4
 184.346679688 339.302734375 184.346679688 339.302734375 266.387695312 374.767578125 c 1,5,6
 237.20703125 394.740234375 237.20703125 394.740234375 212.645507812 416.510742188 c 128,-1,7
 188.083984375 438.28125 188.083984375 438.28125 168.078125 461.909179688 c 128,-1,8
 148.073242188 485.538085938 148.073242188 485.538085938 132.901367188 511.01171875 c 128,-1,9
 117.73046875 536.484375 117.73046875 536.484375 107.432617188 563.6171875 c 128,-1,10
 97.134765625 590.75 97.134765625 590.75 91.8798828125 619.790039062 c 128,-1,11
 86.625 648.831054688 86.625 648.831054688 86.5537109375 679.348632812 c 0,12,13
 87.052734375 817.756835938 87.052734375 817.756835938 179.916992188 927.088867188 c 0,14,15
 191.053710938 940.057617188 191.053710938 940.057617188 203.176757812 951.754882812 c 128,-1,16
 215.30078125 963.452148438 215.30078125 963.452148438 228.279296875 973.76953125 c 128,-1,17
 241.2578125 984.087890625 241.2578125 984.087890625 255.150390625 993.135742188 c 128,-1,18
 269.043945312 1002.18261719 269.043945312 1002.18261719 283.7578125 1009.87792969 c 128,-1,19
 298.47265625 1017.57324219 298.47265625 1017.57324219 314.026367188 1023.99707031 c 128,-1,20
 329.580078125 1030.42089844 329.580078125 1030.42089844 345.921875 1035.51855469 c 128,-1,21
 362.264648438 1040.6171875 362.264648438 1040.6171875 379.370117188 1044.44238281 c 128,-1,22
 396.4765625 1048.26757812 396.4765625 1048.26757812 414.337890625 1050.79492188 c 128,-1,23
 432.19921875 1053.32128906 432.19921875 1053.32128906 450.749023438 1054.57421875 c 128,-1,24
 469.299804688 1055.82714844 469.299804688 1055.82714844 488.569335938 1055.80664062 c 0,25,26
 659.740234375 1056.01855469 659.740234375 1056.01855469 789.92578125 944.778320312 c 2,27,-1
 812.577148438 925.422851562 l 1,28,-1
 800.517578125 898.177734375 l 1,29,-1
 743.94140625 770.359375 l 1,30,-1
 726.45703125 730.859375 l 1,31,-1
 688.415039062 751.323242188 l 2,32,33
 597.848632812 800.041015625 597.848632812 800.041015625 500.293945312 800.436523438 c 0,34,35
 409.015625 800.2421875 409.015625 800.2421875 372.016601562 771.15234375 c 128,-1,36
 335.017578125 742.061523438 335.017578125 742.061523438 335.028320312 679.2578125 c 0,37,38
 335.018554688 634.694335938 335.018554688 634.694335938 379.922851562 587.040039062 c 128,-1,39
 424.827148438 539.38671875 424.827148438 539.38671875 522.896484375 491.892578125 c 1,40,-1
 792.581054688 546.356445312 l 1,41,-1
 834.041015625 554.73046875 l 1,42,-1
 840.087890625 512.8671875 l 1,43,-1
 867.885742188 320.419921875 l 1,44,-1
 873.76953125 279.689453125 l 1,45,-1
 832.888671875 274.965820312 l 2,46,47
 540.491210938 241.177734375 540.491210938 241.177734375 137.2109375 16.89453125 c 2,48,-1
 77.76953125 -16.1630859375 l 1,49,-1
 77.76953125 51.8525390625 l 1,0,-1
EndSplineSet
EndChar

StartChar: uni0627
Encoding: 1575 1575 15
GlifName: uni0627
Width: 497
VWidth: 2992
GlyphClass: 2
Flags: W
AnchorPoint: "Anchor-10" 249.871 1633.46 basechar 0
AnchorPoint: "Anchor-7" 253.587 -196.365 basechar 0
LayerCount: 2
Fore
SplineSet
124.890625 1468.15039062 m 1,0,-1
 384.205078125 1468.15039062 l 1,1,-1
 384.205078125 0.751953125 l 1,2,-1
 124.890625 0.751953125 l 1,3,-1
 124.890625 1468.15039062 l 1,0,-1
EndSplineSet
Substitution2: "'fina' Terminal Forms in Arabic lookup 9 subtable" uniFE8E
EndChar

StartChar: uni062C
Encoding: 1580 1580 20
GlifName: uni062C_
Width: 1386
VWidth: 2703
GlyphClass: 2
Flags: W
AnchorPoint: "Anchor-7" 536.833 -922.619 basechar 0
AnchorPoint: "Anchor-10" 633.478 1366.07 basechar 0
LayerCount: 2
Fore
SplineSet
791.528320312 -701.249023438 m 1024
EndSplineSet
Refer: 21 1581 N 1 0 0 1 0 0 2
Refer: 264 -1 S 1.07 0 0 1.07 701.95 -134.716 2
Substitution2: "'fina' Terminal Forms in Arabic lookup 9 subtable" uniFE9E
Substitution2: "'medi' Medial Forms in Arabic lookup 11 subtable" uniFEA0
Substitution2: "'init' Initial Forms in Arabic lookup 13 subtable" uniFE9F
EndChar

StartChar: uni062D
Encoding: 1581 1581 21
GlifName: uni062D_
Width: 1386
VWidth: 2992
GlyphClass: 2
Flags: W
AnchorPoint: "Anchor-7" 536.833 -882.619 basechar 0
AnchorPoint: "Anchor-10" 633.478 1406.07 basechar 0
LayerCount: 2
Fore
SplineSet
59.9873046875 -124.852539062 m 0,0,1
 59.9873046875 164.9375 59.9873046875 164.9375 227.734375 359.741210938 c 128,-1,2
 395.481445312 554.543945312 395.481445312 554.543945312 720.706054688 648.473632812 c 1,3,4
 533.7734375 723.6875 533.7734375 723.6875 477.73828125 723.6875 c 0,5,6
 375.853563386 723.6875 375.853563386 723.6875 315.234375 645.607421875 c 2,7,-1
 267.182617188 583.711914062 l 1,8,-1
 44.9541015625 693.424804688 l 1,9,-1
 84.2421875 758.3046875 l 2,10,11
 225.437045308 990.915731158 225.437045308 990.915731158 471.326171875 991.841796875 c 0,12,13
 607.525390625 991.841796875 607.525390625 991.841796875 792.490234375 901.999023438 c 0,14,15
 1097.03043545 753.606927916 1097.03043545 753.606927916 1259.6171875 746.655273438 c 2,16,-1
 1300.7734375 744.89453125 l 1,17,-1
 1282.29492188 489.174804688 l 1,18,-1
 1247.39941406 487.006835938 l 2,19,20
 1074.70996094 476.27734375 1074.70996094 476.27734375 961.641601562 450.581054688 c 0,21,22
 315.018848946 301.190861102 315.018848946 301.190861102 315.249023438 -109.3046875 c 0,23,24
 315.137695312 -274.155273438 315.137695312 -274.155273438 432.989257812 -355.96875 c 128,-1,25
 550.840820312 -437.783203125 550.840820312 -437.783203125 792.614746094 -437.783203125 c 128,-1,26
 1034.38354656 -437.783203125 1034.38354656 -437.783203125 1272.37695312 -324.063476562 c 5,27,-1
 1324.70019531 -583.543945312 l 5,28,-1
 1296.8671875 -597.081054688 l 6,29,30
 1083.22741302 -700.992880149 1083.22741302 -700.992880149 791.533203125 -701.249023438 c 0,31,32
 386.538596991 -700.990688536 386.538596991 -700.990688536 199.650390625 -499.484375 c 0,33,34
 59.9873046875 -348.662109375 59.9873046875 -348.662109375 59.9873046875 -124.852539062 c 0,0,1
EndSplineSet
Substitution2: "'fina' Terminal Forms in Arabic lookup 9 subtable" uniFEA2
Substitution2: "'medi' Medial Forms in Arabic lookup 11 subtable" uniFEA4
Substitution2: "'init' Initial Forms in Arabic lookup 13 subtable" uniFEA3
EndChar

StartChar: uni062F
Encoding: 1583 1583 23
GlifName: uni062F_
Width: 1000
VWidth: 2992
GlyphClass: 2
Flags: W
AnchorPoint: "Anchor-10" 424.137 1415.03 basechar 0
AnchorPoint: "Anchor-7" 437.24 -199.316 basechar 0
LayerCount: 2
Fore
SplineSet
109.139648438 294.3671875 m 2,0,1
 226.104492188 270.00390625 226.104492188 270.00390625 341.651367188 270.107421875 c 0,2,3
 671.989257812 270.01171875 671.989257812 270.01171875 671.954101562 406.389648438 c 0,4,5
 671.973632812 494.135742188 671.973632812 494.135742188 574.0625 605.10546875 c 128,-1,6
 476.151367188 716.076171875 476.151367188 716.076171875 275.705078125 842.139648438 c 2,7,-1
 241.11328125 863.89453125 l 1,8,-1
 263.602539062 898.013671875 l 1,9,-1
 363.85546875 1050.11328125 l 1,10,-1
 384.975585938 1082.15625 l 1,11,-1
 417.865234375 1062.37988281 l 2,12,13
 937.965820312 749.642578125 937.965820312 749.642578125 938.479492188 408.900390625 c 0,14,15
 938.40234375 350.358398438 938.40234375 350.358398438 925.377929688 299.880859375 c 128,-1,16
 912.352539062 249.404296875 912.352539062 249.404296875 887.145507812 208.13671875 c 128,-1,17
 861.938476562 166.869140625 861.938476562 166.869140625 824.735351562 133.640625 c 128,-1,18
 787.53125 100.412109375 787.53125 100.412109375 739.298828125 75.94140625 c 128,-1,19
 691.06640625 51.4716796875 691.06640625 51.4716796875 631.776367188 35.0419921875 c 128,-1,20
 572.485351562 18.6123046875 572.485351562 18.6123046875 503.319335938 10.490234375 c 128,-1,21
 434.153320312 2.3681640625 434.153320312 2.3681640625 354.880859375 2.259765625 c 0,22,23
 203.629882812 1.9921875 203.629882812 1.9921875 92.2783203125 26.81640625 c 2,24,-1
 60.982421875 33.7939453125 l 1,25,-1
 60.982421875 65.8583984375 l 1,26,-1
 60.982421875 255.208007812 l 1,27,-1
 60.982421875 304.3984375 l 1,28,-1
 109.139648438 294.3671875 l 2,0,1
EndSplineSet
Substitution2: "'fina' Terminal Forms in Arabic lookup 9 subtable" uniFEAA
EndChar

StartChar: uni0631
Encoding: 1585 1585 25
GlifName: uni0631
Width: 830
VWidth: 2184
GlyphClass: 2
Flags: W
AnchorPoint: "Anchor-10" 459.256 1410.2 basechar 0
AnchorPoint: "Anchor-7" 364.969 -729.998 basechar 0
LayerCount: 2
Fore
SplineSet
675.759765625 587.671875 m 2,0,1
 772.982421875 366.440429688 772.982421875 366.440429688 773.375 174.020507812 c 0,2,3
 773.243164062 -29.7509765625 773.243164062 -29.7509765625 688.658203125 -178.491210938 c 128,-1,4
 604.073242188 -327.231445312 604.073242188 -327.231445312 439.926757812 -417.387695312 c 128,-1,5
 275.780273438 -507.543945312 275.780273438 -507.543945312 34.7431640625 -539.80078125 c 2,6,-1
 -0.6962890625 -544.543945312 l 1,7,-1
 -9.3681640625 -509.85546875 l 1,8,-1
 -51.9365234375 -339.580078125 l 1,9,-1
 -62.7705078125 -296.2421875 l 1,10,-1
 -18.50390625 -290.241210938 l 2,11,12
 407.893554688 -232.440429688 407.893554688 -232.440429688 491.548828125 18.0556640625 c 0,13,14
 513.103515625 83.6845703125 513.103515625 83.6845703125 513.250976562 162.243164062 c 0,15,16
 513.250976562 314.565429688 513.250976562 314.565429688 428.772460938 495.041992188 c 2,17,-1
 409.874023438 535.416015625 l 1,18,-1
 452.051757812 549.846679688 l 1,19,-1
 626.19140625 609.42578125 l 1,20,-1
 660.970703125 621.32421875 l 1,21,-1
 675.759765625 587.671875 l 2,0,1
EndSplineSet
PairPos2: "'kern' Horizontal Kerning lookup 15-2" uniFBFE dx=60 dy=0 dh=60 dv=0 dx=0 dy=0 dh=0 dv=0
PairPos2: "'kern' Horizontal Kerning lookup 15-1" uniFEE7 dx=-178 dy=0 dh=-178 dv=0 dx=0 dy=0 dh=0 dv=0
PairPos2: "'kern' Horizontal Kerning lookup 15-2" uniFB90 dx=-226 dy=0 dh=-226 dv=0 dx=0 dy=0 dh=0 dv=0
PairPos2: "'kern' Horizontal Kerning lookup 15-2" uniFB8E dx=-226 dy=0 dh=-226 dv=0 dx=0 dy=0 dh=0 dv=0
PairPos2: "'kern' Horizontal Kerning lookup 15-2" uni06A9 dx=-226 dy=0 dh=-226 dv=0 dx=0 dy=0 dh=0 dv=0
PairPos2: "'kern' Horizontal Kerning lookup 15-2" uni064A dx=-60 dy=0 dh=-60 dv=0 dx=0 dy=0 dh=0 dv=0
PairPos2: "'kern' Horizontal Kerning lookup 15-2" afii57414 dx=-60 dy=0 dh=-60 dv=0 dx=0 dy=0 dh=0 dv=0
PairPos2: "'kern' Horizontal Kerning lookup 15-2" uni0649 dx=-60 dy=0 dh=-60 dv=0 dx=0 dy=0 dh=0 dv=0
PairPos2: "'kern' Horizontal Kerning lookup 15-2" uniFEEB dx=-178 dy=0 dh=-178 dv=0 dx=0 dy=0 dh=0 dv=0
PairPos2: "'kern' Horizontal Kerning lookup 15-2" uni0647 dx=-178 dy=0 dh=-178 dv=0 dx=0 dy=0 dh=0 dv=0
PairPos2: "'kern' Horizontal Kerning lookup 15-2" uni0646 dx=-60 dy=0 dh=-60 dv=0 dx=0 dy=0 dh=0 dv=0
PairPos2: "'kern' Horizontal Kerning lookup 15-2" uniFEE3 dx=-178 dy=0 dh=-178 dv=0 dx=0 dy=0 dh=0 dv=0
PairPos2: "'kern' Horizontal Kerning lookup 15-2" uni0645 dx=-178 dy=0 dh=-178 dv=0 dx=0 dy=0 dh=0 dv=0
PairPos2: "'kern' Horizontal Kerning lookup 15-2" uniFEFB dx=-143 dy=0 dh=-143 dv=0 dx=0 dy=0 dh=0 dv=0
PairPos2: "'kern' Horizontal Kerning lookup 15-2" uniFEDF dx=-143 dy=0 dh=-143 dv=0 dx=0 dy=0 dh=0 dv=0
PairPos2: "'kern' Horizontal Kerning lookup 15-2" uni0644 dx=-60 dy=0 dh=-60 dv=0 dx=0 dy=0 dh=0 dv=0
PairPos2: "'kern' Horizontal Kerning lookup 15-2" uniFEDB dx=-226 dy=0 dh=-226 dv=0 dx=0 dy=0 dh=0 dv=0
PairPos2: "'kern' Horizontal Kerning lookup 15-2" uni0643 dx=-143 dy=0 dh=-143 dv=0 dx=0 dy=0 dh=0 dv=0
PairPos2: "'kern' Horizontal Kerning lookup 15-2" uniFED7 dx=-178 dy=0 dh=-178 dv=0 dx=0 dy=0 dh=0 dv=0
PairPos2: "'kern' Horizontal Kerning lookup 15-2" uni0642 dx=-60 dy=0 dh=-60 dv=0 dx=0 dy=0 dh=0 dv=0
PairPos2: "'kern' Horizontal Kerning lookup 15-2" uniFED3 dx=-178 dy=0 dh=-178 dv=0 dx=0 dy=0 dh=0 dv=0
PairPos2: "'kern' Horizontal Kerning lookup 15-2" uni0641 dx=-178 dy=0 dh=-178 dv=0 dx=0 dy=0 dh=0 dv=0
PairPos2: "'kern' Horizontal Kerning lookup 15-2" uniFECF dx=-178 dy=0 dh=-178 dv=0 dx=0 dy=0 dh=0 dv=0
PairPos2: "'kern' Horizontal Kerning lookup 15-2" uniFECB dx=-178 dy=0 dh=-178 dv=0 dx=0 dy=0 dh=0 dv=0
PairPos2: "'kern' Horizontal Kerning lookup 15-2" uniFEC7 dx=-178 dy=0 dh=-178 dv=0 dx=0 dy=0 dh=0 dv=0
PairPos2: "'kern' Horizontal Kerning lookup 15-2" uni0638 dx=-178 dy=0 dh=-178 dv=0 dx=0 dy=0 dh=0 dv=0
PairPos2: "'kern' Horizontal Kerning lookup 15-2" uniFEC3 dx=-178 dy=0 dh=-178 dv=0 dx=0 dy=0 dh=0 dv=0
PairPos2: "'kern' Horizontal Kerning lookup 15-2" uni0637 dx=-178 dy=0 dh=-178 dv=0 dx=0 dy=0 dh=0 dv=0
PairPos2: "'kern' Horizontal Kerning lookup 15-2" uniFEBF dx=-178 dy=0 dh=-178 dv=0 dx=0 dy=0 dh=0 dv=0
PairPos2: "'kern' Horizontal Kerning lookup 15-2" uni0636 dx=-178 dy=0 dh=-178 dv=0 dx=0 dy=0 dh=0 dv=0
PairPos2: "'kern' Horizontal Kerning lookup 15-2" uniFEBB dx=-178 dy=0 dh=-178 dv=0 dx=0 dy=0 dh=0 dv=0
PairPos2: "'kern' Horizontal Kerning lookup 15-2" uni0635 dx=-178 dy=0 dh=-178 dv=0 dx=0 dy=0 dh=0 dv=0
PairPos2: "'kern' Horizontal Kerning lookup 15-2" uniFEB7 dx=-178 dy=0 dh=-178 dv=0 dx=0 dy=0 dh=0 dv=0
PairPos2: "'kern' Horizontal Kerning lookup 15-2" uni0634 dx=-178 dy=0 dh=-178 dv=0 dx=0 dy=0 dh=0 dv=0
PairPos2: "'kern' Horizontal Kerning lookup 15-2" uniFEB3 dx=-178 dy=0 dh=-178 dv=0 dx=0 dy=0 dh=0 dv=0
PairPos2: "'kern' Horizontal Kerning lookup 15-2" uni0633 dx=-178 dy=0 dh=-178 dv=0 dx=0 dy=0 dh=0 dv=0
PairPos2: "'kern' Horizontal Kerning lookup 15-2" uni0630 dx=-178 dy=0 dh=-178 dv=0 dx=0 dy=0 dh=0 dv=0
PairPos2: "'kern' Horizontal Kerning lookup 15-2" uni062F dx=-178 dy=0 dh=-178 dv=0 dx=0 dy=0 dh=0 dv=0
PairPos2: "'kern' Horizontal Kerning lookup 15-2" uniFEA7 dx=-178 dy=0 dh=-178 dv=0 dx=0 dy=0 dh=0 dv=0
PairPos2: "'kern' Horizontal Kerning lookup 15-2" uniFEA3 dx=-178 dy=0 dh=-178 dv=0 dx=0 dy=0 dh=0 dv=0
PairPos2: "'kern' Horizontal Kerning lookup 15-2" uniFE9F dx=-178 dy=0 dh=-178 dv=0 dx=0 dy=0 dh=0 dv=0
PairPos2: "'kern' Horizontal Kerning lookup 15-2" uniFE9B dx=-178 dy=0 dh=-178 dv=0 dx=0 dy=0 dh=0 dv=0
PairPos2: "'kern' Horizontal Kerning lookup 15-2" uni062B dx=-178 dy=0 dh=-178 dv=0 dx=0 dy=0 dh=0 dv=0
PairPos2: "'kern' Horizontal Kerning lookup 15-2" uniFE97 dx=-178 dy=0 dh=-178 dv=0 dx=0 dy=0 dh=0 dv=0
PairPos2: "'kern' Horizontal Kerning lookup 15-2" uni062A dx=-178 dy=0 dh=-178 dv=0 dx=0 dy=0 dh=0 dv=0
PairPos2: "'kern' Horizontal Kerning lookup 15-2" uni0629 dx=-178 dy=0 dh=-178 dv=0 dx=0 dy=0 dh=0 dv=0
PairPos2: "'kern' Horizontal Kerning lookup 15-2" uni0628 dx=-178 dy=0 dh=-178 dv=0 dx=0 dy=0 dh=0 dv=0
PairPos2: "'kern' Horizontal Kerning lookup 15-2" uni0627 dx=-143 dy=0 dh=-143 dv=0 dx=0 dy=0 dh=0 dv=0
PairPos2: "'kern' Horizontal Kerning lookup 15-2" uni0623 dx=-143 dy=0 dh=-143 dv=0 dx=0 dy=0 dh=0 dv=0
PairPos2: "'kern' Horizontal Kerning lookup 15-2" uni0622 dx=-143 dy=0 dh=-143 dv=0 dx=0 dy=0 dh=0 dv=0
PairPos2: "'kern' Horizontal Kerning lookup 15-2" uni0621 dx=-178 dy=0 dh=-178 dv=0 dx=0 dy=0 dh=0 dv=0
PairPos2: "'kern' Horizontal Kerning lookup 15-2" uniFB94 dx=-226 dy=0 dh=-226 dv=0 dx=0 dy=0 dh=0 dv=0
PairPos2: "'kern' Horizontal Kerning lookup 15-2" uniFB92 dx=-226 dy=0 dh=-226 dv=0 dx=0 dy=0 dh=0 dv=0
PairPos2: "'kern' Horizontal Kerning lookup 15-2" uni06AF dx=-226 dy=0 dh=-226 dv=0 dx=0 dy=0 dh=0 dv=0
PairPos2: "'kern' Horizontal Kerning lookup 15-2" afii57506 dx=-178 dy=0 dh=-178 dv=0 dx=0 dy=0 dh=0 dv=0
PairPos2: "'kern' Horizontal Kerning lookup 15-2" afii57440 dx=-178 dy=0 dh=-178 dv=0 dx=0 dy=0 dh=0 dv=0
PairPos2: "'kern' Horizontal Kerning lookup 15-2" uniFE8B dx=-178 dy=0 dh=-178 dv=0 dx=0 dy=0 dh=0 dv=0
Substitution2: "'fina' Terminal Forms in Arabic lookup 9 subtable" uniFEAE
EndChar

StartChar: uni0633
Encoding: 1587 1587 27
GlifName: uni0633
Width: 2506
VWidth: 2992
GlyphClass: 2
Flags: W
AnchorPoint: "Anchor-10" 1794.53 1417.1 basechar 0
AnchorPoint: "Anchor-7" 595.902 -760.086 basechar 0
LayerCount: 2
Fore
SplineSet
2076.11425781 -0.060546875 m 0,0,1
 1905.57519531 -0.060546875 1905.57519531 -0.060546875 1825.77832031 109.4375 c 1,2,3
 1720.67871094 -0.005859375 1720.67871094 -0.005859375 1552.80175781 -0.0810546875 c 0,4,5
 1469.0234375 -0.021484375 1469.0234375 -0.021484375 1405.66601562 27.72265625 c 1,6,7
 1392.46289062 -83.001953125 1392.46289062 -83.001953125 1340.05078125 -194.040039062 c 128,-1,8
 1287.7109375 -305.27734375 1287.7109375 -305.27734375 1197.94238281 -379.69140625 c 128,-1,9
 1108.17382812 -454.10546875 1108.17382812 -454.10546875 985.477539062 -490.462890625 c 128,-1,10
 862.782226562 -526.819335938 862.782226562 -526.819335938 707.33203125 -526.724609375 c 0,11,12
 269.689453125 -526.923828125 269.689453125 -526.923828125 126.418945312 -236.029296875 c 0,13,14
 62.0390625 -104.139648438 62.0390625 -104.139648438 61.7529296875 81.05859375 c 0,15,16
 62.009765625 293.97265625 62.009765625 293.97265625 166.068359375 545.420898438 c 2,17,-1
 181.209960938 582.0078125 l 1,18,-1
 217.94921875 567.23828125 l 1,19,-1
 380.469726562 501.900390625 l 1,20,-1
 417.341796875 487.076171875 l 1,21,-1
 402.7578125 450.108398438 l 2,22,23
 322.213867188 245.936523438 322.213867188 245.936523438 322.268554688 82.474609375 c 0,24,25
 322.310546875 23.3203125 322.310546875 23.3203125 332.427734375 -24.8388671875 c 128,-1,26
 342.544921875 -72.9990234375 342.544921875 -72.9990234375 363.431640625 -111.63671875 c 128,-1,27
 384.318359375 -150.274414062 384.318359375 -150.274414062 416.139648438 -178.568359375 c 128,-1,28
 447.9609375 -206.861328125 447.9609375 -206.861328125 491.600585938 -225.768554688 c 128,-1,29
 535.241210938 -244.676757812 535.241210938 -244.676757812 590.663085938 -253.923828125 c 128,-1,30
 646.0859375 -263.170898438 646.0859375 -263.170898438 714.362304688 -263.203125 c 0,31,32
 826.939453125 -263.155273438 826.939453125 -263.155273438 908.818359375 -238.703125 c 128,-1,33
 990.697265625 -214.250976562 990.697265625 -214.250976562 1044.41601562 -163.866210938 c 128,-1,34
 1098.13476562 -113.481445312 1098.13476562 -113.481445312 1124.16308594 -37.697265625 c 128,-1,35
 1150.19140625 38.087890625 1150.19140625 38.087890625 1150.5546875 142.051757812 c 0,36,37
 1150.97753906 316.815429688 1150.97753906 316.815429688 1064.49023438 494.2421875 c 2,38,-1
 1044.77441406 534.689453125 l 1,39,-1
 1087.25292969 549.530273438 l 1,40,-1
 1259.89453125 609.84765625 l 1,41,-1
 1298.53808594 623.348632812 l 1,42,-1
 1311.14355469 584.404296875 l 1,43,-1
 1371.06054688 399.302734375 l 2,44,45
 1392.95214844 331.484375 1392.95214844 331.484375 1436.69140625 300.262695312 c 128,-1,46
 1480.43164062 269.041015625 1480.43164062 269.041015625 1554.25488281 269.073242188 c 0,47,48
 1595.16894531 269.057617188 1595.16894531 269.057617188 1623.11523438 276.6171875 c 128,-1,49
 1651.06152344 284.177734375 1651.06152344 284.177734375 1668.73144531 300.911132812 c 128,-1,50
 1686.40136719 317.643554688 1686.40136719 317.643554688 1694.19628906 342.87890625 c 128,-1,51
 1701.99121094 368.11328125 1701.99121094 368.11328125 1701.98925781 404.865234375 c 0,52,53
 1702 465.448242188 1702 465.448242188 1700.22753906 488.602539062 c 2,54,-1
 1694.73632812 560.362304688 l 1,55,-1
 1691.97558594 596.44921875 l 1,56,-1
 1727.60742188 602.794921875 l 1,57,-1
 1892.4140625 632.142578125 l 1,58,-1
 1935.95507812 639.895507812 l 1,59,-1
 1939.31152344 595.796875 l 1,60,-1
 1955.38574219 384.595703125 l 2,61,62
 1960.16503906 321.188476562 1960.16503906 321.188476562 1987.14550781 294.940429688 c 128,-1,63
 2014.125 268.692382812 2014.125 268.692382812 2072.97070312 268.484375 c 0,64,65
 2109.00195312 268.36328125 2109.00195312 268.36328125 2131.0234375 281.157226562 c 128,-1,66
 2153.04492188 293.951171875 2153.04492188 293.951171875 2165.10742188 326.859375 c 128,-1,67
 2177.16894531 359.767578125 2177.16894531 359.767578125 2177.24121094 416.2109375 c 0,68,69
 2177.01269531 514.353515625 2177.01269531 514.353515625 2134.75976562 662.265625 c 2,70,-1
 2123.52246094 701.603515625 l 1,71,-1
 2163.10351562 711.952148438 l 1,72,-1
 2338.0546875 757.692382812 l 1,73,-1
 2374.95410156 767.33984375 l 1,74,-1
 2386.34667969 730.94140625 l 2,75,76
 2411.60351562 650.250976562 2411.60351562 650.250976562 2424.36132812 573.48828125 c 128,-1,77
 2437.11914062 496.724609375 2437.11914062 496.724609375 2437.25097656 423.71875 c 0,78,79
 2437.1171875 311.307617188 2437.1171875 311.307617188 2403.50390625 223.591796875 c 128,-1,80
 2369.890625 135.876953125 2369.890625 135.876953125 2301.95019531 76.109375 c 0,81,82
 2293.12402344 68.3798828125 2293.12402344 68.3798828125 2283.7109375 61.419921875 c 128,-1,83
 2274.29785156 54.4599609375 2274.29785156 54.4599609375 2264.40625 48.341796875 c 128,-1,84
 2254.515625 42.2236328125 2254.515625 42.2236328125 2244.09277344 36.8681640625 c 128,-1,85
 2233.66992188 31.51171875 2233.66992188 31.51171875 2222.78027344 26.9716796875 c 128,-1,86
 2211.890625 22.4306640625 2211.890625 22.4306640625 2200.52539062 18.646484375 c 128,-1,87
 2189.16113281 14.8623046875 2189.16113281 14.8623046875 2177.33984375 11.8671875 c 128,-1,88
 2165.51953125 8.8720703125 2165.51953125 8.8720703125 2153.28125 6.6259765625 c 128,-1,89
 2141.04296875 4.380859375 2141.04296875 4.380859375 2128.36035156 2.8984375 c 128,-1,90
 2115.67675781 1.4169921875 2115.67675781 1.4169921875 2102.6328125 0.677734375 c 128,-1,91
 2089.58886719 -0.060546875 2089.58886719 -0.060546875 2076.11425781 -0.060546875 c 0,0,1
EndSplineSet
Substitution2: "'fina' Terminal Forms in Arabic lookup 9 subtable" uniFEB2
Substitution2: "'medi' Medial Forms in Arabic lookup 11 subtable" uniFEB4
Substitution2: "'init' Initial Forms in Arabic lookup 13 subtable" uniFEB3
EndChar

StartChar: uni0635
Encoding: 1589 1589 29
GlifName: uni0635
Width: 2675
VWidth: 2992
GlyphClass: 2
Flags: W
AnchorPoint: "Anchor-7" 595.902 -760.086 basechar 0
AnchorPoint: "Anchor-10" 2104.53 1417.1 basechar 0
LayerCount: 2
Fore
SplineSet
1379.08984375 373.213867188 m 2,0,1
 1387.18457031 347.885742188 1387.18457031 347.885742188 1397.05761719 331.245117188 c 128,-1,2
 1406.93066406 314.604492188 1406.93066406 314.604492188 1416.36328125 306.89453125 c 1,3,4
 1793.92480469 930.42578125 1793.92480469 930.42578125 2181.34765625 930.42578125 c 0,5,6
 2294.43652344 930.42578125 2294.43652344 930.42578125 2383.6015625 886.147460938 c 128,-1,7
 2472.76660156 841.870117188 2472.76660156 841.870117188 2533.13964844 754.844726562 c 0,8,9
 2604.56445312 651.6796875 2604.56445312 651.6796875 2604.56445312 521.813476562 c 0,10,11
 2604.56445312 440.419921875 2604.56445312 440.419921875 2582.11132812 369.883789062 c 0,12,13
 2464.234375 0 2464.234375 0 1773.15136719 0 c 2,14,-1
 1722.34082031 0 l 2,15,16
 1656.59863281 0 1656.59863281 0 1600.10644531 4.12109375 c 128,-1,17
 1543.61523438 8.2421875 1543.61523438 8.2421875 1495.06445312 16.7451171875 c 128,-1,18
 1446.51464844 25.2490234375 1446.51464844 25.2490234375 1406.80859375 38.1650390625 c 1,19,20
 1400.9453125 -19.8056640625 1400.9453125 -19.8056640625 1384.21875 -77.8544921875 c 128,-1,21
 1367.4921875 -135.903320312 1367.4921875 -135.903320312 1340.05078125 -194.040039062 c 0,22,23
 1308.60253906 -260.876953125 1308.60253906 -260.876953125 1263.53710938 -314.517578125 c 128,-1,24
 1218.47167969 -368.159179688 1218.47167969 -368.159179688 1161.00097656 -407.827148438 c 128,-1,25
 1103.52929688 -447.495117188 1103.52929688 -447.495117188 1033.44042969 -474.020507812 c 128,-1,26
 963.352539062 -500.545898438 963.352539062 -500.545898438 881.881835938 -513.635742188 c 128,-1,27
 800.41015625 -526.724609375 800.41015625 -526.724609375 707.323242188 -526.724609375 c 0,28,29
 269.512695312 -526.590820312 269.512695312 -526.590820312 126.30859375 -235.833007812 c 0,30,31
 61.9580078125 -104.001953125 61.9580078125 -104.001953125 61.7529296875 81.0439453125 c 0,32,33
 61.7529296875 293.779296875 61.7529296875 293.779296875 166.077148438 545.442382812 c 2,34,-1
 181.231445312 581.999023438 l 1,35,-1
 217.94921875 567.23828125 l 1,36,-1
 380.469726562 501.900390625 l 1,37,-1
 417.282226562 487.100585938 l 1,38,-1
 402.78125 450.16796875 l 2,39,40
 322.268554688 245.11328125 322.268554688 245.11328125 322.268554688 82.8603515625 c 0,41,42
 322.268554688 -94.521484375 322.268554688 -94.521484375 416.64453125 -178.862304688 c 128,-1,43
 511.020507812 -263.203125 511.020507812 -263.203125 714.362304688 -263.203125 c 0,44,45
 939.205078125 -263.203125 939.205078125 -263.203125 1044.87988281 -164.408203125 c 128,-1,46
 1150.5546875 -65.6142578125 1150.5546875 -65.6142578125 1150.5546875 141.93359375 c 0,47,48
 1150.5546875 316.732421875 1150.5546875 316.732421875 1064.45410156 494.317382812 c 2,49,-1
 1044.86425781 534.720703125 l 1,50,-1
 1087.25292969 549.530273438 l 1,51,-1
 1259.89453125 609.84765625 l 1,52,-1
 1298.60644531 623.373046875 l 1,53,-1
 1311.16601562 584.336914062 l 1,54,-1
 1379.08984375 373.213867188 l 2,0,1
1698.53710938 269.416992188 m 1,55,-1
 1778.78027344 269.416992188 l 2,56,57
 2080.49414062 269.211914062 2080.49414062 269.211914062 2216.8515625 346.776367188 c 0,58,59
 2342.33496094 418.155273438 2342.33496094 418.155273438 2342.66894531 511.11328125 c 0,60,61
 2342.40625 562.373046875 2342.40625 562.373046875 2316.16992188 596.717773438 c 0,62,63
 2308.20703125 607.141601562 2308.20703125 607.141601562 2299.47851562 615.669921875 c 128,-1,64
 2290.75097656 624.19921875 2290.75097656 624.19921875 2280.88671875 631.11328125 c 128,-1,65
 2271.02246094 638.026367188 2271.02246094 638.026367188 2260.09082031 643.123046875 c 128,-1,66
 2249.15917969 648.21875 2249.15917969 648.21875 2236.88183594 651.665039062 c 128,-1,67
 2224.60546875 655.110351562 2224.60546875 655.110351562 2210.95214844 656.82421875 c 128,-1,68
 2197.29882812 658.538085938 2197.29882812 658.538085938 2182.0859375 658.573242188 c 0,69,70
 2075.63769531 658.495117188 2075.63769531 658.495117188 1953.25585938 562.099609375 c 128,-1,71
 1830.87304688 465.704101562 1830.87304688 465.704101562 1698.53710938 269.416992188 c 1,55,-1
EndSplineSet
Substitution2: "'fina' Terminal Forms in Arabic lookup 9 subtable" uniFEBA
Substitution2: "'medi' Medial Forms in Arabic lookup 11 subtable" uniFEBC
Substitution2: "'init' Initial Forms in Arabic lookup 13 subtable" uniFEBB
EndChar

StartChar: uni0637
Encoding: 1591 1591 31
GlifName: uni0637
Width: 1554
VWidth: 2992
GlyphClass: 2
Flags: W
AnchorPoint: "Anchor-10" 475.36 1632.58 basechar 0
AnchorPoint: "Anchor-7" 641.602 -196.453 basechar 0
LayerCount: 2
Fore
SplineSet
1067.84667969 930.423828125 m 0,0,1
 1125 930 1125 930 1176.26660156 919.287109375 c 0,2,3
 1228 908 1228 908 1272.14941406 886.09375 c 0,4,5
 1317 864 1317 864 1354.64453125 830.764648438 c 0,6,7
 1392 797 1392 797 1422.5390625 753.608398438 c 0,8,9
 1456 705 1456 705 1472.85351562 647.770507812 c 0,10,11
 1490 591 1490 591 1489.67382812 527.791992188 c 0,12,13
 1490 142 1490 142 1036.11425781 37.2197265625 c 0,14,15
 873 0 873 0 658.228515625 -0 c 2,16,-1
 101.302734375 0 l 1,17,-1
 61.302734375 0 l 1,18,-1
 61.302734375 40 l 1,19,-1
 61.302734375 229.221679688 l 1,20,-1
 61.302734375 269.193359375 l 1,21,-1
 101.274414062 269.221679688 l 1,22,-1
 300.4921875 269.362304688 l 1,23,24
 324 310 324 310 349.6328125 352.87890625 c 1,25,-1
 349.6328125 1428.87402344 l 1,26,-1
 349.6328125 1468.87402344 l 1,27,-1
 389.6328125 1468.87402344 l 1,28,-1
 568.946289062 1468.87402344 l 1,29,-1
 608.946289062 1468.87402344 l 1,30,-1
 608.946289062 1428.87402344 l 1,31,-1
 608.946289062 704.909179688 l 1,32,33
 824 930 824 930 1067.84667969 930.423828125 c 0,0,1
663.799804688 269.534179688 m 2,34,35
 965.533203125 270.030273438 965.533203125 270.030273438 1100.88964844 348.202148438 c 0,36,37
 1227.81152344 422.055664062 1227.81152344 422.055664062 1227.73828125 509.37890625 c 0,38,39
 1227.76367188 532.703125 1227.76367188 532.703125 1222.75097656 552.07421875 c 128,-1,40
 1217.73730469 571.444335938 1217.73730469 571.444335938 1207.70117188 587.526367188 c 128,-1,41
 1197.66601562 603.607421875 1197.66601562 603.607421875 1182.0390625 617.78125 c 0,42,43
 1137.18945312 658.573242188 1137.18945312 658.573242188 1067.39648438 658.573242188 c 0,44,45
 856.22265625 658.573242188 856.22265625 658.573242188 609.010742188 306.717773438 c 0,46,47
 595.916015625 288.036132812 595.916015625 288.036132812 583.473632812 269.534179688 c 1,48,-1
 663.799804688 269.534179688 l 2,34,35
EndSplineSet
Substitution2: "'fina' Terminal Forms in Arabic lookup 9 subtable" uniFEC2
Substitution2: "'medi' Medial Forms in Arabic lookup 11 subtable" uniFEC4
Substitution2: "'init' Initial Forms in Arabic lookup 13 subtable" uniFEC3
EndChar

StartChar: uni0639
Encoding: 1593 1593 33
GlifName: uni0639
Width: 1350
VWidth: 2992
GlyphClass: 2
Flags: W
AnchorPoint: "Anchor-10" 743.478 1406.07 basechar 0
AnchorPoint: "Anchor-7" 536.833 -882.619 basechar 0
LayerCount: 2
Fore
SplineSet
642.15625 546.534179688 m 1,0,1
 819.872070312 574.546875 819.872070312 574.546875 981.204101562 574.546875 c 0,2,3
 1077.45410156 574.546875 1077.45410156 574.546875 1168.09960938 564.611328125 c 2,4,-1
 1208.57324219 560.174804688 l 1,5,-1
 1203.41992188 519.786132812 l 1,6,-1
 1181.06738281 344.625976562 l 1,7,-1
 1176.43359375 308.319335938 l 1,8,-1
 1139.859375 309.71875 l 2,9,10
 1110.03808594 310.859375 1110.03808594 310.859375 1081.26953125 311.473632812 c 128,-1,11
 1052.50195312 312.087890625 1052.50195312 312.087890625 1024.96875 312.172851562 c 0,12,13
 659.428710938 312.088867188 659.428710938 312.088867188 487.280273438 204.796875 c 128,-1,14
 315.130859375 97.5048828125 315.130859375 97.5048828125 315.240234375 -114.857421875 c 0,15,16
 315.1328125 -282.264648438 315.1328125 -282.264648438 432.788085938 -365.202148438 c 128,-1,17
 550.444335938 -448.138671875 550.444335938 -448.138671875 805.291992188 -448.266601562 c 0,18,19
 1033.95410156 -448.009765625 1033.95410156 -448.009765625 1226.13671875 -356.642578125 c 2,20,-1
 1272.39746094 -334.649414062 l 1,21,-1
 1282.52246094 -384.861328125 l 1,22,-1
 1318.58203125 -563.6875 l 1,23,-1
 1324.68652344 -593.962890625 l 1,24,-1
 1296.93945312 -607.529296875 l 2,25,26
 1189.99414062 -659.814453125 1189.99414062 -659.814453125 1063.92480469 -685.774414062 c 128,-1,27
 937.854492188 -711.733398438 937.854492188 -711.733398438 793.052734375 -711.733398438 c 0,28,29
 435.145507812 -711.733398438 435.145507812 -711.733398438 247.567382812 -563.071289062 c 128,-1,30
 59.98828125 -414.409179688 59.98828125 -414.409179688 59.9755859375 -122.309570312 c 0,31,32
 59.9873046875 75.505859375 59.9873046875 75.505859375 143.306640625 221.350585938 c 128,-1,33
 226.625976562 367.194335938 226.625976562 367.194335938 390.166015625 454.845703125 c 1,34,35
 338.462890625 523.194335938 338.462890625 523.194335938 312.153320312 593.28125 c 128,-1,36
 285.84375 663.369140625 285.84375 663.369140625 285.84375 735.0703125 c 0,37,38
 285.84375 750.471679688 285.84375 750.471679688 287.072265625 765.88671875 c 128,-1,39
 288.30078125 781.30078125 288.30078125 781.30078125 290.741210938 796.640625 c 128,-1,40
 293.180664062 811.979492188 293.180664062 811.979492188 296.833984375 827.32421875 c 128,-1,41
 300.487304688 842.669921875 300.487304688 842.669921875 305.323242188 857.934570312 c 128,-1,42
 310.16015625 873.200195312 310.16015625 873.200195312 316.1953125 888.463867188 c 0,43,44
 345.715820312 961.963867188 345.715820312 961.963867188 404.651367188 1024.26855469 c 0,45,46
 523.797851562 1150 523.797851562 1150 724 1150 c 0,47,48
 919.380859375 1150 919.380859375 1150 1108.2578125 1020.68652344 c 2,49,-1
 1135.484375 1002.04589844 l 1,50,-1
 1122.36132812 971.772460938 l 1,51,-1
 1055.01269531 816.399414062 l 1,52,-1
 1036.94433594 774.715820312 l 1,53,-1
 997.884765625 797.916992188 l 2,54,55
 858.348632812 880.802734375 858.348632812 880.802734375 733.943359375 880.802734375 c 0,56,57
 705.508789062 880.802734375 705.508789062 880.802734375 682.271484375 875.969726562 c 128,-1,58
 659.033203125 871.137695312 659.033203125 871.137695312 640.223632812 861.206054688 c 128,-1,59
 621.413085938 851.275390625 621.413085938 851.275390625 606.732421875 836.706054688 c 128,-1,60
 592.05078125 822.137695312 592.05078125 822.137695312 580.219726562 802.091796875 c 0,61,62
 576.030273438 795.1640625 576.030273438 795.1640625 572.606445312 788.366210938 c 128,-1,63
 569.181640625 781.568359375 569.181640625 781.568359375 566.522460938 774.892578125 c 128,-1,64
 563.86328125 768.216796875 563.86328125 768.216796875 561.911132812 761.639648438 c 128,-1,65
 559.959960938 755.063476562 559.959960938 755.063476562 558.696289062 748.46875 c 128,-1,66
 557.432617188 741.874023438 557.432617188 741.874023438 556.819335938 735.354492188 c 128,-1,67
 556.20703125 728.8359375 556.20703125 728.8359375 556.20703125 722.166015625 c 0,68,69
 556.20703125 685.927734375 556.20703125 685.927734375 575.3984375 646.973632812 c 0,70,71
 583.763671875 630.120117188 583.763671875 630.120117188 600.98828125 604.10546875 c 128,-1,72
 618.213867188 578.090820312 618.213867188 578.090820312 642.15625 546.534179688 c 1,0,1
EndSplineSet
Substitution2: "'fina' Terminal Forms in Arabic lookup 9 subtable" uniFECA
Substitution2: "'medi' Medial Forms in Arabic lookup 11 subtable" uniFECC
Substitution2: "'init' Initial Forms in Arabic lookup 13 subtable" uniFECB
EndChar

StartChar: afii57440
Encoding: 1600 1600 35
GlifName: afii57440
Width: 286
VWidth: 2992
GlyphClass: 2
Flags: W
AnchorPoint: "Anchor-10" 143.774 1416.11 basechar 0
AnchorPoint: "Anchor-7" 147.7 -194.739 basechar 0
LayerCount: 2
Fore
SplineSet
-6.9384765625 0 m 2,0,1
 -62 0 -62 0 -93.2529296875 35.75390625 c 0,2,3
 -124.778320312 71.7469050638 -124.778320312 71.7469050638 -124.778320312 128.313476562 c 2,4,-1
 -124.778320312 147.125976562 l 2,5,6
 -125 202 -125 202 -92.8916015625 235.260742188 c 0,7,8
 -61.0009230832 268.999023438 -61.0009230832 268.999023438 -6.9384765625 268.999023438 c 2,9,-1
 295.013671875 268.999023438 l 6,10,11
 354.771484375 268.99999628 354.771484375 268.99999628 354.771484375 147.174804688 c 2,12,-1
 354.771484375 128.30078125 l 2,13,14
 355 0 355 0 294.69140625 0 c 2,15,-1
 -6.9384765625 0 l 2,0,1
EndSplineSet
EndChar

StartChar: uni0643
Encoding: 1603 1603 38
GlifName: uni0643
Width: 2031
VWidth: 2992
GlyphClass: 2
Flags: W
AnchorPoint: "Anchor-7" 750.268 -196.468 basechar 0
AnchorPoint: "Anchor-10" 993.11 1606.05 basechar 0
LayerCount: 2
Fore
SplineSet
950.478515625 269.215820312 m 0,0,1
 1074 269 1074 269 1206.36816406 279.668945312 c 0,2,3
 1438 300 1438 300 1543.87890625 382.416015625 c 0,4,5
 1646.82910156 462.866451407 1646.82910156 462.866451407 1646.82910156 611.58984375 c 2,6,-1
 1646.82910156 1424.56640625 l 1,7,-1
 1646.82910156 1464.56640625 l 1,8,-1
 1686.82910156 1464.56640625 l 1,9,-1
 1869.70996094 1464.56640625 l 1,10,-1
 1909.70996094 1464.56640625 l 1,11,-1
 1909.70996094 1424.56640625 l 1,12,-1
 1909.70996094 614.360351562 l 2,13,14
 1910 473 1910 473 1864.46875 363.092773438 c 128,-1,15
 1819 253 1819 253 1728.07519531 177.345703125 c 0,16,17
 1515 0 1515 0 952.133789062 0 c 0,18,19
 448 0 448 0 252.124023438 143.46484375 c 0,20,21
 222 165 222 165 196.942382812 189.985351562 c 128,-1,22
 172 215 172 215 151.474609375 242.291015625 c 0,23,24
 131 270 131 270 115.864257812 300.140625 c 0,25,26
 101 330 101 330 90.1884765625 363.276367188 c 0,27,28
 80 396 80 396 74.59375 431.458007812 c 128,-1,29
 69 467 69 467 69.1611328125 504.426757812 c 0,30,31
 69 579 69 579 84.0888671875 650.604492188 c 0,32,33
 98.8641743169 721.349657484 98.8641743169 721.349657484 129.143554688 789.106445312 c 2,34,-1
 145.1484375 824.920898438 l 1,35,-1
 181.267578125 809.616210938 l 1,36,-1
 343.0390625 741.071289062 l 1,37,-1
 378.63671875 725.98828125 l 1,38,-1
 364.7734375 689.897460938 l 2,39,40
 332 605 332 605 332.452148438 517.225585938 c 0,41,42
 333 503 333 503 334.685546875 489.075195312 c 0,43,44
 337 476 337 476 340.787109375 462.608398438 c 0,45,46
 345 450 345 450 350.939453125 437.6640625 c 0,47,48
 357 426 357 426 365.333984375 414.203125 c 0,49,50
 374 403 374 403 384.151367188 392.059570312 c 0,51,52
 395 381 395 381 407.58203125 371.192382812 c 0,53,54
 420 361 420 361 435.809570312 351.443359375 c 0,55,56
 566 270 566 270 950.478515625 269.215820312 c 0,0,1
780.405273438 771.7890625 m 2,57,58
 872.150463167 761.998346003 872.150463167 761.998346003 938.805664062 761.265625 c 0,59,60
 1037 761 1037 761 1083.29492188 779.899414062 c 0,61,62
 1101 787 1101 787 1106.91992188 794.431640625 c 0,63,64
 1112 801 1112 801 1112.75 812.112304688 c 0,65,66
 1113 818 1113 818 1112.14160156 822.616210938 c 0,67,68
 1112 827 1112 827 1110.38085938 831.016601562 c 0,69,70
 1109 835 1109 835 1107.19628906 838.080078125 c 0,71,72
 1105 841 1105 841 1102.59179688 844.177734375 c 0,73,74
 1100 847 1100 847 1096.29492188 850.077148438 c 0,75,76
 1075 869 1075 869 1025.33789062 875.865234375 c 0,77,78
 907 894 907 894 842.764648438 958.846679688 c 0,79,80
 779 1024 779 1024 780.94140625 1129.41796875 c 0,81,82
 787.005863026 1372.23475162 787.005863026 1372.23475162 1210.671875 1403.44433594 c 2,83,-1
 1253.61035156 1406.60742188 l 1,84,-1
 1253.61035156 1363.55273438 l 1,85,-1
 1253.61035156 1234.98925781 l 1,86,-1
 1253.61035156 1198.51464844 l 1,87,-1
 1217.29101562 1195.15917969 l 2,88,89
 1165 1190 1165 1190 1124.39746094 1182.375 c 0,90,91
 1083 1174 1083 1174 1059.68359375 1166.04980469 c 0,92,93
 1036 1158 1036 1158 1020.49316406 1148.52734375 c 128,-1,94
 1005 1139 1005 1139 999.530273438 1132.54296875 c 128,-1,95
 994 1126 994 1126 994.139648438 1120.43847656 c 0,96,97
 994 1080 994 1080 1098.98535156 1064.29394531 c 0,98,99
 1207 1048 1207 1048 1266.56152344 983.454101562 c 128,-1,100
 1326 919 1326 919 1325.36425781 816.004882812 c 0,101,102
 1325 746 1325 746 1289.15820312 689.409179688 c 0,103,104
 1253 633 1253 633 1185.91210938 595.321289062 c 0,105,106
 1142 571 1142 571 1085.1484375 559.967773438 c 0,107,108
 1028 549 1028 549 955.834960938 549.088867188 c 0,109,110
 914 549 914 549 868.064453125 553.196289062 c 0,111,112
 823.378286338 556.886189839 823.378286338 556.886189839 770.263671875 564.802734375 c 2,113,-1
 736.16015625 569.885742188 l 1,114,-1
 736.16015625 604.366210938 l 1,115,-1
 736.16015625 732.014648438 l 1,116,-1
 736.16015625 776.510742188 l 1,117,-1
 780.405273438 771.7890625 l 2,57,58
EndSplineSet
Substitution2: "'fina' Terminal Forms in Arabic lookup 9 subtable" uniFEDA
Substitution2: "'medi' Medial Forms in Arabic lookup 11 subtable" uniFEDC
Substitution2: "'init' Initial Forms in Arabic lookup 13 subtable" uniFEDB
EndChar

StartChar: uni0644
Encoding: 1604 1604 39
GlifName: uni0644
Width: 1441
VWidth: 2992
GlyphClass: 2
Flags: W
AnchorPoint: "Anchor-7" 595.902 -760.086 basechar 0
AnchorPoint: "Anchor-10" 593.908 1221.66 basechar 0
LayerCount: 2
Fore
SplineSet
1066.60449219 139.900390625 m 2,0,-1
 1069.91699219 1428.08984375 l 1,1,-1
 1070.01367188 1467.99316406 l 1,2,-1
 1109.91699219 1467.99316406 l 1,3,-1
 1287.88574219 1467.99316406 l 1,4,-1
 1327.91015625 1467.99316406 l 1,5,-1
 1327.88574219 1427.96875 l 1,6,-1
 1327.18554688 339.268554688 l 2,7,8
 1327 270 1327 270 1324.73828125 200.043945312 c 0,9,10
 1322 132 1322 132 1317.75390625 65.5927734375 c 0,11,12
 1296 -226 1296 -226 1134.0625 -376.15234375 c 0,13,14
 972 -527 972 -527 681.419921875 -526.734375 c 0,15,16
 378 -527 378 -527 220.48046875 -371.984375 c 128,-1,17
 63 -217 63 -217 62.740234375 80.7314453125 c 0,18,19
 63 133 63 133 68.1318359375 185.423828125 c 0,20,21
 74 238 74 238 84.302734375 289.58203125 c 0,22,23
 107.324446436 398.535487916 107.324446436 398.535487916 149.284179688 501.560546875 c 2,24,-1
 164.303710938 538.438476562 l 1,25,-1
 201.25 523.5859375 l 1,26,-1
 363.774414062 458.24609375 l 1,27,-1
 400.524414062 443.471679688 l 1,28,-1
 386.111328125 406.578125 l 2,29,30
 322 243 322 243 322.24609375 78.1865234375 c 0,31,32
 322 -10 322 -10 343.365234375 -73.9677734375 c 0,33,34
 364 -138 364 -138 408.6953125 -180.190429688 c 0,35,36
 453 -223 453 -223 520.5234375 -242.873046875 c 0,37,38
 588 -263 588 -263 681.78515625 -263.2265625 c 0,39,40
 879 -263 879 -263 972.536132812 -165.657226562 c 0,41,42
 1066 -68 1066 -68 1066.60449219 139.900390625 c 2,0,-1
EndSplineSet
Substitution2: "'fina' Terminal Forms in Arabic lookup 9 subtable" uniFEDE
Substitution2: "'medi' Medial Forms in Arabic lookup 11 subtable" uniFEE0
Substitution2: "'init' Initial Forms in Arabic lookup 13 subtable" uniFEDF
EndChar

StartChar: uni0645
Encoding: 1605 1605 40
GlifName: uni0645
Width: 1242
VWidth: 2662
GlyphClass: 2
Flags: W
AnchorPoint: "Anchor-7" 724.983 -306.909 basechar 0
AnchorPoint: "Anchor-10" 697.239 1414.48 basechar 0
LayerCount: 2
Fore
SplineSet
852.15625 242 m 0,0,1
 899.771484375 241.627929688 899.771484375 241.627929688 919.119140625 264.540039062 c 128,-1,2
 938.467773438 287.453125 938.467773438 287.453125 937.365234375 349.881835938 c 0,3,4
 936.193359375 400.248046875 936.193359375 400.248046875 916.83203125 444.848632812 c 0,5,6
 910.256835938 459.821289062 910.256835938 459.821289062 902.732421875 471.821289062 c 128,-1,7
 895.20703125 483.821289062 895.20703125 483.821289062 886.3359375 493.288085938 c 128,-1,8
 877.463867188 502.755859375 877.463867188 502.755859375 867.36328125 509.58203125 c 128,-1,9
 857.26171875 516.408203125 857.26171875 516.408203125 845.405273438 520.92578125 c 128,-1,10
 833.547851562 525.443359375 833.547851562 525.443359375 820.19140625 527.657226562 c 128,-1,11
 806.834960938 529.87109375 806.834960938 529.87109375 791.321289062 530.0078125 c 0,12,13
 695.469726562 531.458984375 695.469726562 531.458984375 628.706054688 364.719726562 c 1,14,15
 702.759765625 302.5703125 702.759765625 302.5703125 760.099609375 272.28515625 c 128,-1,16
 817.439453125 242 817.439453125 242 852.15625 242 c 0,0,1
1187.39257812 341.036132812 m 0,17,18
 1187.08984375 96.5322265625 1187.08984375 96.5322265625 1027.10546875 13.763671875 c 0,19,20
 959.700195312 -20.5380859375 959.700195312 -20.5380859375 869.418945312 -23.0302734375 c 0,21,22
 743.147460938 -26.2939453125 743.147460938 -26.2939453125 585.888671875 70.5576171875 c 0,23,24
 539.41015625 99.08984375 539.41015625 99.08984375 485.970703125 126.380859375 c 0,25,26
 461.90234375 138.715820312 461.90234375 138.715820312 429.19140625 137.75390625 c 0,27,28
 413.797851562 137.57421875 413.797851562 137.57421875 399.01171875 123.225585938 c 128,-1,29
 384.224609375 108.877929688 384.224609375 108.877929688 369.559570312 74.162109375 c 128,-1,30
 354.895507812 39.4453125 354.895507812 39.4453125 343.971679688 -12.1953125 c 128,-1,31
 333.046875 -63.8359375 333.046875 -63.8359375 326.32421875 -145.313476562 c 128,-1,32
 319.600585938 -226.791015625 319.600585938 -226.791015625 319.750976562 -327.94921875 c 0,33,34
 319.875 -425.163085938 319.875 -425.163085938 323.357421875 -513.544921875 c 128,-1,35
 326.840820312 -601.927734375 326.840820312 -601.927734375 333.666992188 -681.390625 c 2,36,-1
 337.396484375 -724.813476562 l 1,37,-1
 293.813476562 -724.813476562 l 1,38,-1
 110.231445312 -724.813476562 l 1,39,-1
 72.7255859375 -724.813476562 l 1,40,-1
 70.314453125 -687.385742188 l 2,41,42
 57.9921875 -496.163085938 57.9921875 -496.163085938 59.0625 -323.71875 c 0,43,44
 62.0751953125 58.703125 62.0751953125 58.703125 142.338867188 217.119140625 c 0,45,46
 224.772460938 378.89453125 224.772460938 378.89453125 363.731445312 411.80078125 c 1,47,48
 523.752929688 797.88671875 523.752929688 797.88671875 788.7265625 799.381835938 c 0,49,50
 971.080078125 800.072265625 971.080078125 800.072265625 1080.64648438 664.09765625 c 0,51,52
 1186.96875 532.149414062 1186.96875 532.149414062 1187.39257812 341.036132812 c 0,17,18
EndSplineSet
Substitution2: "'init' Initial Forms in Arabic lookup 13 subtable" uniFEE3
Substitution2: "'medi' Medial Forms in Arabic lookup 11 subtable" uniFEE4
Substitution2: "'fina' Terminal Forms in Arabic lookup 9 subtable" uniFEE2
EndChar

StartChar: uni0647
Encoding: 1607 1607 42
GlifName: uni0647
Width: 942
VWidth: 2992
GlyphClass: 2
Flags: W
AnchorPoint: "Anchor-10" 430.775 1419.01 basechar 0
AnchorPoint: "Anchor-7" 450.63 -200.576 basechar 0
LayerCount: 2
Fore
SplineSet
463.168945312 631.5234375 m 1,0,1
 311.884765625 491.145507812 311.884765625 491.145507812 311.884765625 390.989257812 c 0,2,3
 311.884765625 327.313476562 311.884765625 327.313476562 348.463867188 298.155273438 c 128,-1,4
 385.04296875 268.99609375 385.04296875 268.99609375 475.34375 268.9921875 c 0,5,6
 512.711914062 268.993164062 512.711914062 268.993164062 540.513671875 273.931640625 c 128,-1,7
 568.315429688 278.870117188 568.315429688 278.870117188 587.439453125 288.40234375 c 128,-1,8
 606.564453125 297.935546875 606.564453125 297.935546875 618.318359375 313.091796875 c 128,-1,9
 630.072265625 328.248046875 630.072265625 328.248046875 635.248046875 347.444335938 c 128,-1,10
 640.423828125 366.640625 640.423828125 366.640625 640.423828125 392.147460938 c 0,11,12
 640.423828125 418.677734375 640.423828125 418.677734375 622.774414062 453.423828125 c 128,-1,13
 605.124023438 488.168945312 605.124023438 488.168945312 564.349609375 534.669921875 c 128,-1,14
 523.57421875 581.169921875 523.57421875 581.169921875 463.168945312 631.5234375 c 1,0,1
396.034179688 1043.15234375 m 2,15,16
 641.438476562 864.775390625 641.438476562 864.775390625 766.172851562 702.048828125 c 128,-1,17
 890.907226562 539.322265625 890.907226562 539.322265625 890.791992188 386.384765625 c 0,18,19
 891.026367188 175.22265625 891.026367188 175.22265625 707.4609375 60.5810546875 c 0,20,21
 618.577148438 5.0703125 618.577148438 5.0703125 476.206054688 4.1943359375 c 0,22,23
 345.583007812 3.984375 345.583007812 3.984375 251.565429688 51.0205078125 c 0,24,25
 157.260742188 98.1591796875 157.260742188 98.1591796875 109.21484375 183.623046875 c 128,-1,26
 61.16796875 269.087890625 61.16796875 269.087890625 61.3681640625 385.787109375 c 0,27,28
 60.9951171875 594.495117188 60.9951171875 594.495117188 278.879882812 819.970703125 c 1,29,-1
 247.0703125 846.790039062 l 1,30,-1
 218.240234375 871.096679688 l 1,31,-1
 240.806640625 901.30859375 l 1,32,-1
 340.46875 1034.734375 l 1,33,-1
 364.096679688 1066.3671875 l 1,34,-1
 396.034179688 1043.15234375 l 2,15,16
EndSplineSet
Substitution2: "'fina' Terminal Forms in Arabic lookup 9 subtable" uniFEEA
Substitution2: "'medi' Medial Forms in Arabic lookup 11 subtable" uniFEEC
Substitution2: "'init' Initial Forms in Arabic lookup 13 subtable" uniFEEB
EndChar

StartChar: uni0648
Encoding: 1608 1608 43
GlifName: uni0648
Width: 910
VWidth: 2184
GlyphClass: 2
Flags: W
AnchorPoint: "Anchor-7" 364.969 -729.998 basechar 0
AnchorPoint: "Anchor-10" 459.256 1410.2 basechar 0
LayerCount: 2
Fore
SplineSet
588.149414062 275.240234375 m 1,0,1
 579.0625 370.458984375 579.0625 370.458984375 556.846679688 429.721679688 c 128,-1,2
 534.630859375 488.983398438 534.630859375 488.983398438 505.568359375 512.040039062 c 128,-1,3
 476.504882812 535.095703125 476.504882812 535.095703125 437.4140625 535.124023438 c 0,4,5
 424.1796875 535.108398438 424.1796875 535.108398438 412.900390625 533.01171875 c 128,-1,6
 401.62109375 530.9140625 401.62109375 530.9140625 391.2734375 526.354492188 c 128,-1,7
 380.92578125 521.794921875 380.92578125 521.794921875 372.129882812 514.51953125 c 128,-1,8
 363.334960938 507.244140625 363.334960938 507.244140625 355.47265625 496.939453125 c 128,-1,9
 347.609375 486.635742188 347.609375 486.635742188 340.87109375 472.9765625 c 128,-1,10
 334.131835938 459.318359375 334.131835938 459.318359375 328.299804688 442.059570312 c 0,11,12
 312.021484375 394.418945312 312.021484375 394.418945312 312.159179688 352.604492188 c 0,13,14
 312.103515625 305.586914062 312.103515625 305.586914062 346.133789062 282.66796875 c 128,-1,15
 380.1640625 259.75 380.1640625 259.75 468.647460938 260.362304688 c 0,16,17
 529.3984375 260.828125 529.3984375 260.828125 588.149414062 275.240234375 c 1,0,1
468.258789062 -2.1884765625 m 0,18,19
 273.791015625 -2.087890625 273.791015625 -2.087890625 168.396484375 84.6171875 c 128,-1,20
 63.001953125 171.323242188 63.001953125 171.323242188 63.0048828125 338.3515625 c 0,21,22
 63 468.0390625 63 468.0390625 118.57421875 584.715820312 c 0,23,24
 152.744140625 655.903320312 152.744140625 655.903320312 201.396484375 704.74609375 c 128,-1,25
 250.048828125 753.587890625 250.048828125 753.587890625 312.545898438 778.818359375 c 128,-1,26
 375.043945312 804.048828125 375.043945312 804.048828125 449.120117188 804.077148438 c 0,27,28
 506.85546875 804.055664062 506.85546875 804.055664062 557.188476562 787.196289062 c 128,-1,29
 607.521484375 770.337890625 607.521484375 770.337890625 648.734375 737.764648438 c 128,-1,30
 689.947265625 705.192382812 689.947265625 705.192382812 722.508789062 657.860351562 c 128,-1,31
 755.0703125 610.528320312 755.0703125 610.528320312 778.369140625 549.1796875 c 0,32,33
 848.045898438 366.240234375 848.045898438 366.240234375 846.83203125 169.899414062 c 0,34,35
 844.815429688 -135.333007812 844.815429688 -135.333007812 659.619140625 -314.314453125 c 128,-1,36
 474.421875 -493.294921875 474.421875 -493.294921875 118.49609375 -539.825195312 c 2,37,-1
 83.150390625 -544.446289062 l 1,38,-1
 74.5048828125 -509.864257812 l 1,39,-1
 31.9296875 -339.563476562 l 1,40,-1
 21.1474609375 -296.43359375 l 1,41,-1
 65.1728515625 -290.250976562 l 2,42,43
 475.586914062 -232.619140625 475.586914062 -232.619140625 573.252929688 5.9873046875 c 1,44,45
 535.592773438 1.8037109375 535.592773438 1.8037109375 510.767578125 -0.1533203125 c 128,-1,46
 485.943359375 -2.1103515625 485.943359375 -2.1103515625 468.258789062 -2.1884765625 c 0,18,19
EndSplineSet
Substitution2: "'fina' Terminal Forms in Arabic lookup 9 subtable" uniFEEE
EndChar

StartChar: uni0649
Encoding: 1609 1609 44
GlifName: uni0649
Width: 1544
VWidth: 2992
GlyphClass: 2
Flags: MW
AnchorPoint: "Anchor-10" 717.6 1408.22 basechar 0
AnchorPoint: "Anchor-7" 595.902 -760.086 basechar 0
LayerCount: 2
Fore
SplineSet
1158.42773438 -123.263671875 m 0,0,1
 1168.72167969 -115.811523438 1168.72167969 -115.811523438 1177.77832031 -108.291015625 c 128,-1,2
 1186.8359375 -100.771484375 1186.8359375 -100.771484375 1194.64355469 -93.201171875 c 128,-1,3
 1202.45214844 -85.6318359375 1202.45214844 -85.6318359375 1209.09375 -78.0322265625 c 128,-1,4
 1215.73632812 -70.4326171875 1215.73632812 -70.4326171875 1221.44433594 -62.5712890625 c 0,5,6
 1241.90722656 -34.9306640625 1241.90722656 -34.9306640625 1241.80761719 -20.7255859375 c 0,7,8
 1241.81835938 -17.1103515625 1241.81835938 -17.1103515625 1241.20019531 -14.583984375 c 128,-1,9
 1240.58203125 -12.0576171875 1240.58203125 -12.0576171875 1236.36035156 -7.7314453125 c 128,-1,10
 1232.13867188 -3.40625 1232.13867188 -3.40625 1224.46386719 -0.6318359375 c 128,-1,11
 1216.7890625 2.1416015625 1216.7890625 2.1416015625 1200.97070312 4.4384765625 c 128,-1,12
 1185.15136719 6.736328125 1185.15136719 6.736328125 1163.05566406 7.017578125 c 2,13,-1
 1109.89941406 7.6962890625 l 2,14,15
 996.849609375 8.9912109375 996.849609375 8.9912109375 932.977539062 65.6787109375 c 128,-1,16
 869.106445312 122.3671875 869.106445312 122.3671875 869.258789062 226.272460938 c 0,17,18
 868.978515625 412.998046875 868.978515625 412.998046875 1001.13574219 578.291992188 c 0,19,20
 1170.453125 788.498046875 1170.453125 788.498046875 1437.32128906 795.536132812 c 2,21,-1
 1478.44042969 796.620117188 l 1,22,-1
 1478.37597656 755.487304688 l 1,23,-1
 1478.07421875 562.678710938 l 1,24,-1
 1478.015625 525.435546875 l 1,25,-1
 1440.86328125 522.838867188 l 2,26,27
 1325.94824219 514.807617188 1325.94824219 514.807617188 1255.28613281 469.674804688 c 0,28,29
 1153.59960938 405.802734375 1153.59960938 405.802734375 1130.80566406 274.288085938 c 1,30,-1
 1160.87207031 274.413085938 l 2,31,32
 1322.44628906 275.270507812 1322.44628906 275.270507812 1410.86425781 200.5390625 c 128,-1,33
 1499.28222656 125.807617188 1499.28222656 125.807617188 1498.34960938 -17.1904296875 c 0,34,35
 1498.140625 -57.6748046875 1498.140625 -57.6748046875 1483.99609375 -100.551757812 c 128,-1,36
 1469.8515625 -143.428710938 1469.8515625 -143.428710938 1442.63769531 -189.310546875 c 0,37,38
 1357.11132812 -332.975585938 1357.11132812 -332.975585938 1157.06542969 -427.176757812 c 0,39,40
 1061.99902344 -472.098632812 1061.99902344 -472.098632812 957.068359375 -494.599609375 c 128,-1,41
 852.137695312 -517.100585938 852.137695312 -517.100585938 737.999023438 -517.208984375 c 0,42,43
 408.442382812 -517.100585938 408.442382812 -517.100585938 235.665039062 -371.552734375 c 128,-1,44
 62.888671875 -226.004882812 62.888671875 -226.004882812 62.76171875 58.0224609375 c 0,45,46
 63.0087890625 285.490234375 63.0087890625 285.490234375 185.11328125 560.911132812 c 2,47,-1
 200.766601562 596.21875 l 1,48,-1
 236.6015625 581.8125 l 1,49,-1
 399.125 516.47265625 l 1,50,-1
 436.130859375 501.594726562 l 1,51,-1
 421.360351562 464.545898438 l 2,52,53
 322.012695312 215.352539062 322.012695312 215.352539062 322.268554688 61.2509765625 c 0,54,55
 322.147460938 -97.86328125 322.147460938 -97.86328125 420.719726562 -175.352539062 c 128,-1,56
 519.29296875 -252.842773438 519.29296875 -252.842773438 734.029296875 -253.60546875 c 0,57,58
 979.788085938 -254.528320312 979.788085938 -254.528320312 1158.42773438 -123.263671875 c 0,0,1
EndSplineSet
Substitution2: "'fina' Terminal Forms in Arabic lookup 9 subtable" uniFEF0
Substitution2: "'medi' Medial Forms in Arabic lookup 11 subtable" uniFBE9
Substitution2: "'init' Initial Forms in Arabic lookup 13 subtable" uniFBE8
EndChar

StartChar: uni064B
Encoding: 1611 1611 46
GlifName: uni064B_
Width: -26
VWidth: 2316
GlyphClass: 4
Flags: W
AnchorPoint: "Anchor-10" 593.551 1113.65 mark 0
AnchorPoint: "Anchor-9" 593.551 1113.65 mark 0
AnchorPoint: "Anchor-1" 553.285 1666.25 basemark 0
AnchorPoint: "Anchor-1" 593.551 1113.65 mark 0
LayerCount: 2
Fore
SplineSet
306.700195312 1076.40039062 m 1,0,-1
 306.700195312 1179.97753906 l 1,1,-1
 306.700195312 1193.40453724 l 1,2,-1
 319.127502848 1198.48846364 l 1,3,-1
 774.526916911 1384.78924489 l 1,4,-1
 802.099609375 1396.06904453 l 1,5,-1
 802.099609375 1366.27832031 l 1,6,-1
 802.099609375 1262.70019531 l 1,7,-1
 802.099609375 1249.27317048 l 1,8,-1
 789.672267835 1244.18925682 l 1,9,-1
 334.272853772 1057.88945213 l 1,10,-1
 306.700195312 1046.60972552 l 1,11,-1
 306.700195312 1076.40039062 l 1,0,-1
306.700195312 1328.40039062 m 1,12,-1
 306.700195312 1431.97753906 l 1,13,-1
 306.700195312 1445.40453724 l 1,14,-1
 319.127502848 1450.48846364 l 1,15,-1
 774.526916911 1636.78924489 l 1,16,-1
 802.099609375 1648.06904453 l 1,17,-1
 802.099609375 1618.27832031 l 1,18,-1
 802.099609375 1514.70019531 l 1,19,-1
 802.099609375 1501.27317048 l 1,20,-1
 789.672267835 1496.18925682 l 1,21,-1
 334.272853772 1309.88945213 l 1,22,-1
 306.700195312 1298.60972552 l 1,23,-1
 306.700195312 1328.40039062 l 1,12,-1
EndSplineSet
EndChar

StartChar: uni064C
Encoding: 1612 1612 47
GlifName: uni064C_
Width: -26
VWidth: 2316
GlyphClass: 4
Flags: W
AnchorPoint: "Anchor-10" 680.906 1218.67 mark 0
AnchorPoint: "Anchor-9" 680.906 1218.67 mark 0
AnchorPoint: "Anchor-1" 571.739 1915.46 basemark 0
AnchorPoint: "Anchor-1" 680.906 1218.67 mark 0
LayerCount: 2
Fore
SplineSet
602.965781921 1704.27878472 m 0,0,1
 587.92984442 1686.57151425 587.92984442 1686.57151425 587.714338414 1664.04635577 c 0,2,3
 587.927660765 1620.73609404 587.927660765 1620.73609404 641.333477362 1598.28248926 c 0,4,5
 659.941231424 1590.45916247 659.941231424 1590.45916247 697.963688251 1578.71152612 c 1,6,7
 715.0005202 1613.7360769 715.0005202 1613.7360769 715.001953129 1648.81991463 c 0,8,9
 715.001093866 1692.01336155 715.001093866 1692.01336155 700.678054019 1709.29349794 c 128,-1,10
 686.355014173 1726.57363433 686.355014173 1726.57363433 654.456781803 1726.29455327 c 0,11,12
 642.796151118 1726.21352245 642.796151118 1726.21352245 633.337128291 1723.68845481 c 128,-1,13
 623.878105465 1721.16338717 623.878105465 1721.16338717 616.512282258 1716.38371403 c 128,-1,14
 609.146459051 1711.60404089 609.146459051 1711.60404089 602.965781921 1704.27878472 c 0,0,1
338.79245354 1514.85068495 m 2,15,16
 339.820953164 1459.44429924 339.820953164 1459.44429924 347.950894291 1419.48424319 c 128,-1,17
 356.080835418 1379.52418714 356.080835418 1379.52418714 370.971809466 1355.40920199 c 128,-1,18
 385.862783513 1331.29421683 385.862783513 1331.29421683 405.922283632 1320.15455936 c 128,-1,19
 425.98178375 1309.0149019 425.98178375 1309.0149019 452.334326608 1309.27436257 c 0,20,21
 515.817606486 1309.91806142 515.817606486 1309.91806142 586.525952018 1378.40343036 c 0,22,23
 621.747281156 1413.15396672 621.747281156 1413.15396672 654.544288453 1472.12269185 c 1,24,-1
 650.859450759 1472.90468156 l 2,25,26
 597.901450887 1484.30573904 597.901450887 1484.30573904 560.791889454 1503.18113105 c 128,-1,27
 523.68232802 1522.05652305 523.68232802 1522.05652305 502.365248477 1549.97023345 c 0,28,29
 466 1598.3179852 466 1598.3179852 466 1655.09960938 c 0,30,31
 466 1661.90684396 466 1661.90684396 466.282773603 1668.42842026 c 128,-1,32
 466.565547207 1674.94999656 466.565547207 1674.94999656 467.13888085 1681.29165826 c 128,-1,33
 467.712214494 1687.63331996 467.712214494 1687.63331996 468.588431398 1693.71018208 c 128,-1,34
 469.464648302 1699.78704419 469.464648302 1699.78704419 470.642814211 1705.65430923 c 128,-1,35
 471.82098012 1711.52157427 471.82098012 1711.52157427 473.322720326 1717.14826783 c 128,-1,36
 474.824460532 1722.77496138 474.824460532 1722.77496138 476.639538709 1728.16237538 c 128,-1,37
 478.454616886 1733.54978938 478.454616886 1733.54978938 480.613960396 1738.72085999 c 128,-1,38
 482.773303905 1743.89193061 482.773303905 1743.89193061 485.257955731 1748.7974086 c 0,39,40
 509.695228609 1796.24705791 509.695228609 1796.24705791 551.684718297 1820.71726626 c 128,-1,41
 593.674207986 1845.18747461 593.674207986 1845.18747461 650.053096802 1845.41373512 c 0,42,43
 689.259716827 1845.73357593 689.259716827 1845.73357593 721.893387696 1834.06069263 c 128,-1,44
 754.527058566 1822.38780932 754.527058566 1822.38780932 779.101990916 1798.6502294 c 0,45,46
 832.962252401 1746.5117448 832.962252401 1746.5117448 833.38995226 1650.5743895 c 0,47,48
 833.664309731 1632.39468967 833.664309731 1632.39468967 829.799169473 1609.54252733 c 128,-1,49
 825.934029216 1586.690365 825.934029216 1586.690365 818.312446777 1559.75129358 c 1,50,-1
 822.920964441 1559.50932894 l 2,51,52
 851.686017165 1557.99162335 851.686017165 1557.99162335 880.822800982 1557.51687856 c 2,53,-1
 900.497070312 1557.19641041 l 1,54,-1
 900.497070312 1537.51953125 l 1,55,-1
 900.497070312 1459.00878906 l 1,56,-1
 900.497070312 1438.51327686 l 1,57,-1
 880.007694581 1439.01477717 l 2,58,59
 869.625064373 1439.26890362 869.625064373 1439.26890362 861.657862562 1439.50543828 c 128,-1,60
 853.690660752 1439.74197295 853.690660752 1439.74197295 847.124013491 1439.99675751 c 128,-1,61
 840.55736623 1440.25154208 840.55736623 1440.25154208 835.842348363 1440.52361057 c 128,-1,62
 831.127330497 1440.79567905 831.127330497 1440.79567905 827.976376867 1441.09865536 c 2,63,-1
 766.377654787 1447.0216094 l 1,64,65
 742.314519573 1392.81322489 742.314519573 1392.81322489 709.308021698 1348.03096518 c 128,-1,66
 676.301523823 1303.24870547 676.301523823 1303.24870547 633.160872962 1266.039942 c 0,67,68
 612.138356828 1247.61907766 612.138356828 1247.61907766 590.399009911 1233.64577448 c 128,-1,69
 568.659662993 1219.67247131 568.659662993 1219.67247131 546.193268625 1210.15942076 c 128,-1,70
 523.726874257 1200.6463702 523.726874257 1200.6463702 500.514818779 1195.81006201 c 128,-1,71
 477.302763301 1190.97375382 477.302763301 1190.97375382 453.73578323 1190.96388892 c 0,72,73
 350.336791628 1190.42714256 350.336791628 1190.42714256 297.99335455 1273.86353242 c 128,-1,74
 245.649917472 1357.29992228 245.649917472 1357.29992228 243.150000386 1514.16078942 c 2,75,-1
 242.826177923 1534.47949219 l 1,76,-1
 263.147460938 1534.47949219 l 1,77,-1
 318.795898438 1534.47949219 l 1,78,-1
 338.428087219 1534.47949219 l 1,79,-1
 338.79245354 1514.85068495 l 2,15,16
EndSplineSet
EndChar

StartChar: uni064D
Encoding: 1613 1613 48
GlifName: uni064D_
Width: -26
VWidth: 2316
GlyphClass: 4
Flags: W
AnchorPoint: "Anchor-7" 546.278 61.7109 mark 0
AnchorPoint: "Anchor-6" 546.278 61.7109 mark 0
AnchorPoint: "Anchor-0" 592.022 -447.025 basemark 0
AnchorPoint: "Anchor-0" 546.278 61.7109 mark 0
LayerCount: 2
Fore
SplineSet
312.099609375 -486 m 1,0,-1
 312.099609375 -382.422851562 l 1,1,-1
 312.099609375 -368.995842477 l 1,2,-1
 324.526930822 -363.91192129 l 1,3,-1
 779.927321447 -177.61114004 l 1,4,-1
 807.5 -166.331370278 l 1,5,-1
 807.5 -196.122070312 l 1,6,-1
 807.5 -299.700195312 l 1,7,-1
 807.5 -313.127231046 l 1,8,-1
 795.072644549 -318.211139495 l 1,9,-1
 339.672253924 -504.510944183 l 1,10,-1
 312.099609375 -515.790640907 l 1,11,-1
 312.099609375 -486 l 1,0,-1
312.099609375 -234 m 1,12,-1
 312.099609375 -130.422851562 l 1,13,-1
 312.099609375 -116.995842477 l 1,14,-1
 324.526930822 -111.91192129 l 1,15,-1
 779.927321447 74.3888599593 l 1,16,-1
 807.5 85.668629721 l 1,17,-1
 807.5 55.8779296875 l 1,18,-1
 807.5 -47.7001953125 l 1,19,-1
 807.5 -61.1272310468 l 1,20,-1
 795.072644549 -66.2111394951 l 1,21,-1
 339.672253924 -252.510944183 l 1,22,-1
 312.099609375 -263.790640907 l 1,23,-1
 312.099609375 -234 l 1,12,-1
EndSplineSet
EndChar

StartChar: uni064E
Encoding: 1614 1614 49
GlifName: uni064E_
Width: -26
VWidth: 2316
GlyphClass: 4
Flags: W
AnchorPoint: "Anchor-10" 581.66 1364.63 mark 0
AnchorPoint: "Anchor-9" 581.66 1364.63 mark 0
AnchorPoint: "Anchor-1" 541.396 1691.77 basemark 0
AnchorPoint: "Anchor-1" 581.66 1364.63 mark 0
LayerCount: 2
Fore
SplineSet
276.099609375 1349.09960938 m 1,0,-1
 276.099609375 1452.67773438 l 1,1,-1
 276.099609375 1466.10474347 l 1,2,-1
 288.526930822 1471.18866465 l 1,3,-1
 743.927321447 1657.48944589 l 1,4,-1
 771.5 1668.76921565 l 1,5,-1
 771.5 1638.97851562 l 1,6,-1
 771.5 1535.40039062 l 1,7,-1
 771.5 1521.97338153 l 1,8,-1
 759.072678553 1516.88946035 l 1,9,-1
 303.672287928 1330.58867911 l 1,10,-1
 276.099609375 1319.30890935 l 1,11,-1
 276.099609375 1349.09960938 l 1,0,-1
EndSplineSet
EndChar

StartChar: uni064F
Encoding: 1615 1615 50
GlifName: uni064F_
Width: -26
VWidth: 2316
GlyphClass: 4
Flags: W
AnchorPoint: "Anchor-10" 611.295 1299.37 mark 0
AnchorPoint: "Anchor-9" 611.295 1299.37 mark 0
AnchorPoint: "Anchor-1" 580.134 1920.4 basemark 0
AnchorPoint: "Anchor-1" 611.295 1299.37 mark 0
LayerCount: 2
Fore
SplineSet
822.652987786 1454.00195313 m 2,0,1
 791.932771719 1454.00195313 791.932771719 1454.00195313 766.715299324 1455.2788364 c 128,-1,2
 741.497826929 1456.55571968 741.497826929 1456.55571968 721.420460817 1459.16704819 c 2,3,-1
 701.883500246 1461.70808977 l 1,4,5
 563.377644063 1275.29133072 563.377644063 1275.29133072 319.606008547 1262.69850749 c 2,6,-1
 298.57421875 1261.61204142 l 1,7,-1
 298.57421875 1282.671875 l 1,8,-1
 298.57421875 1360.92578125 l 1,9,-1
 298.57421875 1380.09144749 l 1,10,-1
 317.722497956 1380.90763731 l 2,11,12
 480.661723503 1387.85287434 480.661723503 1387.85287434 571.602853299 1495.74689008 c 1,13,14
 554.644064906 1501.1877747 554.644064906 1501.1877747 539.207899332 1507.93203567 c 128,-1,15
 523.771733758 1514.67629663 523.771733758 1514.67629663 506.835829759 1523.94881352 c 0,16,17
 409.965750351 1578.30861702 409.965750351 1578.30861702 410.250340051 1675.6983251 c 0,18,19
 410.661777251 1711.05299518 410.661777251 1711.05299518 420.760679611 1741.18641722 c 128,-1,20
 430.85958197 1771.31983926 430.85958197 1771.31983926 450.780575366 1795.54779067 c 0,21,22
 502.611332206 1858.00463179 502.611332206 1858.00463179 592.957581869 1857.95995664 c 0,23,24
 626.60996975 1857.98203472 626.60996975 1857.98203472 656.440897967 1847.83745205 c 128,-1,25
 686.271826184 1837.69286938 686.271826184 1837.69286938 711.254416801 1817.57758412 c 0,26,27
 729.451951344 1802.92445202 729.451951344 1802.92445202 742.794584726 1784.53557368 c 128,-1,28
 756.137218108 1766.14669533 756.137218108 1766.14669533 764.485652544 1744.16906693 c 0,29,30
 776.047704879 1712.39460598 776.047704879 1712.39460598 775.544635239 1675.17178007 c 0,31,32
 775.081666705 1625.64325733 775.081666705 1625.64325733 757.77021999 1573.87050799 c 1,33,34
 792.624940257 1571.15263048 792.624940257 1571.15263048 821.890853359 1572.26772461 c 2,35,-1
 842.65234375 1573.05878198 l 1,36,-1
 842.65234375 1552.28222656 l 1,37,-1
 842.65234375 1474.00195312 l 1,38,-1
 842.65234375 1454.00259715 l 1,39,-1
 822.652987786 1454.00195313 l 2,0,1
638.5669323 1593.84846785 m 1,40,41
 657.018922857 1637.0277168 657.018922857 1637.0277168 657.158057799 1673.71639858 c 0,42,43
 657.036288168 1705.49225893 657.036288168 1705.49225893 639.224804535 1720.0641485 c 0,44,45
 619.436634505 1737.11622215 619.436634505 1737.11622215 596.666954964 1737.47352414 c 0,46,47
 578.387720086 1737.68841041 578.387720086 1737.68841041 565.544044708 1731.8612058 c 128,-1,48
 552.70036933 1726.03400119 552.70036933 1726.03400119 543.381297449 1713.87370374 c 0,49,50
 530.317734175 1696.19539271 530.317734175 1696.19539271 529.868681553 1671.87078293 c 0,51,52
 529.913818613 1655.76989198 529.913818613 1655.76989198 542.464709973 1641.04689516 c 128,-1,53
 555.015601333 1626.32389835 555.015601333 1626.32389835 584.121871334 1612.94814129 c 0,54,55
 592.429421572 1609.09465168 592.429421572 1609.09465168 606.774362883 1604.0534206 c 128,-1,56
 621.119304194 1599.01218952 621.119304194 1599.01218952 638.5669323 1593.84846785 c 1,40,41
EndSplineSet
EndChar

StartChar: uni0650
Encoding: 1616 1616 51
GlifName: uni0650
Width: -26
VWidth: 2316
GlyphClass: 4
Flags: W
AnchorPoint: "Anchor-7" 571.144 -21.8242 mark 0
AnchorPoint: "Anchor-6" 571.144 -21.8242 mark 0
AnchorPoint: "Anchor-0" 619.091 -334.624 basemark 0
AnchorPoint: "Anchor-0" 571.144 -21.8242 mark 0
LayerCount: 2
Fore
SplineSet
322.900390625 -345.599609375 m 1,0,-1
 322.900390625 -242.022460938 l 1,1,-1
 322.900390625 -228.595462755 l 1,2,-1
 335.327698161 -223.511536357 l 1,3,-1
 790.727112224 -37.2107551065 l 1,4,-1
 818.299804688 -25.9309554655 l 1,5,-1
 818.299804688 -55.7216796875 l 1,6,-1
 818.299804688 -159.299804688 l 1,7,-1
 818.299804688 -172.72682952 l 1,8,-1
 805.872463148 -177.81074318 l 1,9,-1
 350.473049085 -364.110547867 l 1,10,-1
 322.900390625 -375.39027447 l 1,11,-1
 322.900390625 -345.599609375 l 1,0,-1
EndSplineSet
EndChar

StartChar: uni0651
Encoding: 1617 1617 52
GlifName: uni0651
Width: -26
VWidth: 2393
GlyphClass: 4
Flags: W
AnchorPoint: "Anchor-10" 598.801 1463.71 mark 0
AnchorPoint: "Anchor-9" 598.801 1463.71 mark 0
AnchorPoint: "Anchor-1" 570.087 1849.1 basemark 0
AnchorPoint: "Anchor-1" 598.801 1463.71 mark 0
LayerCount: 2
Fore
SplineSet
628.403416837 1769.32195162 m 2,0,1
 630.195785149 1727.63191747 630.195785149 1727.63191747 630.623518614 1685.95902149 c 0,2,3
 630.435621922 1645.0773879 630.435621922 1645.0773879 641.624839251 1629.60168962 c 128,-1,4
 652.814056581 1614.12599134 652.814056581 1614.12599134 676.55866211 1614.25154114 c 0,5,6
 702.161551842 1614.45103586 702.161551842 1614.45103586 714.753653822 1632.33207817 c 128,-1,7
 727.345755802 1650.21312048 727.345755802 1650.21312048 727.62746464 1695.3119849 c 0,8,9
 727.885431276 1731.38032714 727.885431276 1731.38032714 711.52520403 1808.77272862 c 2,10,-1
 707.171165343 1829.36960084 l 1,11,-1
 727.964018473 1832.6629361 l 1,12,-1
 816.040190347 1846.61313141 l 1,13,-1
 833.499943997 1849.37854422 l 1,14,-1
 838.388860594 1832.39063675 l 2,15,16
 847.666099852 1800.15427539 847.666099852 1800.15427539 852.220230301 1768.19962108 c 128,-1,17
 856.774360749 1736.24496676 856.774360749 1736.24496676 856.527528468 1704.98447437 c 0,18,19
 856.775893765 1598.8190859 856.775893765 1598.8190859 814.978362452 1540.61877324 c 128,-1,20
 773.180831138 1482.41846058 773.180831138 1482.41846058 690.5612364 1481.66667791 c 0,21,22
 634.294536723 1481.25712523 634.294536723 1481.25712523 592.231670009 1517.51060067 c 1,23,24
 549.71714665 1418.19046241 549.71714665 1418.19046241 431.987901918 1417.88958965 c 0,25,26
 355.934928667 1418.06455687 355.934928667 1418.06455687 315.840294704 1467.18562589 c 128,-1,27
 275.74566074 1516.30669491 275.74566074 1516.30669491 274.305041602 1606.1962176 c 0,28,29
 273.35941966 1668.44556848 273.35941966 1668.44556848 287.791201092 1721.03408976 c 2,30,-1
 292.564782717 1738.42872673 l 1,31,-1
 310.358285102 1735.4703911 l 1,32,-1
 388.672738227 1722.44988328 l 1,33,-1
 409.372438137 1719.00836522 l 1,34,-1
 404.941638987 1698.49764505 l 2,35,36
 395.316097872 1653.93981845 395.316097872 1653.93981845 395.57658948 1619.78331496 c 0,37,38
 395.844990881 1583.88399647 395.844990881 1583.88399647 407.177694065 1569.96742854 c 128,-1,39
 418.510397248 1556.05086061 418.510397248 1556.05086061 443.780715963 1555.90196851 c 0,40,41
 475.544961456 1555.70738847 475.544961456 1555.70738847 491.766165895 1576.97798193 c 128,-1,42
 507.987370333 1598.24857539 507.987370333 1598.24857539 509.964868321 1649.98178707 c 0,43,44
 511.895880615 1700.36505974 511.895880615 1700.36505974 511.097088488 1768.22749181 c 2,45,-1
 510.858902547 1788.46289062 l 1,46,-1
 531.095703125 1788.46289062 l 1,47,-1
 608.421875 1788.46289062 l 1,48,-1
 627.580495648 1788.46289062 l 1,49,-1
 628.403416837 1769.32195162 l 2,0,1
EndSplineSet
EndChar

StartChar: uni0652
Encoding: 1618 1618 53
GlifName: uni0652
Width: -26
VWidth: 2316
GlyphClass: 4
Flags: W
AnchorPoint: "Anchor-10" 603.219 1222.43 mark 0
AnchorPoint: "Anchor-9" 603.219 1222.43 mark 0
AnchorPoint: "Anchor-1" 577.537 1799.66 basemark 0
AnchorPoint: "Anchor-1" 603.219 1222.43 mark 0
LayerCount: 2
Fore
SplineSet
378.139648438 1461.671875 m 128,-1,1
 378.139648438 1506.29999427 378.139648438 1506.29999427 393.907871888 1544.84671016 c 128,-1,2
 409.676095338 1583.39342604 409.676095338 1583.39342604 440.696853353 1614.41471835 c 0,3,4
 503.254892145 1676.97167969 503.254892145 1676.97167969 593.439453125 1676.97167969 c 0,5,6
 638.067055034 1676.97167969 638.067055034 1676.97167969 676.613561078 1661.20343648 c 128,-1,7
 715.160067123 1645.43519328 715.160067123 1645.43519328 746.181198125 1614.41459656 c 0,8,9
 766.845192988 1593.7506017 766.845192988 1593.7506017 780.785457842 1569.6525462 c 128,-1,10
 794.725722695 1545.55449071 794.725722695 1545.55449071 801.732490254 1518.46982263 c 128,-1,11
 808.739257812 1491.38515455 808.739257812 1491.38515455 808.739257812 1461.671875 c 0,12,13
 808.739257812 1371.48818969 808.739257812 1371.48818969 746.181198123 1308.93013 c 0,14,15
 725.517220281 1288.26615215 725.517220281 1288.26615215 701.419293885 1274.32589079 c 128,-1,16
 677.321367489 1260.38562942 677.321367489 1260.38562942 650.236899058 1253.37884986 c 128,-1,17
 623.152430628 1246.37207031 623.152430628 1246.37207031 593.439453125 1246.37207031 c 0,18,19
 548.811332245 1246.37207031 548.811332245 1246.37207031 510.264541701 1262.14059036 c 128,-1,20
 471.717751157 1277.90911041 471.717751157 1277.90911041 440.696609776 1308.93025179 c 128,-1,21
 409.679383182 1339.94801261 409.679383182 1339.94801261 393.90951581 1378.49518445 c 128,-1,0
 378.139648438 1417.04235629 378.139648438 1417.04235629 378.139648438 1461.671875 c 128,-1,1
504.539586784 1460.77268455 m 0,22,23
 504.260713948 1422.19902612 504.260713948 1422.19902612 531.082350895 1395.71420973 c 0,24,25
 557.346530125 1369.11242821 557.346530125 1369.11242821 596.13987271 1369.17189885 c 0,26,27
 634.3761146 1369.11242472 634.3761146 1369.11242472 661.196242714 1395.71415178 c 0,28,29
 674.481749438 1409.11013163 674.481749438 1409.11013163 681.039356318 1425.13635663 c 128,-1,30
 687.596963199 1441.16258162 687.596963199 1441.16258162 687.738733528 1460.77223733 c 0,31,32
 687.459839445 1499.2298829 687.459839445 1499.2298829 661.196184773 1525.82952293 c 0,33,34
 634.376338338 1552.31257129 634.376338338 1552.31257129 596.139424166 1552.37204646 c 0,35,36
 576.227490662 1552.34152124 576.227490662 1552.34152124 560.361637927 1545.84848586 c 128,-1,37
 544.495785192 1539.35545048 544.495785192 1539.35545048 531.082079845 1525.82979401 c 0,38,39
 504.260712226 1499.22763757 504.260712226 1499.22763757 504.539586784 1460.77268455 c 0,22,23
EndSplineSet
EndChar

StartChar: uni0653
Encoding: 1619 1619 54
GlifName: uni0653
Width: -30
VWidth: 2673
GlyphClass: 4
Flags: W
AnchorPoint: "Anchor-10" 461.017 1539.11 mark 0
AnchorPoint: "Anchor-9" 461.017 1539.11 mark 0
AnchorPoint: "Anchor-1" 461.017 2035.25 basemark 0
AnchorPoint: "Anchor-1" 461.017 1539.11 mark 0
LayerCount: 2
Fore
SplineSet
400.348632812 1636.8046875 m 2,0,1
 289.097070303 1652.11547185 289.097070303 1652.11547185 197.061523438 1542.6328125 c 1,2,-1
 95.6953125 1709.29980469 l 5,3,4
 214.313143403 1879.44918336 214.313143403 1879.44918336 383.756835938 1852.15820312 c 6,5,-1
 532.506835938 1828.20019531 l 6,6,7
 632 1812 632 1812 752.004882812 1873.74121094 c 5,8,-1
 817.659179688 1677.28320312 l 1,9,10
 689.104504559 1597.06521074 689.104504559 1597.06521074 540.869140625 1617.46582031 c 2,11,-1
 400.348632812 1636.8046875 l 2,0,1
EndSplineSet
EndChar

StartChar: uni0657
Encoding: 1623 1623 57
GlifName: uni0657
Width: -26
VWidth: 2316
GlyphClass: 4
Flags: W
AnchorPoint: "Anchor-10" 573.285 1350.55 mark 0
AnchorPoint: "Anchor-9" 573.285 1350.55 mark 0
AnchorPoint: "Anchor-1" 573.285 2089.85 basemark 0
AnchorPoint: "Anchor-1" 573.285 1350.55 mark 0
LayerCount: 2
Fore
SplineSet
265.087718114 1824.65333543 m 2,0,1
 292.513980079 1823.88726641 292.513980079 1823.88726641 322.919655211 1821.85666139 c 128,-1,2
 353.325330343 1819.82605638 353.325330343 1819.82605638 384.965382755 1816.68305831 c 1,3,4
 538.460468923 2029.46988078 538.460468923 2029.46988078 782.786965021 2052.62368537 c 2,5,-1
 804.673828125 2054.69781224 l 1,6,-1
 804.673828125 2032.71289062 l 1,7,-1
 804.673828125 1954.59179688 l 1,8,-1
 804.673828125 1937.54142498 l 1,9,-1
 787.838224124 1934.84371854 l 2,10,11
 706.323580902 1921.78196101 706.323580902 1921.78196101 639.454883235 1884.98070174 c 128,-1,12
 572.586185567 1848.17944247 572.586185567 1848.17944247 520.213227755 1788.02845622 c 1,13,14
 567.505716175 1770.51361565 567.505716175 1770.51361565 603.03715748 1744.53288411 c 0,15,16
 639.976082392 1716.65732984 639.976082392 1716.65732984 658.982856364 1679.82905996 c 128,-1,17
 677.989630335 1643.00079009 677.989630335 1643.00079009 677.976561375 1598.87780253 c 0,18,19
 678.002721837 1520.88910317 678.002721837 1520.88910317 627.636402523 1469.02987845 c 0,20,21
 578.50585711 1417.99830689 578.50585711 1417.99830689 501.362075731 1418.01367222 c 0,22,23
 418.843905825 1417.99850004 418.843905825 1417.99850004 359.621492688 1475.95139644 c 0,24,25
 335.68170251 1499.97304164 335.68170251 1499.97304164 323.758691057 1532.03837668 c 128,-1,26
 311.835679604 1564.10371172 311.835679604 1564.10371172 311.635316431 1603.31150794 c 0,27,28
 311.747481992 1616.7743824 311.747481992 1616.7743824 313.877079851 1632.98868231 c 128,-1,29
 316.00667771 1649.20298222 316.00667771 1649.20298222 319.823028136 1666.84511953 c 128,-1,30
 323.639378563 1684.48725685 323.639378563 1684.48725685 329.172136675 1704.31017472 c 1,31,32
 314.05926283 1705.22098006 314.05926283 1705.22098006 297.977793368 1705.73383268 c 128,-1,33
 281.896323905 1706.2466853 281.896323905 1706.2466853 264.379926019 1706.37751092 c 2,34,-1
 244.529296875 1706.52577033 l 1,35,-1
 244.529296875 1726.37695312 l 1,36,-1
 244.529296875 1804.66113281 l 1,37,-1
 244.529296875 1825.22757226 l 1,38,-1
 265.087718114 1824.65333543 l 2,0,1
501.030530228 1536.39991456 m 0,39,40
 509.438446349 1536.5235099 509.438446349 1536.5235099 516.304057634 1537.86310195 c 128,-1,41
 523.169668919 1539.20269401 523.169668919 1539.20269401 528.517157094 1541.74363292 c 128,-1,42
 533.864645269 1544.28457183 533.864645269 1544.28457183 537.943497076 1547.66485318 c 128,-1,43
 542.022348884 1551.04513453 542.022348884 1551.04513453 545.451715654 1555.60467295 c 0,44,45
 557.068162263 1572.7633309 557.068162263 1572.7633309 557.312936229 1596.68331388 c 0,46,47
 557.194053816 1619.19727266 557.194053816 1619.19727266 541.688517593 1637.49024088 c 128,-1,48
 526.18298137 1655.78320909 526.18298137 1655.78320909 491.236313933 1670.56833762 c 0,49,50
 470.459132731 1679.28134909 470.459132731 1679.28134909 449.19890408 1685.26770091 c 1,51,52
 430.005415463 1635.75534152 430.005415463 1635.75534152 430.023444045 1604.95951855 c 0,53,54
 430.01375493 1596.29260512 430.01375493 1596.29260512 431.325620754 1589.2128237 c 128,-1,55
 432.637486579 1582.13304228 432.637486579 1582.13304228 435.126762098 1576.43058572 c 0,56,57
 442.712649637 1559.01097902 442.712649637 1559.01097902 462.042954827 1547.81223853 c 0,58,59
 472.450115549 1541.76917431 472.450115549 1541.76917431 482.108721272 1539.00799211 c 128,-1,60
 491.767326995 1536.24680991 491.767326995 1536.24680991 501.030530228 1536.39991456 c 0,39,40
EndSplineSet
EndChar

StartChar: uni065A
Encoding: 1626 1626 58
GlifName: uni065A_
Width: 1135
VWidth: 2316
GlyphClass: 4
Flags: W
AnchorPoint: "Anchor-10" 573.285 1350.55 mark 0
AnchorPoint: "Anchor-9" 573.285 1350.55 mark 0
AnchorPoint: "Anchor-1" 571.012 1862.38 basemark 0
AnchorPoint: "Anchor-1" 573.285 1350.55 mark 0
LayerCount: 2
Fore
SplineSet
485.20342063 1434.15908232 m 1,0,-1
 291.360647192 1758.22353545 l 1,1,-1
 273.256283057 1788.49023438 l 1,2,-1
 308.524414062 1788.49023438 l 1,3,-1
 412.922851562 1788.49023438 l 1,4,-1
 423.626707512 1788.49023438 l 1,5,-1
 429.56401335 1779.58400445 l 1,6,-1
 573.28520692 1563.99564992 l 1,7,-1
 717.007306892 1779.58405122 l 1,8,-1
 722.944617706 1788.49023438 l 1,9,-1
 733.6484375 1788.49023438 l 1,10,-1
 838.047851562 1788.49023438 l 1,11,-1
 873.316256192 1788.49023438 l 1,12,-1
 855.211550075 1758.22342118 l 1,13,-1
 661.365846951 1434.15896805 l 1,14,-1
 655.543744527 1424.42578125 l 1,15,-1
 644.202148438 1424.42578125 l 1,16,-1
 502.3671875 1424.42578125 l 1,17,-1
 491.025503419 1424.42578125 l 1,18,-1
 485.20342063 1434.15908232 l 1,0,-1
EndSplineSet
EndChar

StartChar: afii57392
Encoding: 1632 1632 59
GlifName: afii57392
Width: 1077
VWidth: 2992
GlyphClass: 2
Flags: W
LayerCount: 2
Fore
SplineSet
425.41796875 634.077148438 m 4,0,1
 425.41796875 623.85546875 425.41796875 623.85546875 426.69140625 614.697265625 c 132,-1,2
 427.96484375 605.5390625 427.96484375 605.5390625 430.5390625 597.178710938 c 132,-1,3
 433.11328125 588.818359375 433.11328125 588.818359375 437.102539062 581.110351562 c 132,-1,4
 441.092773438 573.40234375 441.092773438 573.40234375 446.420898438 566.275390625 c 132,-1,5
 451.749023438 559.150390625 451.749023438 559.150390625 458.634765625 552.264648438 c 4,6,7
 475.366210938 535.533203125 475.366210938 535.533203125 495.823242188 527.20703125 c 132,-1,8
 516.349609375 518.852539062 516.349609375 518.852539062 542.142578125 518.483398438 c 4,9,10
 591.461914062 519.194335938 591.461914062 519.194335938 624.533203125 552.265625 c 4,11,12
 633.108398438 560.840820312 633.108398438 560.840820312 639.23828125 569.94140625 c 132,-1,13
 645.369140625 579.041992188 645.369140625 579.041992188 649.463867188 589.072265625 c 4,14,15
 657.74609375 609.366210938 657.74609375 609.366210938 657.74609375 634.077148438 c 132,-1,16
 657.74609375 658.7890625 657.74609375 658.7890625 649.463867188 679.083984375 c 4,17,18
 641.2734375 699.151367188 641.2734375 699.151367188 624.533203125 715.891601562 c 4,19,20
 619.645507812 720.779296875 619.645507812 720.779296875 614.586914062 724.888671875 c 132,-1,21
 609.528320312 728.998046875 609.528320312 728.998046875 604.1640625 732.4296875 c 132,-1,22
 598.799804688 735.861328125 598.799804688 735.861328125 593.129882812 738.56640625 c 132,-1,23
 587.458984375 741.271484375 587.458984375 741.271484375 581.415039062 743.317382812 c 132,-1,24
 575.37109375 745.36328125 575.37109375 745.36328125 568.8828125 746.733398438 c 132,-1,25
 562.392578125 748.104492188 562.392578125 748.104492188 555.459960938 748.834960938 c 132,-1,26
 548.529296875 749.56640625 548.529296875 749.56640625 541.016601562 749.671875 c 4,27,28
 534.208984375 749.573242188 534.208984375 749.573242188 528.134765625 748.98828125 c 132,-1,29
 522.0625 748.40234375 522.0625 748.40234375 516.501953125 747.299804688 c 132,-1,30
 510.94140625 746.197265625 510.94140625 746.197265625 505.87109375 744.655273438 c 132,-1,31
 500.80078125 743.114257812 500.80078125 743.114257812 495.680664062 741.008789062 c 4,32,33
 475.422851562 732.6796875 475.422851562 732.6796875 458.633789062 715.891601562 c 4,34,35
 441.44921875 698.708007812 441.44921875 698.708007812 433.43359375 679.0703125 c 132,-1,36
 425.41796875 659.43359375 425.41796875 659.43359375 425.41796875 634.077148438 c 4,0,1
285.345703125 885.748046875 m 0,37,38
 293.954101562 894.356445312 293.954101562 894.356445312 302.8671875 902.266601562 c 128,-1,39
 311.779296875 910.177734375 311.779296875 910.177734375 321.073242188 917.4453125 c 128,-1,40
 330.366210938 924.712890625 330.366210938 924.712890625 339.954101562 931.256835938 c 0,41,42
 368.8984375 951.009765625 368.8984375 951.009765625 400.520507812 964.201171875 c 0,43,44
 463.611328125 990.51953125 463.611328125 990.51953125 536.678710938 990.51953125 c 0,45,46
 585.233398438 990.51953125 585.233398438 990.51953125 629.446289062 978.874023438 c 0,47,48
 644.268554688 974.970703125 644.268554688 974.970703125 658.620117188 969.743164062 c 128,-1,49
 672.97265625 964.515625 672.97265625 964.515625 686.793945312 957.990234375 c 128,-1,50
 700.614257812 951.46484375 700.614257812 951.46484375 713.8671875 943.659179688 c 128,-1,51
 727.0859375 935.874023438 727.0859375 935.874023438 739.783203125 926.79296875 c 128,-1,52
 752.48046875 917.7109375 752.48046875 917.7109375 764.508789062 907.467773438 c 128,-1,53
 776.536132812 897.223632812 776.536132812 897.223632812 788.01171875 885.748046875 c 0,54,55
 813.890625 859.869140625 813.890625 859.869140625 833.591796875 831.004882812 c 128,-1,56
 853.293945312 802.140625 853.293945312 802.140625 866.459960938 770.579101562 c 0,57,58
 875.252929688 749.50390625 875.252929688 749.50390625 881.119140625 727.1875 c 128,-1,59
 886.986328125 704.872070312 886.986328125 704.872070312 889.884765625 681.70703125 c 128,-1,60
 892.784179688 658.541992188 892.784179688 658.541992188 892.784179688 634.4140625 c 0,61,62
 892.784179688 487.852539062 892.784179688 487.852539062 788.01171875 383.080078125 c 0,63,64
 762.045898438 357.114257812 762.045898438 357.114257812 733.372070312 337.58984375 c 0,65,66
 727.600585938 333.659179688 727.600585938 333.659179688 721.713867188 329.987304688 c 128,-1,67
 715.827148438 326.315429688 715.827148438 326.315429688 709.81640625 322.896484375 c 128,-1,68
 703.805664062 319.478515625 703.805664062 319.478515625 697.688476562 316.32421875 c 128,-1,69
 691.571289062 313.168945312 691.571289062 313.168945312 685.333984375 310.2734375 c 128,-1,70
 679.095703125 307.377929688 679.095703125 307.377929688 672.759765625 304.751953125 c 0,71,72
 662.1953125 300.375 662.1953125 300.375 651.326171875 296.733398438 c 128,-1,73
 640.456054688 293.091796875 640.456054688 293.091796875 629.333984375 290.200195312 c 128,-1,74
 618.2109375 287.30859375 618.2109375 287.30859375 606.826171875 285.16015625 c 0,75,76
 572.884765625 278.756835938 572.884765625 278.756835938 536.625 278.923828125 c 0,77,78
 463.709960938 278.588867188 463.709960938 278.588867188 400.579101562 304.755859375 c 0,79,80
 379.469726562 313.504882812 379.469726562 313.504882812 359.547851562 325.19921875 c 128,-1,81
 339.725585938 336.834960938 339.725585938 336.834960938 321.095703125 351.380859375 c 0,82,83
 316.459960938 355 316.459960938 355 311.90234375 358.796875 c 128,-1,84
 307.34375 362.594726562 307.34375 362.594726562 302.875 366.55859375 c 128,-1,85
 298.407226562 370.522460938 298.407226562 370.522460938 294.02734375 374.650390625 c 128,-1,86
 289.647460938 378.778320312 289.647460938 378.778320312 285.345703125 383.080078125 c 0,87,88
 278.901367188 389.524414062 278.901367188 389.524414062 272.83984375 396.154296875 c 128,-1,89
 266.77734375 402.783203125 266.77734375 402.783203125 261.084960938 409.61328125 c 128,-1,90
 255.391601562 416.442382812 255.391601562 416.442382812 250.0859375 423.4609375 c 128,-1,91
 244.78125 430.479492188 244.78125 430.479492188 239.862304688 437.681640625 c 128,-1,92
 234.944335938 444.884765625 234.944335938 444.884765625 230.41796875 452.28125 c 128,-1,93
 225.892578125 459.676757812 225.892578125 459.676757812 221.770507812 467.241210938 c 128,-1,94
 217.649414062 474.806640625 217.649414062 474.806640625 213.92578125 482.569335938 c 128,-1,95
 210.202148438 490.33203125 210.202148438 490.33203125 206.899414062 498.248046875 c 0,96,97
 180.577148438 561.348632812 180.577148438 561.348632812 180.577148438 634.415039062 c 128,-1,98
 180.577148438 707.483398438 180.577148438 707.483398438 206.89453125 770.575195312 c 128,-1,99
 233.17578125 833.579101562 233.17578125 833.579101562 285.345703125 885.748046875 c 0,37,38
EndSplineSet
EndChar

StartChar: afii57393
Encoding: 1633 1633 60
GlifName: afii57393
Width: 756
VWidth: 2992
GlyphClass: 2
Flags: W
LayerCount: 2
Fore
SplineSet
351.114257812 1392.60742188 m 6,0,1
 559.115234375 936.442184482 559.115234375 936.442184482 559.115234375 268.771484375 c 6,2,-1
 559.115234375 11.5537109375 l 1,3,-1
 294.797851562 11.5537109375 l 1,4,-1
 294.791992188 271.930664062 l 6,5,6
 294.999889671 923.654137052 294.999889671 923.654137052 109.013671875 1300.19335938 c 6,7,-1
 88.849609375 1341.01660156 l 5,8,-1
 336.073242188 1425.59375 l 5,9,-1
 351.114257812 1392.60742188 l 6,0,1
EndSplineSet
EndChar

StartChar: afii57394
Encoding: 1634 1634 61
GlifName: afii57394
Width: 1237
VWidth: 2992
GlyphClass: 2
Flags: W
LayerCount: 2
Fore
SplineSet
453.922851562 1107.71582031 m 6,0,1
 472.394722499 1056.58306482 472.394722499 1056.58306482 501.29296875 1026.05859375 c 4,2,3
 531 994 531 994 576.62109375 977.973632812 c 4,4,5
 622 962 622 962 685.0234375 961.76953125 c 4,6,7
 804.284276904 961.991233611 804.284276904 961.991233611 845.73828125 1034.3125 c 4,8,9
 896 1122 896 1122 895.948242188 1364.53515625 c 6,10,-1
 895.939453125 1404.66699219 l 5,11,-1
 936.071289062 1404.54394531 l 5,12,-1
 1115.81640625 1403.99023438 l 5,13,-1
 1156.06347656 1403.86621094 l 5,14,-1
 1155.69140625 1363.62011719 l 6,15,16
 1155 1288 1155 1288 1150.66113281 1220.90332031 c 4,17,18
 1147 1168 1147 1168 1140.13476562 1121.53027344 c 4,19,20
 1133 1075 1133 1075 1123.60449219 1032.91894531 c 4,21,22
 1114 991 1114 991 1100.69335938 954.8125 c 4,23,24
 1088 919 1088 919 1070.9453125 887.625976562 c 4,25,26
 1054 856 1054 856 1033.98144531 831.104492188 c 4,27,28
 979 762 979 762 891.354492188 728.044921875 c 4,29,30
 804 694 804 694 689.110351562 694.568359375 c 4,31,32
 600 695 600 695 533.826171875 715.810546875 c 5,33,34
 559.115234375 492.984651853 559.115234375 492.984651853 559.115234375 268.771484375 c 6,35,-1
 559.115234375 51.5537109375 l 1,36,-1
 559.115234375 11.5537109375 l 1,37,-1
 519.115234375 11.5537109375 l 1,38,-1
 334.796875 11.5537109375 l 1,39,-1
 294.797851562 11.5537109375 l 1,40,-1
 294.796875 51.552734375 l 1,41,-1
 294.791992188 271.930664062 l 6,42,43
 294.999889671 923.654137052 294.999889671 923.654137052 109.013671875 1300.19335938 c 6,44,-1
 88.849609375 1341.01660156 l 5,45,-1
 131.928710938 1355.75488281 l 5,46,-1
 301.548828125 1413.78417969 l 5,47,-1
 338.756835938 1426.51269531 l 5,48,-1
 352.1171875 1389.52832031 l 5,49,-1
 453.922851562 1107.71582031 l 6,0,1
EndSplineSet
EndChar

StartChar: afii57395
Encoding: 1635 1635 62
GlifName: afii57395
Width: 1492
VWidth: 2992
GlyphClass: 2
Flags: W
LayerCount: 2
Fore
SplineSet
533.763671875 716.862304688 m 1,0,1
 547 606 547 606 552.815429688 494.307617188 c 0,2,3
 559.115234375 380.926054188 559.115234375 380.926054188 559.115234375 268.771484375 c 2,4,-1
 559.115234375 51.5537109375 l 1,5,-1
 559.115234375 11.5537109375 l 1,6,-1
 519.115234375 11.5537109375 l 1,7,-1
 334.796875 11.5537109375 l 1,8,-1
 294.797851562 11.5537109375 l 1,9,-1
 294.796875 51.552734375 l 1,10,-1
 294.791992188 271.9296875 l 2,11,12
 294.999889671 923.654137052 294.999889671 923.654137052 109.013671875 1300.19335938 c 2,13,-1
 88.849609375 1341.01660156 l 1,14,-1
 131.9296875 1355.75488281 l 1,15,-1
 301.51953125 1413.7734375 l 1,16,-1
 339.1328125 1426.64160156 l 1,17,-1
 352.232421875 1389.10742188 l 1,18,-1
 461.920898438 1074.828125 l 2,19,20
 479 1025 479 1025 514.475585938 1001.60839844 c 0,21,22
 550 978 550 978 610.791992188 977.630859375 c 0,23,24
 649 977 649 977 673.65625 995.923828125 c 0,25,26
 698 1014 698 1014 712.280273438 1063.36328125 c 0,27,28
 726.241622168 1112.85655566 726.241622168 1112.85655566 724.375976562 1193.63671875 c 2,29,-1
 721.672851562 1310.67871094 l 1,30,-1
 720.756835938 1350.3203125 l 1,31,-1
 760.389648438 1351.58203125 l 1,32,-1
 919.044921875 1356.6328125 l 1,33,-1
 959.274414062 1357.9140625 l 1,34,-1
 960.3046875 1317.67675781 l 1,35,-1
 963.998046875 1173.39453125 l 2,36,37
 967 1062 967 1062 996.39453125 1016.91894531 c 0,38,39
 1026 971 1026 971 1080.953125 970.889648438 c 4,40,41
 1123.05844325 971.091254411 1123.05844325 971.091254411 1141.58984375 1008.21386719 c 0,42,43
 1155 1037 1155 1037 1161.53320312 1091.45019531 c 0,44,45
 1165 1127 1165 1127 1167.41113281 1166.40820312 c 0,46,47
 1169.44490651 1217.08629367 1169.44490651 1217.08629367 1169.51855469 1248.39160156 c 2,48,-1
 1169.83105469 1381.22460938 l 1,49,-1
 1169.92480469 1421.09375 l 1,50,-1
 1209.79394531 1421.13085938 l 1,51,-1
 1386.59667969 1421.29394531 l 1,52,-1
 1426.81152344 1421.33105469 l 1,53,-1
 1426.63378906 1381.11621094 l 1,54,-1
 1426.0546875 1250.5078125 l 2,55,56
 1426 1218 1426 1218 1424.15234375 1183.21777344 c 0,57,58
 1422 1146 1422 1146 1418.57910156 1100.29589844 c 0,59,60
 1409 975 1409 975 1368.89746094 888.124023438 c 0,61,62
 1329 801 1329 801 1257.73730469 753.99609375 c 0,63,64
 1186 707 1186 707 1086.375 707.76953125 c 0,65,66
 1050 708 1050 708 1016.51660156 714.379882812 c 0,67,68
 983 721 983 721 951.57421875 732.864257812 c 0,69,70
 920 745 920 745 892.067382812 763.061523438 c 128,-1,71
 864 781 864 781 838.477539062 804.737304688 c 1,72,73
 743 707 743 707 623.063476562 706.943359375 c 0,74,75
 597 707 597 707 573.974609375 709.974609375 c 0,76,77
 562 711 562 711 552.497070312 713.000976562 c 128,-1,78
 543 715 543 715 533.763671875 716.862304688 c 1,0,1
EndSplineSet
EndChar

StartChar: afii57396
Encoding: 1636 1636 63
GlifName: afii57396
Width: 1056
VWidth: 2992
GlyphClass: 2
Flags: W
LayerCount: 2
Fore
SplineSet
99.330078125 350.529296875 m 0,0,1
 91 557 91 557 410.018554688 746.969726562 c 5,2,3
 181 858 181 858 181.663085938 1040.078125 c 4,4,5
 182 1144 182 1144 236.576171875 1222.01464844 c 4,6,7
 391.713455285 1448.581522 391.713455285 1448.581522 824.802734375 1397.1015625 c 6,8,-1
 862.619140625 1392.60644531 l 5,9,-1
 844.477539062 1130.82128906 l 5,10,-1
 802.954101562 1135.53125 l 6,11,12
 685 1149 685 1149 617.94921875 1136.66796875 c 4,13,14
 550 1125 550 1125 522.426757812 1108.1171875 c 4,15,16
 471 1077 471 1077 470.829101562 1041.8359375 c 4,17,18
 469.998824005 937.852719461 469.998824005 937.852719461 791.032226562 911.575195312 c 6,19,-1
 827.313476562 908.60546875 l 5,20,-1
 830.385742188 661.240234375 l 5,21,-1
 805.006835938 651.0078125 l 6,22,23
 370 475 370 475 375.432617188 392.86328125 c 0,24,25
 383.006555608 273.897028992 383.006555608 273.897028992 723.578125 276.052734375 c 2,26,-1
 957.317382812 277.532226562 l 1,27,-1
 960.4375 -0.0703125 l 1,28,-1
 716.973632812 0.46875 l 2,29,30
 325 1 325 1 178.984375 152.590820312 c 0,31,32
 103 231 103 231 99.330078125 350.529296875 c 0,0,1
EndSplineSet
EndChar

StartChar: afii57397
Encoding: 1637 1637 64
GlifName: afii57397
Width: 1257
VWidth: 2992
GlyphClass: 2
Flags: W
LayerCount: 2
Fore
SplineSet
605.099609375 976.397460938 m 5,0,1
 350 693 350 693 349.721679688 493.2421875 c 4,2,3
 350 407 350 407 429.357479656 341.241442785 c 0,4,5
 509 275 509 275 632.096679688 275.03125 c 0,6,7
 785 275 785 275 854.736328125 357.174804688 c 0,8,9
 907 419 907 419 906.259765625 500.182617188 c 4,10,11
 906 735 906 735 605.099609375 976.397460938 c 5,0,1
344.1171875 1181.1875 m 5,12,-1
 489.322265625 1415.32617188 l 5,13,-1
 523.5078125 1393.3984375 l 6,14,15
 1176 975 1176 975 1176.70605469 477.306640625 c 4,16,17
 1177 223 1177 223 962.2109375 89.9609375 c 0,18,19
 828 7 828 7 620.391601562 7.97265625 c 0,20,21
 453 9 453 9 324.718261719 79.9086914062 c 0,22,23
 76 218 76 218 78.630859375 476.333984375 c 4,24,25
 82 783 82 783 393.618164062 1143.26269531 c 5,26,-1
 344.1171875 1181.1875 l 5,12,-1
EndSplineSet
EndChar

StartChar: afii57398
Encoding: 1638 1638 65
GlifName: afii57398
Width: 1305
VWidth: 2992
GlyphClass: 2
Flags: W
LayerCount: 2
Fore
SplineSet
797.471679688 1076.0546875 m 5,0,1
 648 1041 648 1041 494.142578125 1040.07324219 c 4,2,3
 257.380045707 1040.00011738 257.380045707 1040.00011738 64.9609375 1126.86328125 c 6,4,-1
 41.41796875 1137.49121094 l 5,5,-1
 41.41796875 1436.6171875 l 5,6,-1
 98.287109375 1410.16601562 l 6,7,8
 288 1322 288 1322 509.75390625 1321.84277344 c 4,9,10
 762.761095984 1321.99923386 762.761095984 1321.99923386 990.711914062 1412.890625 c 6,11,-1
 1044.796875 1434.45605469 l 5,12,-1
 1045.52441406 1376.23535156 l 6,13,14
 1056.01077556 547.148047541 1056.01077556 547.148047541 1201.38476562 63.0576171875 c 2,15,-1
 1216.8515625 11.5537109375 l 1,16,-1
 937.991210938 11.5537109375 l 1,17,-1
 930.504882812 42.0029296875 l 2,18,19
 811 529 811 529 797.471679688 1076.0546875 c 5,0,1
EndSplineSet
EndChar

StartChar: afii57399
Encoding: 1639 1639 66
GlifName: afii57399
Width: 1301
VWidth: 2992
GlyphClass: 2
Flags: W
LayerCount: 2
Fore
SplineSet
1238.24707031 1271.98828125 m 6,0,1
 887.250448003 583.060549833 887.250448003 583.060549833 773.41015625 43.298828125 c 2,2,-1
 766.71484375 11.5537109375 l 1,3,-1
 534.436523438 11.5537109375 l 1,4,-1
 527.53515625 42.970703125 l 2,5,6
 410.471549303 573.394448671 410.471549303 573.394448671 62.4580078125 1272.30371094 c 6,7,-1
 44.7705078125 1307.82519531 l 5,8,-1
 284.958984375 1429.82714844 l 5,9,-1
 302.727539062 1393.13769531 l 6,10,11
 541 901 541 901 650.45703125 468.637695312 c 5,12,13
 759.503435545 901.031011178 759.503435545 901.031011178 998.172851562 1393.15722656 c 6,14,-1
 1015.95214844 1429.81738281 l 5,15,-1
 1256.42773438 1307.67285156 l 5,16,-1
 1238.24707031 1271.98828125 l 6,0,1
EndSplineSet
EndChar

StartChar: afii57400
Encoding: 1640 1640 67
GlifName: afii57400
Width: 1301
VWidth: 2992
GlyphClass: 2
Flags: W
LayerCount: 2
Fore
SplineSet
650.438476562 939.219726562 m 1,0,1
 541.517025352 507.051404718 541.517025352 507.051404718 302.72265625 14.4814453125 c 2,2,-1
 284.946289062 -22.1865234375 l 1,3,-1
 44.7783203125 99.8046875 l 1,4,-1
 62.4541015625 135.322265625 l 2,5,6
 412.003973883 839.021157393 412.003973883 839.021157393 527.536132812 1364.66796875 c 6,7,-1
 534.440429688 1396.08105469 l 5,8,-1
 766.5234375 1396.08105469 l 5,9,-1
 773.37109375 1364.57617188 l 6,10,11
 887.812358157 836.865253016 887.812358157 836.865253016 1238.40136719 135.37890625 c 2,12,-1
 1256.16796875 99.830078125 l 1,13,-1
 1015.91796875 -22.201171875 l 1,14,-1
 998.157226562 14.509765625 l 2,15,16
 760 507 760 507 650.438476562 939.219726562 c 1,0,1
EndSplineSet
EndChar

StartChar: afii57401
Encoding: 1641 1641 68
GlifName: afii57401
Width: 1198
VWidth: 2992
GlyphClass: 2
Flags: W
LayerCount: 2
Fore
SplineSet
509.517578125 535.165039062 m 4,0,1
 404 535 404 535 322.650390625 560.313476562 c 4,2,3
 241 586 241 586 185.215820312 634.654296875 c 4,4,5
 129 684 129 684 100.564453125 757.728515625 c 4,6,7
 72 832 72 832 71.9482421875 927.66796875 c 4,8,9
 72 1082 72 1082 148.526367188 1205.61425781 c 4,10,11
 282 1420 282 1420 515.049804688 1420.31542969 c 4,12,13
 736 1420 736 1420 856.155273438 1282.10839844 c 4,14,15
 976 1144 976 1144 987.905273438 883.26171875 c 4,16,17
 989.507924565 843.276880653 989.507924565 843.276880653 1040.69824219 54.142578125 c 2,18,-1
 1043.4609375 11.5537109375 l 1,19,-1
 1000.78222656 11.5537109375 l 1,20,-1
 819.748046875 11.5537109375 l 1,21,-1
 781.133789062 11.5537109375 l 1,22,-1
 779.772460938 50.1435546875 l 1,23,-1
 758.181640625 582.211914062 l 5,24,25
 639 535 639 535 509.517578125 535.165039062 c 4,0,1
736.142578125 853.708007812 m 5,26,27
 722 1014 722 1014 666.79296875 1082.70703125 c 4,28,29
 612 1152 612 1152 514.541015625 1148.56640625 c 4,30,31
 431 1146 431 1146 373.52734375 1069.6484375 c 4,32,33
 327 1007 327 1007 327.008789062 935.385742188 c 4,34,35
 327 868 327 868 369.590820312 836.401367188 c 132,-1,36
 412 805 412 805 513.915039062 804.892578125 c 4,37,38
 627 805 627 805 736.142578125 853.708007812 c 5,26,27
EndSplineSet
EndChar

StartChar: afii57381
Encoding: 1642 1642 69
GlifName: afii57381
Width: 1288
VWidth: 4078
GlyphClass: 2
Flags: W
LayerCount: 2
Fore
SplineSet
709.512695312 385.344726562 m 128,-1,1
 709.512695312 472.015625 709.512695312 472.015625 771.366210938 532.723632812 c 0,2,3
 786.126953125 547.484375 786.126953125 547.484375 803.049804688 558.86328125 c 128,-1,4
 819.971679688 570.2421875 819.971679688 570.2421875 838.483398438 577.947265625 c 128,-1,5
 856.994140625 585.65234375 856.994140625 585.65234375 877.086914062 589.67578125 c 128,-1,6
 897.1796875 593.69921875 897.1796875 593.69921875 918.235351562 593.838867188 c 0,7,8
 961.379882812 594.124023438 961.379882812 594.124023438 998.553710938 578.646484375 c 128,-1,9
 1035.70898438 563.176757812 1035.70898438 563.176757812 1065.859375 532.458984375 c 0,10,11
 1080.57714844 517.739257812 1080.57714844 517.739257812 1092.09765625 500.756835938 c 128,-1,12
 1103.61816406 483.774414062 1103.61816406 483.774414062 1111.23828125 465.297851562 c 128,-1,13
 1118.89453125 446.733398438 1118.89453125 446.733398438 1122.69921875 426.629882812 c 128,-1,14
 1126.50390625 406.526367188 1126.50390625 406.526367188 1126.50390625 385.344726562 c 0,15,16
 1126.50390625 298.875 1126.50390625 298.875 1065.7265625 238.096679688 c 128,-1,17
 1004.94824219 177.318359375 1004.94824219 177.318359375 918.48046875 177.318359375 c 128,-1,18
 832.01171875 177.318359375 832.01171875 177.318359375 771.346679688 237.984375 c 0,19,0
 709.512695312 298.671875 709.512695312 298.671875 709.512695312 385.344726562 c 128,-1,1
160.96875 1159.37011719 m 4,20,21
 161 1246 161 1246 222.825195312 1306.75 c 4,22,23
 243 1326 243 1326 265.89453125 1339.91601562 c 4,24,25
 289 1353 289 1353 315.294921875 1360.47460938 c 4,26,27
 341 1368 341 1368 369.671875 1367.86523438 c 4,28,29
 412 1368 412 1368 450.01953125 1352.296875 c 4,30,31
 488 1337 488 1337 517.323242188 1306.47558594 c 4,32,33
 578 1246 578 1246 577.959960938 1159.37011719 c 4,34,35
 578 1117 578 1117 562.479492188 1079.18945312 c 4,36,37
 547 1042 547 1042 516.958007812 1011.90039062 c 132,-1,38
 487 982 487 982 450.388671875 966.684570312 c 4,39,40
 413 951 413 951 369.83203125 951.34375 c 4,41,42
 284 951 284 951 222.8203125 1011.99023438 c 4,43,44
 215 1020 215 1020 208.310546875 1027.64355469 c 4,45,46
 202 1036 202 1036 195.73828125 1044.16113281 c 4,47,48
 190 1053 190 1053 185.108398438 1061.49902344 c 4,49,50
 180 1070 180 1070 176.412109375 1079.6328125 c 4,51,52
 173 1089 173 1089 169.654296875 1098.51757812 c 4,53,54
 167 1108 167 1108 164.826171875 1118.12890625 c 4,55,56
 163 1128 163 1128 161.934570312 1138.421875 c 132,-1,57
 161 1149 161 1149 160.96875 1159.37011719 c 4,20,21
914.047851562 1448.52441406 m 5,58,-1
 1067.31933594 1369.55859375 l 5,59,-1
 1102.95117188 1351.20019531 l 5,60,-1
 1084.52050781 1315.60644531 l 5,61,-1
 390.471679688 55.2802734375 l 1,62,-1
 371.619140625 18.873046875 l 1,63,-1
 335.6875 38.6181640625 l 1,64,-1
 182.84765625 122.608398438 l 1,65,-1
 148.602539062 141.426757812 l 1,66,-1
 166.614257812 176.102539062 l 1,67,-1
 860.231445312 1431.40429688 l 5,68,-1
 878.608398438 1466.78222656 l 5,69,-1
 914.047851562 1448.52441406 l 5,58,-1
EndSplineSet
EndChar

StartChar: uni066B
Encoding: 1643 1643 70
GlifName: uni066B_
Width: 822
VWidth: 2992
GlyphClass: 2
Flags: W
LayerCount: 2
Fore
SplineSet
548.385742188 894.825195312 m 1,0,-1
 679.688476562 839.0859375 l 1,1,-1
 716.78515625 823.338867188 l 1,2,-1
 700.760742188 786.361328125 l 1,3,-1
 236.491210938 -284.966796875 l 1,4,-1
 220.560546875 -321.725585938 l 1,5,-1
 183.826171875 -305.73828125 l 1,6,-1
 50.4013671875 -247.668945312 l 1,7,-1
 13.69140625 -231.692382812 l 1,8,-1
 29.7021484375 -194.997070312 l 1,9,-1
 496.09375 874.000976562 l 1,10,-1
 511.930664062 910.301757812 l 1,11,-1
 548.385742188 894.825195312 l 1,0,-1
EndSplineSet
EndChar

StartChar: uni066C
Encoding: 1644 1644 71
GlifName: uni066C_
Width: 588
VWidth: 2882
GlyphClass: 2
Flags: W
LayerCount: 2
Fore
SplineSet
87.0283203125 190.947265625 m 0,0,1
 87.3173828125 219.7421875 87.3173828125 219.7421875 93.0986328125 244.810546875 c 128,-1,2
 98.8798828125 269.877929688 98.8798828125 269.877929688 110.826171875 291.080078125 c 0,3,4
 135.4609375 334.802734375 135.4609375 334.802734375 183.654296875 356.36328125 c 0,5,6
 227.547851562 376 227.547851562 376 290.438476562 376.182617188 c 0,7,8
 332.227539062 376.3671875 332.227539062 376.3671875 367.56640625 366.0390625 c 128,-1,9
 402.90625 355.7109375 402.90625 355.7109375 430.181640625 335.647460938 c 128,-1,10
 457.458007812 315.584960938 457.458007812 315.584960938 476.071289062 285.232421875 c 128,-1,11
 494.684570312 254.87890625 494.684570312 254.87890625 502.837890625 215.926757812 c 0,12,13
 519.255859375 135.903320312 519.255859375 135.903320312 490.528320312 20.8671875 c 0,14,15
 428.7734375 -215.151367188 428.7734375 -215.151367188 214.0703125 -391.934570312 c 2,16,-1
 191.612304688 -410.42578125 l 1,17,-1
 167.100585938 -394.7578125 l 1,18,-1
 127.034179688 -369.146484375 l 1,19,-1
 115.952148438 -362.0625 l 1,20,-1
 74.2890625 -335.4296875 l 1,21,-1
 109.038085938 -300.25 l 2,22,23
 255.661132812 -151.80859375 255.661132812 -151.80859375 279.838867188 -0.0283203125 c 1,24,25
 277.10546875 0.0595703125 277.10546875 0.0595703125 274.6015625 0.1650390625 c 128,-1,26
 272.096679688 0.26953125 272.096679688 0.26953125 269.693359375 0.3994140625 c 128,-1,27
 267.290039062 0.5283203125 267.290039062 0.5283203125 265.07421875 0.6787109375 c 128,-1,28
 262.858398438 0.8291015625 262.858398438 0.8291015625 260.72265625 1.0087890625 c 128,-1,29
 258.586914062 1.1884765625 258.586914062 1.1884765625 256.59765625 1.3935546875 c 128,-1,30
 254.608398438 1.599609375 254.608398438 1.599609375 252.676757812 1.8388671875 c 128,-1,31
 250.74609375 2.0771484375 250.74609375 2.0771484375 248.918945312 2.34765625 c 128,-1,32
 247.092773438 2.6171875 247.092773438 2.6171875 245.303710938 2.9248046875 c 128,-1,33
 243.514648438 3.2333984375 243.514648438 3.2333984375 241.788085938 3.576171875 c 128,-1,34
 240.060546875 3.919921875 240.060546875 3.919921875 238.349609375 4.306640625 c 0,35,36
 165.5703125 19.3056640625 165.5703125 19.3056640625 126.071289062 68.1845703125 c 128,-1,37
 86.5732421875 117.063476562 86.5732421875 117.063476562 87.0283203125 190.947265625 c 0,0,1
EndSplineSet
EndChar

StartChar: afii63167
Encoding: 1645 1645 72
GlifName: afii63167
Width: 1584
VWidth: 2992
GlyphClass: 2
Flags: W
LayerCount: 2
Fore
SplineSet
232.590820312 1118.65136719 m 1,0,-1
 635.94921875 1118.65136719 l 1,1,-1
 761.9921875 1502.41015625 l 1,2,-1
 799.995117188 1618.11523438 l 1,3,-1
 837.998046875 1502.41015625 l 1,4,-1
 964.04296875 1118.65136719 l 1,5,-1
 1367.40136719 1118.65136719 l 1,6,-1
 1489.89648438 1118.65136719 l 1,7,-1
 1391.0078125 1046.359375 l 1,8,-1
 1065.11425781 808.120117188 l 1,9,-1
 1189.73632812 425.275390625 l 1,10,-1
 1227.70996094 308.620117188 l 1,11,-1
 1128.2734375 380.473632812 l 1,12,-1
 799.995117188 617.686523438 l 1,13,-1
 471.719726562 380.473632812 l 1,14,-1
 372.284179688 308.620117188 l 1,15,-1
 410.256835938 425.275390625 l 1,16,-1
 534.876953125 808.120117188 l 1,17,-1
 208.984375 1046.36035156 l 1,18,-1
 110.095703125 1118.65136719 l 1,19,-1
 232.590820312 1118.65136719 l 1,0,-1
EndSplineSet
EndChar

StartChar: uni066E
Encoding: 1646 1646 73
GlifName: uni066E_
Width: 1887
VWidth: 2992
GlyphClass: 2
Flags: W
AnchorPoint: "Anchor-10" 1007.36 1455.35 basechar 0
AnchorPoint: "Anchor-7" 1007.36 -217.261 basechar 0
LayerCount: 2
Fore
SplineSet
860.911132812 0 m 2,0,1
 471.373046875 0 471.373046875 0 265.72265625 120.461914062 c 128,-1,2
 60.072265625 240.923828125 60.072265625 240.923828125 60.16015625 485.856445312 c 0,3,4
 59.990234375 637.55859375 59.990234375 637.55859375 128.181640625 789.192382812 c 2,5,-1
 144.232421875 824.884765625 l 1,6,-1
 180.267578125 809.616210938 l 1,7,-1
 342.0390625 741.071289062 l 1,8,-1
 378.169921875 725.762695312 l 1,9,-1
 363.556640625 689.344726562 l 2,10,11
 343.087890625 638.333984375 343.087890625 638.333984375 333.162109375 594.53125 c 128,-1,12
 323.236328125 550.727539062 323.236328125 550.727539062 323.424804688 514.596679688 c 0,13,14
 323.059570312 269.009765625 323.059570312 269.009765625 841.876953125 269.13671875 c 0,15,16
 982.7734375 269.103515625 982.7734375 269.103515625 1100.42773438 275.625976562 c 128,-1,17
 1218.08105469 282.1484375 1218.08105469 282.1484375 1302.39648438 294.022460938 c 128,-1,18
 1386.71191406 305.896484375 1386.71191406 305.896484375 1443.05761719 321.870117188 c 128,-1,19
 1499.40234375 337.84375 1499.40234375 337.84375 1525.88574219 357.3359375 c 0,20,21
 1574.06835938 392.408203125 1574.06835938 392.408203125 1574.37988281 485.393554688 c 0,22,23
 1574.01953125 570.327148438 1574.01953125 570.327148438 1538.84863281 721.572265625 c 2,24,-1
 1529.89941406 760.0546875 l 1,25,-1
 1568.26855469 769.477539062 l 1,26,-1
 1735.35351562 810.512695312 l 1,27,-1
 1771.20117188 819.31640625 l 1,28,-1
 1782.84960938 784.290039062 l 2,29,30
 1835.00488281 627.461914062 1835.00488281 627.461914062 1834.90625 499.701171875 c 0,31,32
 1834.95605469 373.861328125 1834.95605469 373.861328125 1796.54882812 281.1328125 c 128,-1,33
 1758.14160156 188.404296875 1758.14160156 188.404296875 1679.72070312 133.549804688 c 0,34,35
 1488.58984375 -0 1488.58984375 -0 944.356445312 0 c 2,36,-1
 860.911132812 0 l 2,0,1
EndSplineSet
Substitution2: "'init' Initial Forms in Arabic lookup 13 subtable" uni066E.init
Substitution2: "'medi' Medial Forms in Arabic lookup 11 subtable" uni066E.medi
Substitution2: "'fina' Terminal Forms in Arabic lookup 9 subtable" uni066E.fina
EndChar

StartChar: uni066F
Encoding: 1647 1647 74
GlifName: uni066F_
Width: 1511
VWidth: 2992
GlyphClass: 2
Flags: W
AnchorPoint: "Anchor-10" 121.809 1392.22 basechar 0
AnchorPoint: "Anchor-7" 335.219 -731.353 basechar 0
LayerCount: 2
Fore
SplineSet
1441.84375 319.731445312 m 0,0,1
 1449.78710938 244.5859375 1449.78710938 244.5859375 1449.89648438 171.28125 c 0,2,3
 1450.00488281 98.97265625 1450.00488281 98.97265625 1440.04882812 34.216796875 c 0,4,5
 1401.0078125 -219.263671875 1401.0078125 -219.263671875 1224.5078125 -348.146484375 c 128,-1,6
 1048.00878906 -477.029296875 1048.00878906 -477.029296875 746.865234375 -477.060546875 c 0,7,8
 523.490234375 -476.998046875 523.490234375 -476.998046875 372.301757812 -409.666992188 c 0,9,10
 216.489257812 -340.07421875 216.489257812 -340.07421875 138.508789062 -199.369140625 c 0,11,12
 99.955078125 -129.81640625 99.955078125 -129.81640625 80.728515625 -44.2626953125 c 128,-1,13
 61.5029296875 41.291015625 61.5029296875 41.291015625 60.9580078125 142.583007812 c 0,14,15
 59.962890625 381.803710938 59.962890625 381.803710938 164.763671875 606.12890625 c 2,16,-1
 180.791015625 640.436523438 l 1,17,-1
 215.924804688 626.311523438 l 1,18,-1
 378.651367188 560.888671875 l 1,19,-1
 415.705078125 545.991210938 l 1,20,-1
 400.8671875 508.9140625 l 2,21,22
 386.973632812 474.196289062 386.973632812 474.196289062 375.541992188 441.118164062 c 128,-1,23
 364.110351562 408.0390625 364.110351562 408.0390625 355.189453125 376.811523438 c 128,-1,24
 346.26953125 345.583007812 346.26953125 345.583007812 339.7578125 315.928710938 c 0,25,26
 320.025390625 227.693359375 320.025390625 227.693359375 320.458984375 151.000976562 c 0,27,28
 321.630859375 -35.7568359375 321.630859375 -35.7568359375 421.950195312 -124.700195312 c 128,-1,29
 522.268554688 -213.64453125 522.268554688 -213.64453125 736.2265625 -213.326171875 c 0,30,31
 944.616210938 -212.744140625 944.616210938 -212.744140625 1055.91503906 -141.212890625 c 128,-1,32
 1167.21386719 -69.681640625 1167.21386719 -69.681640625 1195.18359375 73.8837890625 c 1,33,34
 1093.60253906 49.1962890625 1093.60253906 49.1962890625 998.135742188 50.1240234375 c 0,35,36
 945.381835938 50.4375 945.381835938 50.4375 900.75 59.0048828125 c 128,-1,37
 856.1171875 67.5712890625 856.1171875 67.5712890625 817.75390625 85.76171875 c 128,-1,38
 779.390625 103.951171875 779.390625 103.951171875 750.40234375 131.551757812 c 0,39,40
 663.856445312 213.940429688 663.856445312 213.940429688 664.76953125 368.143554688 c 0,41,42
 664.895507812 389.467773438 664.895507812 389.467773438 666.893554688 412.086914062 c 128,-1,43
 668.892578125 434.706054688 668.892578125 434.706054688 672.791015625 459.305664062 c 0,44,45
 680.913085938 507.778320312 680.913085938 507.778320312 696.112304688 561.47265625 c 0,46,47
 726.879882812 673.521484375 726.879882812 673.521484375 798.079101562 754.215820312 c 0,48,49
 898.204101562 866.23046875 898.204101562 866.23046875 1044.58789062 864.705078125 c 0,50,51
 1085.03808594 864.283203125 1085.03808594 864.283203125 1126.36523438 850.005859375 c 128,-1,52
 1167.69238281 835.727539062 1167.69238281 835.727539062 1209.90527344 808.5625 c 0,53,54
 1403.79003906 683.19921875 1403.79003906 683.19921875 1441.84375 319.731445312 c 0,0,1
1182.28515625 339.127929688 m 1,55,56
 1174.87695312 389.3125 1174.87695312 389.3125 1164.03808594 429.302734375 c 128,-1,57
 1153.19921875 469.293945312 1153.19921875 469.293945312 1139.03320312 499.885742188 c 0,58,59
 1095.38476562 595.375 1095.38476562 595.375 1039.7421875 595.130859375 c 0,60,61
 998.250976562 595.260742188 998.250976562 595.260742188 969.057617188 566.703125 c 128,-1,62
 939.864257812 538.145507812 939.864257812 538.145507812 920.291992188 469.5390625 c 0,63,64
 913.850585938 446.859375 913.850585938 446.859375 910.70703125 427.470703125 c 0,65,66
 909.18359375 418.068359375 909.18359375 418.068359375 908.466796875 409.711914062 c 128,-1,67
 907.75 401.354492188 907.75 401.354492188 907.778320312 393.80078125 c 0,68,69
 907.728515625 352.833984375 907.728515625 352.833984375 932.203125 333.90234375 c 128,-1,70
 956.676757812 314.969726562 956.676757812 314.969726562 1023.42871094 314.03125 c 0,71,72
 1029.36132812 313.95703125 1029.36132812 313.95703125 1035.60742188 314.116210938 c 128,-1,73
 1041.85351562 314.275390625 1041.85351562 314.275390625 1048.45507812 314.671875 c 128,-1,74
 1055.05761719 315.067382812 1055.05761719 315.067382812 1061.99609375 315.7109375 c 128,-1,75
 1068.93457031 316.353515625 1068.93457031 316.353515625 1076.17382812 317.236328125 c 128,-1,76
 1083.4140625 318.120117188 1083.4140625 318.120117188 1091.01855469 319.262695312 c 128,-1,77
 1098.62304688 320.40625 1098.62304688 320.40625 1106.47851562 321.793945312 c 0,78,79
 1118.04980469 323.838867188 1118.04980469 323.838867188 1130.42089844 326.46875 c 128,-1,80
 1142.79296875 329.09765625 1142.79296875 329.09765625 1155.765625 332.265625 c 128,-1,81
 1168.73828125 335.43359375 1168.73828125 335.43359375 1182.28515625 339.127929688 c 1,55,56
EndSplineSet
Substitution2: "'init' Initial Forms in Arabic lookup 13 subtable" uni066F.init
Substitution2: "'medi' Medial Forms in Arabic lookup 11 subtable" uni066F.medi
Substitution2: "'fina' Terminal Forms in Arabic lookup 9 subtable" uni066F.fina
EndChar

StartChar: uni0670
Encoding: 1648 1648 75
GlifName: uni0670
Width: -29
VWidth: 2574
GlyphClass: 4
Flags: W
AnchorPoint: "Anchor-10" 636.984 1500.61 mark 0
AnchorPoint: "Anchor-9" 636.984 1500.61 mark 0
AnchorPoint: "Anchor-1" 636.984 2087.18 basemark 0
AnchorPoint: "Anchor-1" 636.984 1500.61 mark 0
LayerCount: 2
Fore
SplineSet
573.435546875 1568.26757812 m 1,0,-1
 573.435546875 2019.51660156 l 1,1,-1
 573.435546875 2039.51660156 l 1,2,-1
 593.435546875 2039.51660156 l 1,3,-1
 680.533203125 2039.51660156 l 1,4,-1
 700.533203125 2039.51660156 l 1,5,-1
 700.533203125 2019.51660156 l 1,6,-1
 700.533203125 1568.26757812 l 1,7,-1
 700.533203125 1548.26757812 l 1,8,-1
 680.533203125 1548.26757812 l 1,9,-1
 593.435546875 1548.26757812 l 1,10,-1
 573.435546875 1548.26757812 l 1,11,-1
 573.435546875 1568.26757812 l 1,0,-1
EndSplineSet
EndChar

StartChar: uni0674
Encoding: 1652 1652 76
GlifName: uni0674
Width: 711
VWidth: 2537
GlyphClass: 2
Flags: W
LayerCount: 2
Fore
SplineSet
212.143130555 2001.22299924 m 1,0,1
 140.980522291 2072.63963938 140.980522291 2072.63963938 140.78315372 2170.52289297 c 0,2,3
 141.019507073 2266.98593592 141.019507073 2266.98593592 205.190843263 2334.77025453 c 0,4,5
 280.408724149 2413.99875646 280.408724149 2413.99875646 397.016961822 2414.01562473 c 0,6,7
 497.224216119 2413.9991409 497.224216119 2413.9991409 577.641837874 2368.92597695 c 2,8,-1
 587.800825577 2363.23197968 l 1,9,-1
 587.86299626 2351.58626069 l 1,10,-1
 588.565144698 2220.06087006 l 1,11,-1
 588.730245596 2189.13441794 l 1,12,-1
 560.45821553 2201.67096511 l 2,13,14
 471.726173602 2241.01704056 471.726173602 2241.01704056 411.001277799 2241.26146433 c 0,15,16
 392.128591001 2241.18308831 392.128591001 2241.18308831 376.494907682 2237.77930651 c 128,-1,17
 360.861224363 2234.3755247 360.861224363 2234.3755247 349.097933646 2228.18728951 c 128,-1,18
 337.334642929 2221.99905432 337.334642929 2221.99905432 328.264785851 2212.91044064 c 0,19,20
 317.000578661 2201.27222657 317.000578661 2201.27222657 311.646136655 2187.84464547 c 128,-1,21
 306.291694649 2174.41706437 306.291694649 2174.41706437 306.489714242 2158.32404354 c 0,22,23
 307.716000453 2097.32742368 307.716000453 2097.32742368 407.445292399 2062.71378821 c 0,24,25
 414.367816712 2060.33451355 414.367816712 2060.33451355 422.852703238 2061.17906635 c 0,26,27
 471.084159095 2066.79559996 471.084159095 2066.79559996 591.234106947 2088.23300543 c 2,28,-1
 614.747070312 2092.42823762 l 1,29,-1
 614.747070312 2068.54394531 l 1,30,-1
 614.747070312 1933.015625 l 1,31,-1
 614.747070312 1917.00791803 l 1,32,-1
 599.128145945 1913.50136928 l 1,33,-1
 162.667208445 1815.51308803 l 1,34,-1
 138.286132812 1810.0393801 l 1,35,-1
 138.286132812 1835.02734375 l 1,36,-1
 138.286132812 1968.27050781 l 1,37,-1
 138.286132812 1984.18120749 l 1,38,-1
 153.789476487 1987.7584549 l 1,39,-1
 212.143130555 2001.22299924 l 1,0,1
EndSplineSet
EndChar

StartChar: uni06A1
Encoding: 1697 1697 80
GlifName: uni06A_1
Width: 1911
VWidth: 2992
GlyphClass: 2
Flags: W
AnchorPoint: "Anchor-10" 670.853 1670.62 basechar 0
AnchorPoint: "Anchor-7" 653.182 -312.248 basechar 0
LayerCount: 2
Fore
SplineSet
1845.28222656 494.322265625 m 0,0,1
 1844.97753906 213.93359375 1844.97753906 213.93359375 1680.98828125 101.278320312 c 0,2,3
 1534.47949219 0 1534.47949219 0 1241.20996094 0 c 2,4,-1
 859.911132812 0 l 2,5,6
 470.373046875 0 470.373046875 0 264.72265625 120.461914062 c 128,-1,7
 59.072265625 240.923828125 59.072265625 240.923828125 59.16015625 485.856445312 c 0,8,9
 58.990234375 637.55859375 58.990234375 637.55859375 127.181640625 789.192382812 c 2,10,-1
 143.232421875 824.884765625 l 1,11,-1
 179.267578125 809.616210938 l 1,12,-1
 341.0390625 741.071289062 l 1,13,-1
 376.943359375 725.858398438 l 1,14,-1
 362.649414062 689.579101562 l 2,15,16
 348.918945312 654.728515625 348.918945312 654.728515625 339.864257812 622.8515625 c 128,-1,17
 330.80859375 590.975585938 330.80859375 590.975585938 326.557617188 563.3671875 c 128,-1,18
 322.305664062 535.759765625 322.305664062 535.759765625 322.43359375 511.348632812 c 0,19,20
 322.065429688 269.159179688 322.065429688 269.159179688 846.149414062 269.159179688 c 0,21,22
 852.67578125 269.159179688 852.67578125 269.159179688 1250.10839844 271.471679688 c 0,23,24
 1420.828125 272.543945312 1420.828125 272.543945312 1505.37890625 302.947265625 c 128,-1,25
 1589.93066406 333.3515625 1589.93066406 333.3515625 1598.93945312 377.715820312 c 1,26,27
 1495.50878906 351.952148438 1495.50878906 351.952148438 1398.90429688 351.688476562 c 0,28,29
 1236.95117188 351.856445312 1236.95117188 351.856445312 1148.74121094 430.725585938 c 128,-1,30
 1060.53125 509.59375 1060.53125 509.59375 1060.53125 658.508789062 c 0,31,32
 1060.53125 682.802734375 1060.53125 682.802734375 1062.59277344 706.331054688 c 128,-1,33
 1064.65429688 729.859375 1064.65429688 729.859375 1068.84472656 753.122070312 c 0,34,35
 1100.74023438 922.271484375 1100.74023438 922.271484375 1193.11621094 1026.43554688 c 0,36,37
 1289.79882812 1135.8046875 1289.79882812 1135.8046875 1442.78027344 1135.8046875 c 0,38,39
 1535.15136719 1135.8046875 1535.15136719 1135.8046875 1607.75292969 1088.64453125 c 0,40,41
 1799.6640625 965.345703125 1799.6640625 965.345703125 1837.65234375 621.465820312 c 0,42,43
 1844.98925781 554.274414062 1844.98925781 554.274414062 1845.28222656 494.322265625 c 0,0,1
1304.58203125 690.010742188 m 0,44,45
 1304.92578125 651.5390625 1304.92578125 651.5390625 1329.57324219 633.657226562 c 128,-1,46
 1354.21972656 615.774414062 1354.21972656 615.774414062 1421.76367188 615.603515625 c 0,47,48
 1452.12695312 615.75390625 1452.12695312 615.75390625 1492.15527344 622.171875 c 128,-1,49
 1532.18359375 628.588867188 1532.18359375 628.588867188 1577.77148438 640.807617188 c 1,50,51
 1563.609375 728.719726562 1563.609375 728.719726562 1534.828125 791.048828125 c 0,52,53
 1524.00097656 814.881835938 1524.00097656 814.881835938 1512.25683594 831.622070312 c 128,-1,54
 1500.51269531 848.361328125 1500.51269531 848.361328125 1487.97753906 858.001953125 c 128,-1,55
 1475.44140625 867.641601562 1475.44140625 867.641601562 1462.75195312 871.915039062 c 128,-1,56
 1450.06152344 876.189453125 1450.06152344 876.189453125 1435.50976562 876.227539062 c 0,57,58
 1396.43066406 876.146484375 1396.43066406 876.146484375 1366.56054688 847.104492188 c 128,-1,59
 1336.69042969 818.0625 1336.69042969 818.0625 1314.79980469 749.576171875 c 0,60,61
 1305.05761719 718.129882812 1305.05761719 718.129882812 1304.58203125 690.010742188 c 0,44,45
EndSplineSet
Substitution2: "'init' Initial Forms in Arabic lookup 13 subtable" uni06A1.init
Substitution2: "'medi' Medial Forms in Arabic lookup 11 subtable" uni06A1.medi
Substitution2: "'fina' Terminal Forms in Arabic lookup 9 subtable" uni06A1.fina
EndChar

StartChar: uni06A9
Encoding: 1705 1705 81
GlifName: uni06A_9
Width: 1948
VWidth: 2992
GlyphClass: 2
Flags: W
AnchorPoint: "Anchor-7" 750.268 -196.468 basechar 0
AnchorPoint: "Anchor-10" 743.878 1414.89 basechar 0
LayerCount: 2
Fore
SplineSet
1064.10449219 0 m 2,0,-1
 859.911132812 0 l 2,1,2
 470.373046875 0 470.373046875 0 264.72265625 120.461914062 c 128,-1,3
 59.072265625 240.923828125 59.072265625 240.923828125 59.16015625 485.856445312 c 0,4,5
 58.990234375 637.55859375 58.990234375 637.55859375 127.181640625 789.192382812 c 2,6,-1
 143.232421875 824.884765625 l 1,7,-1
 179.267578125 809.616210938 l 1,8,-1
 341.0390625 741.071289062 l 1,9,-1
 376.943359375 725.858398438 l 1,10,-1
 362.649414062 689.579101562 l 2,11,12
 322.040039062 586.505859375 322.040039062 586.505859375 322.432617188 511.497070312 c 0,13,14
 323.778320312 269.944335938 323.778320312 269.944335938 859.551757812 269.198242188 c 2,15,-1
 1063.31542969 268.993164062 l 2,16,17
 1074.40722656 268.982421875 1074.40722656 268.982421875 1085.21484375 269.079101562 c 0,18,19
 1195.0234375 270.060546875 1195.0234375 270.060546875 1275.27441406 281.9375 c 128,-1,20
 1355.52539062 293.813476562 1355.52539062 293.813476562 1400.68847656 314.336914062 c 128,-1,21
 1445.85253906 334.860351562 1445.85253906 334.860351562 1466.68066406 359.721679688 c 128,-1,22
 1487.5078125 384.583007812 1487.5078125 384.583007812 1487.21777344 414.807617188 c 0,23,24
 1487.15429688 424.427734375 1487.15429688 424.427734375 1482.37597656 438.103515625 c 128,-1,25
 1477.59765625 451.778320312 1477.59765625 451.778320312 1467.0703125 468.76171875 c 0,26,27
 1443.34179688 507.140625 1443.34179688 507.140625 1395.16992188 556.067382812 c 0,28,29
 1317.2421875 635.081054688 1317.2421875 635.081054688 1249.77246094 696.8203125 c 128,-1,30
 1182.30273438 758.559570312 1182.30273438 758.559570312 1126.01074219 802.470703125 c 0,31,32
 995.93359375 903.467773438 995.93359375 903.467773438 996.411132812 1044.46972656 c 0,33,34
 996.248046875 1096.12597656 996.248046875 1096.12597656 1015.87695312 1139.44726562 c 128,-1,35
 1035.50585938 1182.76855469 1035.50585938 1182.76855469 1072.38183594 1214.95214844 c 128,-1,36
 1109.2578125 1247.13574219 1109.2578125 1247.13574219 1161.84277344 1268.02148438 c 2,37,-1
 1875.10058594 1551.27636719 l 1,38,-1
 1929.86425781 1573.02441406 l 1,39,-1
 1929.86425781 1514.10058594 l 1,40,-1
 1929.86425781 1319.46289062 l 1,41,-1
 1929.86425781 1292.14746094 l 1,42,-1
 1904.42285156 1282.20605469 l 1,43,-1
 1272.08496094 1035.11621094 l 1,44,45
 1535.42578125 797.700195312 1535.42578125 797.700195312 1641.6328125 660.392578125 c 0,46,47
 1694.03613281 593.11328125 1694.03613281 593.11328125 1720.54589844 526.844726562 c 0,48,49
 1748.16503906 458.350585938 1748.16503906 458.350585938 1746.70214844 389.551757812 c 0,50,51
 1744.16015625 256.814453125 1744.16015625 256.814453125 1661.37207031 169.100585938 c 128,-1,52
 1578.58300781 81.3876953125 1578.58300781 81.3876953125 1429.265625 40.693359375 c 128,-1,53
 1279.94824219 0 1279.94824219 0 1064.10449219 0 c 2,0,-1
EndSplineSet
Substitution2: "'init' Initial Forms in Arabic lookup 13 subtable" uniFB90
Substitution2: "'medi' Medial Forms in Arabic lookup 11 subtable" uniFB91
Substitution2: "'fina' Terminal Forms in Arabic lookup 9 subtable" uniFB8F
EndChar

StartChar: afii57514
Encoding: 1722 1722 83
GlifName: afii57514
Width: 1475
VWidth: 2992
GlyphClass: 2
Flags: W
AnchorPoint: "Anchor-10" 727.479 1227.75 basechar 0
AnchorPoint: "Anchor-7" 758.023 -693.042 basechar 0
LayerCount: 2
Fore
SplineSet
716.3046875 -209.6953125 m 0,0,1
 940.9375 -208.89453125 940.9375 -208.89453125 1046.21191406 -110.584960938 c 128,-1,2
 1151.48535156 -12.2744140625 1151.48535156 -12.2744140625 1151.03710938 193.381835938 c 0,3,4
 1151.00195312 375.790039062 1151.00195312 375.790039062 1065.05371094 552.611328125 c 2,5,-1
 1045.40527344 593.034179688 l 1,6,-1
 1087.8359375 607.859375 l 1,7,-1
 1260.9609375 668.346679688 l 1,8,-1
 1297.03027344 680.948242188 l 1,9,-1
 1311.27148438 645.495117188 l 2,10,11
 1412.01269531 394.702148438 1412.01269531 394.702148438 1411.67871094 192.05859375 c 0,12,13
 1410.96582031 -0.220703125 1410.96582031 -0.220703125 1340.34082031 -146.504882812 c 0,14,15
 1179.93359375 -474.03125 1179.93359375 -474.03125 706.993164062 -473.431640625 c 0,16,17
 392.331054688 -473.206054688 392.331054688 -473.206054688 227.98828125 -320.784179688 c 128,-1,18
 63.6455078125 -168.361328125 63.6455078125 -168.361328125 63.25 126.546875 c 0,19,20
 62.990234375 347.903320312 62.990234375 347.903320312 166.444335938 598.7109375 c 2,21,-1
 181.560546875 635.358398438 l 1,22,-1
 218.342773438 620.571289062 l 1,23,-1
 380.955078125 555.194335938 l 1,24,-1
 417.8828125 540.34765625 l 1,25,-1
 403.221679688 503.345703125 l 2,26,27
 322.032226562 298.444335938 322.032226562 298.444335938 322.751953125 125.260742188 c 0,28,29
 323.780273438 -46.7568359375 323.780273438 -46.7568359375 418.387695312 -128.534179688 c 128,-1,30
 512.995117188 -210.310546875 512.995117188 -210.310546875 716.3046875 -209.6953125 c 0,0,1
EndSplineSet
Substitution2: "'init' Initial Forms in Arabic lookup 13 subtable" uni06BA.init
Substitution2: "'medi' Medial Forms in Arabic lookup 11 subtable" uni06BA.medi
Substitution2: "'fina' Terminal Forms in Arabic lookup 9 subtable" uniFB9F
EndChar

StartChar: uni06F4
Encoding: 1780 1780 90
GlifName: uni06F_4
Width: 1244
VWidth: 2992
GlyphClass: 2
Flags: W
LayerCount: 2
Fore
SplineSet
1125.14648438 1330.74316406 m 5,0,-1
 1082.15136719 1158.35449219 l 5,1,-1
 1071.05175781 1113.8515625 l 5,2,-1
 1028.47167969 1130.90039062 l 6,3,4
 958 1159 958 1159 883.239257812 1158.92675781 c 4,5,6
 793 1159 793 1159 733.736328125 1115.48925781 c 4,7,8
 685 1079 685 1079 657.721679688 1032.02832031 c 4,9,10
 631 985 631 985 624.452148438 923.087890625 c 4,11,12
 624 921 624 921 626.747070312 916.455078125 c 4,13,14
 629 912 629 912 644.024414062 898.87890625 c 4,15,16
 659 886 659 886 683.928710938 873.166992188 c 4,17,18
 746 841 746 841 855.952148438 840.590820312 c 4,19,20
 988.200513312 841.000621335 988.200513312 841.000621335 1103.08886719 887.594726562 c 6,21,-1
 1150.93457031 906.999023438 l 5,22,-1
 1157.76953125 855.823242188 l 5,23,-1
 1181.09667969 681.186523438 l 5,24,-1
 1185.07421875 651.4140625 l 5,25,-1
 1157.59179688 639.291992188 l 6,26,27
 1025 581 1025 581 876.106445312 581.181640625 c 4,28,29
 666 582 666 582 538.432617188 665.590820312 c 5,30,31
 559.115234375 476.948971236 559.115234375 476.948971236 559.115234375 268.771484375 c 6,32,-1
 559.115234375 51.5537109375 l 1,33,-1
 559.115234375 11.5537109375 l 1,34,-1
 519.115234375 11.5537109375 l 1,35,-1
 334.796875 11.5537109375 l 1,36,-1
 294.797851562 11.5537109375 l 1,37,-1
 294.796875 51.552734375 l 1,38,-1
 294.791992188 271.930664062 l 6,39,40
 294.999889671 923.654137052 294.999889671 923.654137052 109.013671875 1300.19335938 c 6,41,-1
 88.849609375 1341.01660156 l 5,42,-1
 131.928710938 1355.75488281 l 5,43,-1
 301.625 1413.81054688 l 5,44,-1
 338.5859375 1426.45507812 l 5,45,-1
 352.102539062 1389.8046875 l 6,46,47
 371 1339 371 1339 436.58203125 1145.38378906 c 6,48,-1
 438.372070312 1140.30957031 l 5,49,50
 487 1260 487 1260 573.454101562 1330.78027344 c 4,51,52
 693 1430 693 1430 858.190429688 1429.43164062 c 4,53,54
 923 1429 923 1429 984.041015625 1416.03808594 c 132,-1,55
 1045.14366747 1402.96927198 1045.14366747 1402.96927198 1102.82714844 1376.86425781 c 6,56,-1
 1133.21875 1363.11035156 l 5,57,-1
 1125.14648438 1330.74316406 l 5,0,-1
EndSplineSet
EndChar

StartChar: uni06F5
Encoding: 1781 1781 91
GlifName: uni06F_5
Width: 1328
VWidth: 2992
GlyphClass: 2
Flags: W
LayerCount: 2
Fore
SplineSet
323.965820312 379.413085938 m 0,0,1
 324 278 324 278 398.056640625 277.844726562 c 0,2,3
 449 278 449 278 493.784179688 345.067382812 c 0,4,5
 539.011245276 412.016646292 539.011245276 412.016646292 570.584960938 560.881835938 c 2,6,-1
 577.314453125 592.610351562 l 1,7,-1
 767.818359375 592.44921875 l 1,8,-1
 773.459960938 559.162109375 l 2,9,10
 799 409 799 409 842.427734375 341.2890625 c 0,11,12
 886 274 886 274 939.26171875 274.079101562 c 0,13,14
 1004 274 1004 274 1003.97851562 379.678710938 c 0,15,16
 1004 595 1004 595 633.073242188 979.283203125 c 5,17,18
 324 561 324 561 323.965820312 379.413085938 c 0,0,1
383.447265625 11.9833984375 m 0,19,20
 69 12 69 12 68.9842727008 369.266601562 c 0,21,22
 69 657 69 657 442.087890625 1166.84082031 c 5,23,-1
 384.52734375 1220.72070312 l 5,24,-1
 559.745117188 1434.83203125 l 5,25,-1
 716.48828125 1286.140625 l 6,26,27
 1264 767 1264 767 1259.44238281 389.233398438 c 0,28,29
 1255 12 1255 12 954.297851562 11.943359375 c 0,30,31
 770 12 770 12 673.119140625 184.276367188 c 1,32,33
 579 12 579 12 383.447265625 11.9833984375 c 0,19,20
EndSplineSet
EndChar

StartChar: uni06F6
Encoding: 1782 1782 92
GlifName: uni06F_6
Width: 1124
VWidth: 2992
GlyphClass: 2
Flags: W
LayerCount: 2
Fore
SplineSet
645.937900969 1150.50982641 m 0,0,1
 598.166340637 1150.50982641 598.166340637 1150.50982641 555.870117188 1146.3359375 c 0,2,3
 354.048760161 1122.60168177 354.048760161 1122.60168177 351.594726562 963.76953125 c 0,4,5
 352 885 352 885 418.25 843.40625 c 0,6,7
 501 792 501 792 647.400390625 790.4140625 c 1,8,9
 884 914 884 914 1011.65820312 946.467773438 c 1,10,-1
 1013.84570312 893.4140625 l 1,11,-1
 1021.52246094 707.28515625 l 1,12,-1
 1022.63476562 680.318359375 l 1,13,14
 588 466 588 466 341.008789062 -38.2138671875 c 1,15,-1
 305.55078125 -26.3388671875 l 1,16,-1
 136.307617188 30.34375 l 1,17,-1
 96.5302734375 43.666015625 l 1,18,19
 196 300 196 300 442.178710938 566.385742188 c 1,20,21
 267 600 267 600 175.958984375 705.513671875 c 0,22,23
 87.7235587736 808.1582813 87.7235587736 808.1582813 87.7235587736 976.287966503 c 0,24,25
 87.7235587736 1025.87184256 87.7235587736 1025.87184256 99.1396484375 1072.4609375 c 0,26,27
 110 1118 110 1118 130.499023438 1160.05761719 c 0,28,29
 209 1320 209 1320 375.186523438 1379.23144531 c 0,30,31
 477.277383002 1416.03076494 477.277383002 1416.03076494 608.981162513 1416.03076494 c 0,32,33
 690.953563542 1416.03076494 690.953563542 1416.03076494 823.682617188 1395.78222656 c 5,34,-1
 817.946289062 1356.45800781 l 5,35,-1
 792.080078125 1179.14941406 l 5,36,-1
 786.579101562 1141.44238281 l 5,37,38
 692.789618387 1150.50982641 692.789618387 1150.50982641 645.937900969 1150.50982641 c 0,0,1
EndSplineSet
EndChar

StartChar: uniFB57
Encoding: 64343 64343 97
GlifName: uniF_B_57
Width: 1981
VWidth: 2703
GlyphClass: 2
Flags: W
AnchorPoint: "Anchor-10" 943.021 1374.3 basechar 0
AnchorPoint: "Anchor-7" 919.158 -928.082 basechar 0
LayerCount: 2
Fore
SplineSet
1096 -862 m 1048
EndSplineSet
Refer: 267 -1 N 1.07 0 0 1.07 655.972 -425.637 2
Refer: 268 -1 N 1 0 0 1 0 0 2
EndChar

StartChar: uniFB8F
Encoding: 64399 64399 107
GlifName: uniF_B_8F_
Width: 2029
VWidth: 2992
GlyphClass: 2
Flags: W
AnchorPoint: "Anchor-10" 743.878 1414.89 basechar 0
AnchorPoint: "Anchor-7" 750.268 -196.468 basechar 0
LayerCount: 2
Fore
SplineSet
859.911132812 0 m 2,0,1
 470 0 470 0 264.72265625 120.461914062 c 0,2,3
 59 241 59 241 59.16015625 485.856445312 c 0,4,5
 59.0004455379 637.576752535 59.0004455379 637.576752535 127.181640625 789.192382812 c 2,6,-1
 143.232421875 824.884765625 l 1,7,-1
 179.267578125 809.616210938 l 1,8,-1
 341.0390625 741.071289062 l 1,9,-1
 376.943359375 725.858398438 l 1,10,-1
 362.649414062 689.579101562 l 2,11,12
 322 587 322 587 322.432617188 511.497070312 c 0,13,14
 324.001183605 269.817634057 324.001183605 269.817634057 860.452148438 269.215820312 c 2,15,-1
 1058.92578125 268.993164062 l 2,16,17
 1173 269 1173 269 1257.4296875 278.838867188 c 0,18,19
 1342 289 1342 289 1389.62011719 306.438476562 c 0,20,21
 1437 324 1437 324 1459.63574219 344.197265625 c 0,22,23
 1482 364 1482 364 1483.30078125 387.560546875 c 0,24,25
 1484 400 1484 400 1472.41308594 423.350585938 c 0,26,27
 1461 447 1461 447 1431.27832031 487.676757812 c 0,28,29
 1402.8845678 526.781738801 1402.8845678 526.781738801 1358.3828125 573.854492188 c 2,30,-1
 1112.48828125 833.955078125 l 2,31,32
 1085 863 1085 863 1065.9453125 895.266601562 c 0,33,34
 1047 928 1047 928 1036.39257812 963.287109375 c 0,35,36
 1026 999 1026 999 1024.64160156 1036.83789062 c 0,37,38
 1023 1091 1023 1091 1041.67675781 1136.39648438 c 0,39,40
 1061 1182 1061 1182 1097.80859375 1215.31835938 c 128,-1,41
 1134.75891305 1248.78166451 1134.75891305 1248.78166451 1189.09472656 1270.19824219 c 2,42,-1
 1902.36425781 1551.33496094 l 1,43,-1
 1957.03222656 1572.88183594 l 1,44,-1
 1957.03222656 1514.12109375 l 1,45,-1
 1957.03222656 1319.47167969 l 1,46,-1
 1957.03222656 1292.11230469 l 1,47,-1
 1931.53417969 1282.19335938 l 1,48,-1
 1291.53320312 1033.22460938 l 1,49,-1
 1832.67871094 421.362304688 l 2,50,51
 1900 345 1900 345 1950.10351562 307.443359375 c 0,52,53
 2001.00905033 268.993164062 2001.00905033 268.993164062 2020.54101562 268.993164062 c 2,54,-1
 2036.859375 268.993164062 l 2,55,56
 2096.95019531 268.999994339 2096.95019531 268.999994339 2096.95019531 147.174804688 c 2,57,-1
 2096.95019531 128.3203125 l 2,58,59
 2097 0 2097 0 2035.87207031 0 c 6,60,-1
 2020.43359375 0 l 2,61,62
 1845 0 1845 0 1679.64648438 194.903320312 c 1,63,64
 1613 93 1613 93 1458.26074219 46.5068359375 c 0,65,66
 1303 0 1303 0 1059.68945312 0 c 2,67,-1
 859.911132812 0 l 2,0,1
EndSplineSet
EndChar

StartChar: uniFB9F
Encoding: 64415 64415 115
GlifName: uniF_B_9F_
Width: 1549
VWidth: 2992
GlyphClass: 2
Flags: W
AnchorPoint: "Anchor-10" 703.458 1406.61 basechar 0
AnchorPoint: "Anchor-7" 595.902 -760.086 basechar 0
LayerCount: 2
Fore
SplineSet
1405.39941406 25.5029296875 m 1,0,1
 1391.97851562 -84.02734375 1391.97851562 -84.02734375 1339.98339844 -194.182617188 c 0,2,3
 1180.15722656 -527.015625 1180.15722656 -527.015625 707.327148438 -526.724609375 c 0,4,5
 391.377929688 -526.868164062 391.377929688 -526.868164062 226.629882812 -372.416992188 c 128,-1,6
 61.8828125 -217.96484375 61.8828125 -217.96484375 61.7529296875 81.0595703125 c 0,7,8
 62.009765625 293.97265625 62.009765625 293.97265625 166.068359375 545.420898438 c 2,9,-1
 181.209960938 582.0078125 l 1,10,-1
 217.94921875 567.23828125 l 1,11,-1
 380.469726562 501.900390625 l 1,12,-1
 417.341796875 487.076171875 l 1,13,-1
 402.7578125 450.108398438 l 2,14,15
 322.213867188 245.936523438 322.213867188 245.936523438 322.268554688 82.4775390625 c 0,16,17
 322.396484375 -94.9384765625 322.396484375 -94.9384765625 416.7109375 -179.0234375 c 128,-1,18
 511.025390625 -263.107421875 511.025390625 -263.107421875 714.401367188 -263.203125 c 0,19,20
 939.455078125 -263.107421875 939.455078125 -263.107421875 1045.109375 -164.321289062 c 128,-1,21
 1150.76269531 -65.5361328125 1150.76269531 -65.5361328125 1150.5546875 141.961914062 c 0,22,23
 1150.97753906 316.815429688 1150.97753906 316.815429688 1064.49023438 494.2421875 c 2,24,-1
 1044.77441406 534.689453125 l 1,25,-1
 1087.25292969 549.530273438 l 1,26,-1
 1259.89453125 609.84765625 l 1,27,-1
 1298.43359375 623.3125 l 1,28,-1
 1311.11035156 584.5078125 l 1,29,-1
 1384.29882812 360.4765625 l 2,30,31
 1394.40332031 329.413085938 1394.40332031 329.413085938 1412.83105469 309.654296875 c 128,-1,32
 1431.25976562 289.896484375 1431.25976562 289.896484375 1462.4765625 279.447265625 c 128,-1,33
 1493.69335938 268.999023438 1493.69335938 268.999023438 1539.02050781 268.999023438 c 2,34,-1
 1558.1328125 268.999023438 l 2,35,36
 1570.44433594 269 1570.44433594 269 1580.1953125 264.965820312 c 128,-1,37
 1589.94628906 260.931640625 1589.94628906 260.931640625 1596.22167969 255.803710938 c 128,-1,38
 1602.49707031 250.67578125 1602.49707031 250.67578125 1606.97851562 240.419921875 c 128,-1,39
 1611.45898438 230.1640625 1611.45898438 230.1640625 1613.69042969 223.416015625 c 128,-1,40
 1615.92285156 216.66796875 1615.92285156 216.66796875 1617.09472656 203.3203125 c 128,-1,41
 1618.26757812 189.971679688 1618.26757812 189.971679688 1618.41796875 184.732421875 c 128,-1,42
 1618.56835938 179.494140625 1618.56835938 179.494140625 1618.39355469 166.182617188 c 128,-1,43
 1618.21875 152.870117188 1618.21875 152.870117188 1618.21875 151.889648438 c 2,44,-1
 1618.21875 128.26171875 l 2,45,46
 1618.20898438 124.21875 1618.20898438 124.21875 1618.43066406 114.577148438 c 0,47,48
 1621.06933594 -0 1621.06933594 -0 1558.13671875 -0 c 2,49,-1
 1543.41894531 0 l 2,50,51
 1463.26074219 0 1463.26074219 0 1405.39941406 25.5029296875 c 1,0,1
EndSplineSet
EndChar

StartChar: uniFBE8
Encoding: 64488 64488 118
GlifName: uniF_B_E_8
Width: 646
VWidth: 2992
GlyphClass: 2
Flags: W
AnchorPoint: "Anchor-10" 311.384 1393 basechar 0
AnchorPoint: "Anchor-7" 303.422 -183.625 basechar 0
LayerCount: 2
Fore
SplineSet
68.673828125 0 m 2,0,-1
 -6.9384765625 0 l 2,1,2
 -61.728515625 0 -61.728515625 0 -93.2529296875 35.75390625 c 128,-1,3
 -124.778320312 71.5078125 -124.778320312 71.5078125 -124.778320312 128.313476562 c 2,4,-1
 -124.778320312 147.123046875 l 2,5,6
 -124.875 182.892578125 -124.875 182.892578125 -110.651367188 210.474609375 c 128,-1,7
 -96.427734375 238.056640625 -96.427734375 238.056640625 -69.5283203125 253.525390625 c 128,-1,8
 -42.6279296875 268.993164062 -42.6279296875 268.993164062 -6.9384765625 268.993164062 c 2,9,-1
 68.6826171875 268.993164062 l 2,10,11
 213.823242188 268.999023438 213.823242188 268.999023438 261.611328125 295.83203125 c 0,12,13
 327.0390625 334.44921875 327.0390625 334.44921875 327.221679688 445.030273438 c 0,14,15
 327.168945312 473.2421875 327.168945312 473.2421875 324.932617188 503.24609375 c 128,-1,16
 322.697265625 533.249023438 322.697265625 533.249023438 318.265625 565.109375 c 128,-1,17
 313.833984375 596.969726562 313.833984375 596.969726562 307.143554688 630.733398438 c 128,-1,18
 300.454101562 664.49609375 300.454101562 664.49609375 291.549804688 699.869140625 c 2,19,-1
 281.728515625 738.883789062 l 1,20,-1
 320.799804688 748.479492188 l 1,21,-1
 487.884765625 789.513671875 l 1,22,-1
 524.40625 798.483398438 l 1,23,-1
 535.609375 762.583007812 l 2,24,25
 585.990234375 601.125976562 585.990234375 601.125976562 586.223632812 448.338867188 c 0,26,27
 585.98046875 199.916015625 585.98046875 199.916015625 437.455078125 89.16796875 c 0,28,29
 318.310546875 0 318.310546875 0 68.673828125 0 c 2,0,-1
EndSplineSet
EndChar

StartChar: uniFBE9
Encoding: 64489 64489 119
GlifName: uniF_B_E_9
Width: 717
VWidth: 2992
GlyphClass: 2
Flags: W
AnchorPoint: "Anchor-10" 315.665 1337.09 basechar 0
AnchorPoint: "Anchor-7" 350.537 -137.742 basechar 0
LayerCount: 2
Fore
SplineSet
784.731445312 128.340820312 m 2,0,1
 784.731445312 0 784.731445312 0 724.650390625 0 c 2,2,-1
 715.006835938 0 l 2,3,4
 530.043945312 0 530.043945312 0 438.329101562 114.435546875 c 1,5,6
 322.857421875 0 322.857421875 0 95.759765625 0 c 2,7,-1
 -8.1171875 0 l 2,8,9
 -62.5302734375 0 -62.5302734375 0 -93.654296875 35.8515625 c 128,-1,10
 -124.778320312 71.703125 -124.778320312 71.703125 -124.778320312 128.313476562 c 2,11,-1
 -124.778320312 147.1328125 l 2,12,13
 -124.924804688 201.334960938 -124.924804688 201.334960938 -93.2587890625 235.1640625 c 128,-1,14
 -61.5927734375 268.993164062 -61.5927734375 268.993164062 -8.1171875 268.993164062 c 2,15,-1
 91.01171875 268.993164062 l 2,16,17
 288.982421875 268.999023438 288.982421875 268.999023438 307.249023438 363.625976562 c 0,18,19
 312.950332866 394.400066908 312.950332866 394.400066908 313.291992188 439.203125 c 4,20,21
 312.967061449 473.460908941 312.967061449 473.460908941 310.12109375 510.62890625 c 2,22,-1
 304.630859375 582.384765625 l 1,23,-1
 301.870117188 618.471679688 l 1,24,-1
 337.501953125 624.817382812 l 1,25,-1
 502.30859375 654.165039062 l 1,26,-1
 545.849609375 661.91796875 l 1,27,-1
 549.206054688 617.819335938 l 1,28,-1
 565.275390625 406.678710938 l 2,29,30
 571.014648438 333.028320312 571.014648438 333.028320312 606.069335938 301.010742188 c 128,-1,31
 641.123046875 268.993164062 641.123046875 268.993164062 716.57421875 268.993164062 c 2,32,-1
 724.637695312 268.993164062 l 2,33,34
 784.731445312 269.013248872 784.731445312 269.013248872 784.731445312 138.322265625 c 2,35,-1
 784.731445312 128.340820312 l 2,0,1
EndSplineSet
EndChar

StartChar: uniFE73
Encoding: 65139 65139 127
GlifName: uniF_E_73
Width: 742
VWidth: 2992
GlyphClass: 2
Flags: W
AnchorPoint: "Anchor-10" 274.943 1758.47 basechar 0
AnchorPoint: "Anchor-7" 274.943 -132.304 basechar 0
LayerCount: 2
Fore
SplineSet
410.336914062 496.018554688 m 2,0,1
 410.336914062 456.864257812 410.336914062 456.864257812 427.306640625 420.217773438 c 0,2,3
 444.9921875 382.02734375 444.9921875 382.02734375 481.14453125 345.875976562 c 0,4,5
 496.466796875 330.55078125 496.466796875 330.55078125 516.348632812 318.969726562 c 0,6,7
 536.827148438 307.038085938 536.827148438 307.038085938 562.208007812 299.004882812 c 0,8,9
 566.487304688 297.650390625 566.487304688 297.650390625 570.907226562 296.405273438 c 128,-1,10
 575.326171875 295.159179688 575.326171875 295.159179688 579.9296875 294.013671875 c 128,-1,11
 584.533203125 292.8671875 584.533203125 292.8671875 589.271484375 291.833984375 c 0,12,13
 603.638671875 288.704101562 603.638671875 288.704101562 619.268554688 286.606445312 c 0,14,15
 651.055664062 282.342773438 651.055664062 282.342773438 688.00390625 282.342773438 c 2,16,-1
 758.674804688 282.342773438 l 1,17,-1
 798.674804688 282.342773438 l 1,18,-1
 798.674804688 242.342773438 l 1,19,-1
 798.674804688 51.5537109375 l 1,20,-1
 798.674804688 11.5537109375 l 1,21,-1
 758.674804688 11.5537109375 l 1,22,-1
 608.006835938 11.5537109375 l 2,23,24
 400.821289062 11.5537109375 400.821289062 11.5537109375 266.546875 145.827148438 c 0,25,26
 139.544921875 272.830078125 139.544921875 272.830078125 139.544921875 478.563476562 c 2,27,-1
 139.544921875 502.69140625 l 1,28,-1
 139.544921875 542.69140625 l 1,29,-1
 179.544921875 542.69140625 l 1,30,-1
 370.336914062 542.69140625 l 1,31,-1
 410.336914062 542.69140625 l 1,32,-1
 410.336914062 502.69140625 l 1,33,-1
 410.336914062 496.018554688 l 2,0,1
EndSplineSet
EndChar

StartChar: uniFE8E
Encoding: 65166 65166 153
GlifName: uniF_E_8E_
Width: 581
VWidth: 2992
GlyphClass: 2
Flags: W
AnchorPoint: "Anchor-10" 256.697 1633.11 basechar 0
AnchorPoint: "Anchor-7" 316.078 -199.903 basechar 0
LayerCount: 2
Fore
SplineSet
648.618164062 128.653320312 m 1,0,1
 651 0 651 0 588.537109375 0 c 2,2,-1
 567.658203125 0 l 2,3,4
 351 0 351 0 237.506835938 123.069335938 c 0,5,6
 124.283203125 245.693284127 124.283203125 245.693284127 124.283203125 478.395507812 c 2,7,-1
 124.283203125 1468.171875 l 1,8,-1
 383.598632812 1468.171875 l 1,9,-1
 383.598632812 480.515625 l 2,10,11
 384 368 384 368 428.530273438 318.3125 c 0,12,13
 473.006164609 268.993164062 473.006164609 268.993164062 570.712890625 268.993164062 c 2,14,-1
 588.524414062 268.993164062 l 2,15,16
 648.618164062 268.999956839 648.618164062 268.999956839 648.618164062 147.174804688 c 2,17,-1
 648.618164062 128.653320312 l 1,0,1
EndSplineSet
EndChar

StartChar: uniFEA2
Encoding: 65186 65186 173
GlifName: uniF_E_A_2
Width: 1366
VWidth: 2992
GlyphClass: 2
Flags: W
AnchorPoint: "Anchor-10" 633.478 1406.07 basechar 0
AnchorPoint: "Anchor-7" 536.833 -882.619 basechar 0
LayerCount: 2
Fore
SplineSet
720.702148438 648.477539062 m 1,0,1
 534 724 534 724 469.58203125 723.6875 c 0,2,3
 376.093173334 723.999688865 376.093173334 723.999688865 315.234375 645.607421875 c 2,4,-1
 267.182617188 583.711914062 l 1,5,-1
 44.9541015625 693.424804688 l 1,6,-1
 84.220703125 758.26953125 l 2,7,8
 226 992 226 992 471.779296875 991.841796875 c 0,9,10
 607 992 607 992 792.490234375 901.999023438 c 0,11,12
 1100.07532641 753.480775894 1100.07532641 753.480775894 1259.6171875 746.655273438 c 2,13,-1
 1300.7734375 744.89453125 l 1,14,-1
 1282.32617188 489.6015625 l 1,15,-1
 1247.95996094 486.9765625 l 2,16,17
 1160 480 1160 480 1090.63476562 471.35546875 c 1,18,19
 1098 366 1098 366 1158.91894531 316.799804688 c 0,20,21
 1220.2005899 267.839741667 1220.2005899 267.839741667 1350.24609375 269.059570312 c 2,22,-1
 1373.98339844 269.282226562 l 6,23,24
 1433.97851562 269.999743056 1433.97851562 269.999743056 1433.97851562 152.889648438 c 2,25,-1
 1433.97851562 129.321289062 l 2,26,27
 1434 0 1434 0 1373.8984375 0 c 2,28,-1
 1351.49511719 0 l 2,29,30
 1122 0 1122 0 995.40234375 108.130859375 c 0,31,32
 869 216 869 216 857.291015625 424.067382812 c 1,33,34
 315 271 315 271 315.249023438 -109.3046875 c 0,35,36
 315 -442 315 -442 798.444335938 -442.150390625 c 0,37,38
 1008 -442 1008 -442 1238.67675781 -336.518554688 c 1,39,-1
 1291 -596 l 1,40,41
 1075 -701 1075 -701 791.533203125 -701.249023438 c 0,42,43
 387 -701 387 -701 199.650390625 -499.484375 c 0,44,45
 60 -349 60 -349 59.98046875 -124.543945312 c 0,46,47
 60 165 60 165 227.7421875 359.846679688 c 0,48,49
 395 555 395 555 720.702148438 648.477539062 c 1,0,1
EndSplineSet
EndChar

StartChar: uniFEA3
Encoding: 65187 65187 174
GlifName: uniF_E_A_3
Width: 1337
VWidth: 2992
GlyphClass: 2
Flags: W
AnchorPoint: "Anchor-10" 581.825 1412.07 basechar 0
AnchorPoint: "Anchor-7" 513.524 -194.745 basechar 0
LayerCount: 2
Fore
SplineSet
-6.9384765625 0 m 2,0,1
 -61.728515625 0 -61.728515625 0 -93.2529296875 35.75390625 c 128,-1,2
 -124.778320312 71.5078125 -124.778320312 71.5078125 -124.778320312 128.313476562 c 2,3,-1
 -124.778320312 147.1328125 l 2,4,5
 -124.92578125 201.53125 -124.92578125 201.53125 -92.8662109375 235.265625 c 128,-1,6
 -60.806640625 268.999023438 -60.806640625 268.999023438 -6.9384765625 268.999023438 c 2,7,-1
 52.54296875 268.999023438 l 2,8,9
 380.485351562 269 380.485351562 269 844.100585938 507.005859375 c 1,10,11
 792.708007812 527.21484375 792.708007812 527.21484375 711.897460938 559.967773438 c 0,12,13
 523.3359375 635.961914062 523.3359375 635.961914062 460.35546875 635.657226562 c 0,14,15
 412.086914062 635.802734375 412.086914062 635.802734375 374.3515625 616.895507812 c 128,-1,16
 336.615234375 597.987304688 336.615234375 597.987304688 305.243164062 557.578125 c 2,17,-1
 277.21484375 521.475585938 l 1,18,-1
 257.19140625 495.682617188 l 1,19,-1
 227.912109375 510.137695312 l 1,20,-1
 74.0517578125 586.09765625 l 1,21,-1
 34.962890625 605.395507812 l 1,22,-1
 57.54296875 642.684570312 l 1,23,-1
 74.2509765625 670.274414062 l 2,24,25
 215.435546875 902.91796875 215.435546875 902.91796875 461.23046875 903.8125 c 0,26,27
 530.552734375 903.915039062 530.552734375 903.915039062 610.44921875 881.329101562 c 128,-1,28
 690.346679688 858.744140625 690.346679688 858.744140625 782.5 813.96875 c 0,29,30
 1087.03417969 665.606445312 1087.03417969 665.606445312 1249.6328125 658.625 c 2,31,-1
 1288.30859375 656.96484375 l 1,32,-1
 1287.91503906 618.255859375 l 1,33,-1
 1286.08984375 438.586914062 l 1,34,-1
 1285.72070312 402.283203125 l 1,35,-1
 1249.55175781 399.143554688 l 2,36,37
 1142.49609375 389.84765625 1142.49609375 389.84765625 840.33203125 230.764648438 c 0,38,39
 402.904296875 0 402.904296875 0 40.767578125 0 c 2,40,-1
 -6.9384765625 0 l 2,0,1
EndSplineSet
EndChar

StartChar: uniFEA4
Encoding: 65188 65188 175
GlifName: uniF_E_A_4
Width: 1351
VWidth: 2992
GlyphClass: 2
Flags: W
AnchorPoint: "Anchor-7" 513.524 -194.745 basechar 0
AnchorPoint: "Anchor-10" 581.825 1412.07 basechar 0
LayerCount: 2
Fore
SplineSet
843.985351562 506.947265625 m 1,0,1
 792.702148438 527.137695312 792.702148438 527.137695312 711.881835938 559.974609375 c 0,2,3
 523.3359375 635.961914062 523.3359375 635.961914062 460.35546875 635.657226562 c 0,4,5
 412.086914062 635.802734375 412.086914062 635.802734375 374.3515625 616.895507812 c 128,-1,6
 336.615234375 597.987304688 336.615234375 597.987304688 305.243164062 557.578125 c 2,7,-1
 277.21484375 521.475585938 l 1,8,-1
 257.19140625 495.682617188 l 1,9,-1
 227.912109375 510.137695312 l 1,10,-1
 74.0517578125 586.09765625 l 1,11,-1
 34.962890625 605.395507812 l 1,12,-1
 57.54296875 642.684570312 l 1,13,-1
 74.2509765625 670.274414062 l 2,14,15
 215.435546875 902.91796875 215.435546875 902.91796875 461.23046875 903.8125 c 0,16,17
 530.552734375 903.915039062 530.552734375 903.915039062 610.44921875 881.329101562 c 128,-1,18
 690.346679688 858.744140625 690.346679688 858.744140625 782.5 813.96875 c 0,19,20
 1087.03417969 665.606445312 1087.03417969 665.606445312 1249.6328125 658.625 c 2,21,-1
 1288.30859375 656.96484375 l 1,22,-1
 1287.91503906 618.255859375 l 1,23,-1
 1286.08984375 438.586914062 l 1,24,-1
 1285.72265625 402.422851562 l 1,25,-1
 1249.70410156 399.15625 l 2,26,27
 1196.62402344 394.34375 1196.62402344 394.34375 1073.6640625 342.85546875 c 1,28,29
 1088.67773438 311.58203125 1088.67773438 311.58203125 1156.29785156 290.430664062 c 128,-1,30
 1223.91699219 269.279296875 1223.91699219 269.279296875 1346.61132812 269.279296875 c 2,31,-1
 1360.66894531 269.279296875 l 2,32,33
 1372.96484375 269.112304688 1372.96484375 269.112304688 1382.69335938 265.005859375 c 128,-1,34
 1392.42089844 260.899414062 1392.42089844 260.899414062 1398.67773438 255.700195312 c 128,-1,35
 1404.93554688 250.500976562 1404.93554688 250.500976562 1409.39355469 240.349609375 c 128,-1,36
 1413.8515625 230.198242188 1413.8515625 230.198242188 1416.06640625 223.372070312 c 128,-1,37
 1418.28125 216.545898438 1418.28125 216.545898438 1419.43554688 203.393554688 c 128,-1,38
 1420.59082031 190.240234375 1420.59082031 190.240234375 1420.72949219 184.831054688 c 128,-1,39
 1420.86914062 179.421875 1420.86914062 179.421875 1420.6875 166.311523438 c 128,-1,40
 1420.50585938 153.201171875 1420.50585938 153.201171875 1420.50585938 151.889648438 c 2,41,-1
 1420.50585938 128.439453125 l 2,42,43
 1420.51464844 126.919921875 1420.51464844 126.919921875 1420.98339844 109.802734375 c 128,-1,44
 1421.45214844 92.685546875 1421.45214844 92.685546875 1421.00097656 85.595703125 c 128,-1,45
 1420.54980469 78.5068359375 1420.54980469 78.5068359375 1419.20605469 62.3330078125 c 128,-1,46
 1417.86328125 46.1591796875 1417.86328125 46.1591796875 1413.73632812 37.876953125 c 128,-1,47
 1409.61035156 29.59375 1409.61035156 29.59375 1403.2734375 19.318359375 c 128,-1,48
 1396.9375 9.04296875 1396.9375 9.04296875 1385.95507812 4.521484375 c 128,-1,49
 1374.97265625 0 1374.97265625 0 1360.42773438 0 c 2,50,-1
 1341.09667969 0 l 2,51,52
 1149.05273438 0 1149.05273438 0 1029.7109375 61.3818359375 c 128,-1,53
 910.370117188 122.763671875 910.370117188 122.763671875 874.984375 248.848632812 c 1,54,55
 865.448242188 243.924804688 865.448242188 243.924804688 857.4921875 239.772460938 c 128,-1,56
 849.537109375 235.620117188 849.537109375 235.620117188 840.346679688 230.772460938 c 0,57,58
 402.904296875 0 402.904296875 0 40.767578125 0 c 2,59,-1
 -6.9384765625 0 l 2,60,61
 -61.728515625 0 -61.728515625 0 -93.2529296875 35.75390625 c 128,-1,62
 -124.778320312 71.5078125 -124.778320312 71.5078125 -124.778320312 128.313476562 c 2,63,-1
 -124.778320312 147.1328125 l 2,64,65
 -124.92578125 201.53125 -124.92578125 201.53125 -92.8662109375 235.265625 c 128,-1,66
 -60.806640625 268.999023438 -60.806640625 268.999023438 -6.9384765625 268.999023438 c 2,67,-1
 52.54296875 268.999023438 l 2,68,69
 380.485351562 269 380.485351562 269 843.985351562 506.947265625 c 1,0,1
EndSplineSet
EndChar

StartChar: uniFEAA
Encoding: 65194 65194 181
GlifName: uniF_E_A_A_
Width: 1121
VWidth: 2992
GlyphClass: 2
Flags: W
AnchorPoint: "Anchor-7" 437.24 -199.316 basechar 0
AnchorPoint: "Anchor-10" 598.848 1421.53 basechar 0
LayerCount: 2
Fore
SplineSet
387.54296875 0.8193359375 m 0,0,1
 250.273325204 0.999640984616 250.273325204 0.999640984616 94.7099609375 30.2294921875 c 2,2,-1
 62.0966796875 36.357421875 l 1,3,-1
 62.0966796875 69.5419921875 l 1,4,-1
 62.0966796875 259.252929688 l 1,5,-1
 62.0966796875 308.481445312 l 1,6,-1
 110.283203125 298.40625 l 2,7,8
 246 270 246 270 392.989257812 270.068359375 c 0,9,10
 476 270 476 270 535.64453125 278.483398438 c 0,11,12
 596 287 596 287 627.506835938 301.619140625 c 0,13,14
 659 316 659 316 673.741210938 332.935546875 c 0,15,16
 688 350 688 350 688.088867188 369.048828125 c 0,17,18
 688 393 688 393 665.328125 463.192382812 c 0,19,20
 644.064477585 529.798032233 644.064477585 529.798032233 600.0625 632.678710938 c 2,21,-1
 467.22265625 943.270507812 l 1,22,-1
 451.905273438 979.084960938 l 1,23,-1
 487.299804688 995.346679688 l 1,24,-1
 651.931640625 1070.98828125 l 1,25,-1
 689.965820312 1088.46386719 l 1,26,-1
 705.69921875 1049.67578125 l 1,27,-1
 909.637695312 546.874023438 l 2,28,29
 968 402 968 402 1020.28222656 336.995117188 c 0,30,31
 1074.00540055 268.993164062 1074.00540055 268.993164062 1108.87988281 268.993164062 c 2,32,-1
 1128.50488281 268.993164062 l 2,33,34
 1188.59765625 268.999954535 1188.59765625 268.999954535 1188.59765625 147.174804688 c 2,35,-1
 1188.59765625 128.575195312 l 6,36,37
 1189 0 1189 0 1128.51757812 0 c 2,38,-1
 1108.53222656 0 l 2,39,40
 970 0 970 0 858.5 150.782226562 c 1,41,42
 805 100 805 100 733.609375 66.240234375 c 0,43,44
 662 33 662 33 576.494140625 16.8095703125 c 0,45,46
 491 1 491 1 387.54296875 0.8193359375 c 0,0,1
EndSplineSet
EndChar

StartChar: uniFEAE
Encoding: 65198 65198 185
GlifName: uniF_E_A_E_
Width: 914
VWidth: 2184
GlyphClass: 2
Flags: W
AnchorPoint: "Anchor-7" 364.969 -729.998 basechar 0
AnchorPoint: "Anchor-10" 459.256 1410.2 basechar 0
LayerCount: 2
Fore
SplineSet
676.399414062 583.248046875 m 1,0,-1
 743.176757812 364.295898438 l 2,1,2
 758.29296875 315.223632812 758.29296875 315.223632812 793.893554688 292.111328125 c 128,-1,3
 829.493164062 268.999023438 829.493164062 268.999023438 895.31640625 268.999023438 c 2,4,-1
 922.572265625 268.999023438 l 2,5,6
 934.865234375 269 934.865234375 269 944.604492188 264.969726562 c 128,-1,7
 954.344726562 260.938476562 954.344726562 260.938476562 960.615234375 255.850585938 c 128,-1,8
 966.88671875 250.762695312 966.88671875 250.762695312 971.366210938 240.499023438 c 128,-1,9
 975.846679688 230.235351562 975.846679688 230.235351562 978.08203125 223.567382812 c 128,-1,10
 980.317382812 216.8984375 980.317382812 216.8984375 981.494140625 203.524414062 c 128,-1,11
 982.670898438 190.150390625 982.670898438 190.150390625 982.826171875 185.0234375 c 128,-1,12
 982.981445312 179.897460938 982.981445312 179.897460938 982.810546875 166.534179688 c 128,-1,13
 982.638671875 153.170898438 982.638671875 153.170898438 982.638671875 152.322265625 c 2,14,-1
 982.638671875 128.291015625 l 2,15,16
 982.896484375 65.42578125 982.896484375 65.42578125 978.765625 48.310546875 c 0,17,18
 965.516601562 0.9697265625 965.516601562 0.9697265625 922.57421875 -0 c 2,19,-1
 905.80078125 0 l 2,20,21
 861.081054688 0 861.081054688 0 824.8671875 5.4912109375 c 128,-1,22
 788.653320312 10.982421875 788.653320312 10.982421875 760.301757812 22.6142578125 c 1,23,24
 717.875 -216.344726562 717.875 -216.344726562 534.005859375 -357.075195312 c 128,-1,25
 350.13671875 -497.806640625 350.13671875 -497.806640625 34.716796875 -539.8046875 c 2,26,-1
 -0.7021484375 -544.520507812 l 1,27,-1
 -9.3681640625 -509.85546875 l 1,28,-1
 -51.9365234375 -339.580078125 l 1,29,-1
 -62.7705078125 -296.2421875 l 1,30,-1
 -18.50390625 -290.241210938 l 2,31,32
 255.07421875 -253.15625 255.07421875 -253.15625 384.333984375 -140.553710938 c 128,-1,33
 513.594726562 -27.951171875 513.594726562 -27.951171875 513.25 163.279296875 c 0,34,35
 513.013671875 313.065429688 513.013671875 313.065429688 427.77734375 495.032226562 c 2,36,-1
 408.862304688 535.412109375 l 1,37,-1
 451.051757812 549.846679688 l 1,38,-1
 625.19140625 609.42578125 l 1,39,-1
 664.33203125 622.81640625 l 1,40,-1
 676.399414062 583.248046875 l 1,0,-1
EndSplineSet
PairPos2: "'kern' Horizontal Kerning lookup 15-2" uniFBFE dx=60 dy=0 dh=60 dv=0 dx=0 dy=0 dh=0 dv=0
PairPos2: "'kern' Horizontal Kerning lookup 15-1" uniFEE7 dx=-178 dy=0 dh=-178 dv=0 dx=0 dy=0 dh=0 dv=0
PairPos2: "'kern' Horizontal Kerning lookup 15-2" uniFB90 dx=-226 dy=0 dh=-226 dv=0 dx=0 dy=0 dh=0 dv=0
PairPos2: "'kern' Horizontal Kerning lookup 15-2" uniFB8E dx=-226 dy=0 dh=-226 dv=0 dx=0 dy=0 dh=0 dv=0
PairPos2: "'kern' Horizontal Kerning lookup 15-2" uni06A9 dx=-226 dy=0 dh=-226 dv=0 dx=0 dy=0 dh=0 dv=0
PairPos2: "'kern' Horizontal Kerning lookup 15-2" uni064A dx=-60 dy=0 dh=-60 dv=0 dx=0 dy=0 dh=0 dv=0
PairPos2: "'kern' Horizontal Kerning lookup 15-2" afii57414 dx=-60 dy=0 dh=-60 dv=0 dx=0 dy=0 dh=0 dv=0
PairPos2: "'kern' Horizontal Kerning lookup 15-2" uni0649 dx=-60 dy=0 dh=-60 dv=0 dx=0 dy=0 dh=0 dv=0
PairPos2: "'kern' Horizontal Kerning lookup 15-2" uniFEEB dx=-178 dy=0 dh=-178 dv=0 dx=0 dy=0 dh=0 dv=0
PairPos2: "'kern' Horizontal Kerning lookup 15-2" uni0647 dx=-178 dy=0 dh=-178 dv=0 dx=0 dy=0 dh=0 dv=0
PairPos2: "'kern' Horizontal Kerning lookup 15-2" uni0646 dx=-60 dy=0 dh=-60 dv=0 dx=0 dy=0 dh=0 dv=0
PairPos2: "'kern' Horizontal Kerning lookup 15-2" uniFEE3 dx=-178 dy=0 dh=-178 dv=0 dx=0 dy=0 dh=0 dv=0
PairPos2: "'kern' Horizontal Kerning lookup 15-2" uni0645 dx=-178 dy=0 dh=-178 dv=0 dx=0 dy=0 dh=0 dv=0
PairPos2: "'kern' Horizontal Kerning lookup 15-2" uniFEFB dx=-143 dy=0 dh=-143 dv=0 dx=0 dy=0 dh=0 dv=0
PairPos2: "'kern' Horizontal Kerning lookup 15-2" uniFEDF dx=-143 dy=0 dh=-143 dv=0 dx=0 dy=0 dh=0 dv=0
PairPos2: "'kern' Horizontal Kerning lookup 15-2" uni0644 dx=-60 dy=0 dh=-60 dv=0 dx=0 dy=0 dh=0 dv=0
PairPos2: "'kern' Horizontal Kerning lookup 15-2" uniFEDB dx=-226 dy=0 dh=-226 dv=0 dx=0 dy=0 dh=0 dv=0
PairPos2: "'kern' Horizontal Kerning lookup 15-2" uni0643 dx=-143 dy=0 dh=-143 dv=0 dx=0 dy=0 dh=0 dv=0
PairPos2: "'kern' Horizontal Kerning lookup 15-2" uniFED7 dx=-178 dy=0 dh=-178 dv=0 dx=0 dy=0 dh=0 dv=0
PairPos2: "'kern' Horizontal Kerning lookup 15-2" uni0642 dx=-60 dy=0 dh=-60 dv=0 dx=0 dy=0 dh=0 dv=0
PairPos2: "'kern' Horizontal Kerning lookup 15-2" uniFED3 dx=-178 dy=0 dh=-178 dv=0 dx=0 dy=0 dh=0 dv=0
PairPos2: "'kern' Horizontal Kerning lookup 15-2" uni0641 dx=-178 dy=0 dh=-178 dv=0 dx=0 dy=0 dh=0 dv=0
PairPos2: "'kern' Horizontal Kerning lookup 15-2" uniFECF dx=-178 dy=0 dh=-178 dv=0 dx=0 dy=0 dh=0 dv=0
PairPos2: "'kern' Horizontal Kerning lookup 15-2" uniFECB dx=-178 dy=0 dh=-178 dv=0 dx=0 dy=0 dh=0 dv=0
PairPos2: "'kern' Horizontal Kerning lookup 15-2" uniFEC7 dx=-178 dy=0 dh=-178 dv=0 dx=0 dy=0 dh=0 dv=0
PairPos2: "'kern' Horizontal Kerning lookup 15-2" uni0638 dx=-178 dy=0 dh=-178 dv=0 dx=0 dy=0 dh=0 dv=0
PairPos2: "'kern' Horizontal Kerning lookup 15-2" uniFEC3 dx=-178 dy=0 dh=-178 dv=0 dx=0 dy=0 dh=0 dv=0
PairPos2: "'kern' Horizontal Kerning lookup 15-2" uni0637 dx=-178 dy=0 dh=-178 dv=0 dx=0 dy=0 dh=0 dv=0
PairPos2: "'kern' Horizontal Kerning lookup 15-2" uniFEBF dx=-178 dy=0 dh=-178 dv=0 dx=0 dy=0 dh=0 dv=0
PairPos2: "'kern' Horizontal Kerning lookup 15-2" uni0636 dx=-178 dy=0 dh=-178 dv=0 dx=0 dy=0 dh=0 dv=0
PairPos2: "'kern' Horizontal Kerning lookup 15-2" uniFEBB dx=-178 dy=0 dh=-178 dv=0 dx=0 dy=0 dh=0 dv=0
PairPos2: "'kern' Horizontal Kerning lookup 15-2" uni0635 dx=-178 dy=0 dh=-178 dv=0 dx=0 dy=0 dh=0 dv=0
PairPos2: "'kern' Horizontal Kerning lookup 15-2" uniFEB7 dx=-178 dy=0 dh=-178 dv=0 dx=0 dy=0 dh=0 dv=0
PairPos2: "'kern' Horizontal Kerning lookup 15-2" uni0634 dx=-178 dy=0 dh=-178 dv=0 dx=0 dy=0 dh=0 dv=0
PairPos2: "'kern' Horizontal Kerning lookup 15-2" uniFEB3 dx=-178 dy=0 dh=-178 dv=0 dx=0 dy=0 dh=0 dv=0
PairPos2: "'kern' Horizontal Kerning lookup 15-2" uni0633 dx=-178 dy=0 dh=-178 dv=0 dx=0 dy=0 dh=0 dv=0
PairPos2: "'kern' Horizontal Kerning lookup 15-2" uni0630 dx=-178 dy=0 dh=-178 dv=0 dx=0 dy=0 dh=0 dv=0
PairPos2: "'kern' Horizontal Kerning lookup 15-2" uni062F dx=-178 dy=0 dh=-178 dv=0 dx=0 dy=0 dh=0 dv=0
PairPos2: "'kern' Horizontal Kerning lookup 15-2" uniFEA7 dx=-178 dy=0 dh=-178 dv=0 dx=0 dy=0 dh=0 dv=0
PairPos2: "'kern' Horizontal Kerning lookup 15-2" uniFEA3 dx=-178 dy=0 dh=-178 dv=0 dx=0 dy=0 dh=0 dv=0
PairPos2: "'kern' Horizontal Kerning lookup 15-2" uniFE9F dx=-178 dy=0 dh=-178 dv=0 dx=0 dy=0 dh=0 dv=0
PairPos2: "'kern' Horizontal Kerning lookup 15-2" uniFE9B dx=-178 dy=0 dh=-178 dv=0 dx=0 dy=0 dh=0 dv=0
PairPos2: "'kern' Horizontal Kerning lookup 15-2" uni062B dx=-178 dy=0 dh=-178 dv=0 dx=0 dy=0 dh=0 dv=0
PairPos2: "'kern' Horizontal Kerning lookup 15-2" uniFE97 dx=-178 dy=0 dh=-178 dv=0 dx=0 dy=0 dh=0 dv=0
PairPos2: "'kern' Horizontal Kerning lookup 15-2" uni062A dx=-178 dy=0 dh=-178 dv=0 dx=0 dy=0 dh=0 dv=0
PairPos2: "'kern' Horizontal Kerning lookup 15-2" uni0629 dx=-178 dy=0 dh=-178 dv=0 dx=0 dy=0 dh=0 dv=0
PairPos2: "'kern' Horizontal Kerning lookup 15-2" uni0628 dx=-178 dy=0 dh=-178 dv=0 dx=0 dy=0 dh=0 dv=0
PairPos2: "'kern' Horizontal Kerning lookup 15-2" uni0627 dx=-143 dy=0 dh=-143 dv=0 dx=0 dy=0 dh=0 dv=0
PairPos2: "'kern' Horizontal Kerning lookup 15-2" uni0623 dx=-143 dy=0 dh=-143 dv=0 dx=0 dy=0 dh=0 dv=0
PairPos2: "'kern' Horizontal Kerning lookup 15-2" uni0622 dx=-143 dy=0 dh=-143 dv=0 dx=0 dy=0 dh=0 dv=0
PairPos2: "'kern' Horizontal Kerning lookup 15-2" uni0621 dx=-178 dy=0 dh=-178 dv=0 dx=0 dy=0 dh=0 dv=0
PairPos2: "'kern' Horizontal Kerning lookup 15-2" uniFB94 dx=-226 dy=0 dh=-226 dv=0 dx=0 dy=0 dh=0 dv=0
PairPos2: "'kern' Horizontal Kerning lookup 15-2" uniFB92 dx=-226 dy=0 dh=-226 dv=0 dx=0 dy=0 dh=0 dv=0
PairPos2: "'kern' Horizontal Kerning lookup 15-2" uni06AF dx=-226 dy=0 dh=-226 dv=0 dx=0 dy=0 dh=0 dv=0
PairPos2: "'kern' Horizontal Kerning lookup 15-2" afii57506 dx=-178 dy=0 dh=-178 dv=0 dx=0 dy=0 dh=0 dv=0
PairPos2: "'kern' Horizontal Kerning lookup 15-2" afii57440 dx=-178 dy=0 dh=-178 dv=0 dx=0 dy=0 dh=0 dv=0
PairPos2: "'kern' Horizontal Kerning lookup 15-2" uniFE8B dx=-178 dy=0 dh=-178 dv=0 dx=0 dy=0 dh=0 dv=0
EndChar

StartChar: uniFEB2
Encoding: 65202 65202 189
GlifName: uniF_E_B_2
Width: 2589
VWidth: 2992
GlyphClass: 2
Flags: W
AnchorPoint: "Anchor-7" 595.902 -759.086 basechar 0
AnchorPoint: "Anchor-10" 1794.53 1418.1 basechar 0
LayerCount: 2
Fore
SplineSet
1371.05566406 399.318359375 m 2,0,1
 1393.01171875 331.490234375 1393.01171875 331.490234375 1436.72363281 300.265625 c 128,-1,2
 1480.43554688 269.041992188 1480.43554688 269.041992188 1554.08691406 269.073242188 c 0,3,4
 1634.68652344 269.041992188 1634.68652344 269.041992188 1668.33398438 300.806640625 c 128,-1,5
 1701.98144531 332.572265625 1701.98144531 332.572265625 1701.96777344 406.38671875 c 0,6,7
 1701.97363281 418.40234375 1701.97363281 418.40234375 1701.8984375 429.239257812 c 128,-1,8
 1701.82324219 440.076171875 1701.82324219 440.076171875 1701.67675781 449.141601562 c 128,-1,9
 1701.52929688 458.20703125 1701.52929688 458.20703125 1701.31347656 465.86328125 c 128,-1,10
 1701.09863281 473.51953125 1701.09863281 473.51953125 1700.82617188 479.426757812 c 128,-1,11
 1700.5546875 485.334960938 1700.5546875 485.334960938 1700.22753906 489.602539062 c 2,12,-1
 1694.73632812 561.362304688 l 1,13,-1
 1691.97558594 597.44921875 l 1,14,-1
 1727.60742188 603.794921875 l 1,15,-1
 1892.4140625 633.142578125 l 1,16,-1
 1935.95507812 640.895507812 l 1,17,-1
 1939.31152344 596.796875 l 1,18,-1
 1955.38574219 385.595703125 l 2,19,20
 1960.16015625 322.249023438 1960.16015625 322.249023438 1987.2265625 295.981445312 c 128,-1,21
 2014.29296875 269.713867188 2014.29296875 269.713867188 2073.21289062 269.520507812 c 0,22,23
 2100.82421875 269.610351562 2100.82421875 269.610351562 2120.33691406 277.3125 c 128,-1,24
 2139.84960938 285.013671875 2139.84960938 285.013671875 2154.22851562 302.958984375 c 128,-1,25
 2168.60839844 320.903320312 2168.60839844 320.903320312 2175.77441406 351.623046875 c 128,-1,26
 2182.94140625 382.342773438 2182.94140625 382.342773438 2183.51464844 427.275390625 c 0,27,28
 2183.59082031 434.353515625 2183.59082031 434.353515625 2183.50878906 441.643554688 c 128,-1,29
 2183.42675781 448.93359375 2183.42675781 448.93359375 2183.18554688 456.450195312 c 128,-1,30
 2182.94433594 463.966796875 2182.94433594 463.966796875 2182.54199219 471.701171875 c 128,-1,31
 2182.13964844 479.435546875 2182.13964844 479.435546875 2181.57714844 487.370117188 c 128,-1,32
 2181.015625 495.303710938 2181.015625 495.303710938 2180.28808594 503.463867188 c 128,-1,33
 2179.56152344 511.623046875 2179.56152344 511.623046875 2178.67382812 519.958007812 c 2,34,-1
 2173.25585938 570.834960938 l 1,35,-1
 2169.53417969 605.78515625 l 1,36,-1
 2203.71582031 613.970703125 l 1,37,-1
 2368.54394531 653.443359375 l 1,38,-1
 2413.34472656 664.171875 l 1,39,-1
 2417.68164062 618.30859375 l 1,40,-1
 2433.67480469 449.166015625 l 2,41,42
 2436.78222656 415.791992188 2436.78222656 415.791992188 2442.8671875 389.271484375 c 128,-1,43
 2448.95214844 362.75 2448.95214844 362.75 2458.18945312 342.840820312 c 128,-1,44
 2467.42675781 322.930664062 2467.42675781 322.930664062 2479.34863281 308.813476562 c 128,-1,45
 2491.27050781 294.696289062 2491.27050781 294.696289062 2506.71289062 285.900390625 c 128,-1,46
 2522.15527344 277.103515625 2522.15527344 277.103515625 2539.94433594 273.053710938 c 128,-1,47
 2557.73242188 269.004882812 2557.73242188 269.004882812 2579.3671875 269 c 2,48,-1
 2597.42871094 268.99609375 l 2,49,50
 2611.66210938 268.999023438 2611.66210938 268.999023438 2622.47363281 264.745117188 c 128,-1,51
 2633.28417969 260.490234375 2633.28417969 260.490234375 2639.59179688 250.419921875 c 128,-1,52
 2645.8984375 240.350585938 2645.8984375 240.350585938 2650.04882812 232.846679688 c 128,-1,53
 2654.19824219 225.34375 2654.19824219 225.34375 2655.66210938 209.370117188 c 128,-1,54
 2657.12597656 193.397460938 2657.12597656 193.397460938 2657.65917969 187.446289062 c 128,-1,55
 2658.19335938 181.495117188 2658.19335938 181.495117188 2657.859375 164.420898438 c 128,-1,56
 2657.52636719 147.345703125 2657.52636719 147.345703125 2657.52636719 147.1171875 c 2,57,-1
 2657.52636719 127.958984375 l 2,58,59
 2656.46191406 66.3642578125 2656.46191406 66.3642578125 2654.95605469 57.37890625 c 0,60,61
 2643.55371094 1.0869140625 2643.55371094 1.0869140625 2597.4453125 -0.056640625 c 2,62,-1
 2581.10839844 -0.056640625 l 2,63,64
 2405.04003906 -0.0068359375 2405.04003906 -0.0068359375 2328.17773438 103.912109375 c 1,65,66
 2241.62695312 -0 2241.62695312 -0 2082.5 0 c 0,67,68
 1996.88867188 0 1996.88867188 0 1931.40234375 27.56640625 c 128,-1,69
 1865.91503906 55.1328125 1865.91503906 55.1328125 1825.76660156 110.424804688 c 1,70,71
 1720.67871094 0.994140625 1720.67871094 0.994140625 1552.80175781 0.9189453125 c 0,72,73
 1511.34570312 0.9482421875 1511.34570312 0.9482421875 1474.23144531 7.755859375 c 128,-1,74
 1437.1171875 14.564453125 1437.1171875 14.564453125 1405.70703125 28.0751953125 c 1,75,76
 1392.70410156 -82.4892578125 1392.70410156 -82.4892578125 1340.05078125 -194.040039062 c 0,77,78
 1300.74511719 -277.575195312 1300.74511719 -277.575195312 1240.3515625 -340.43359375 c 128,-1,79
 1179.95703125 -403.291015625 1179.95703125 -403.291015625 1100.11523438 -444.484375 c 128,-1,80
 1020.2734375 -485.677734375 1020.2734375 -485.677734375 922.005859375 -506.236328125 c 128,-1,81
 823.737304688 -526.795898438 823.737304688 -526.795898438 707.33203125 -526.724609375 c 0,82,83
 391.379882812 -526.868164062 391.379882812 -526.868164062 226.631835938 -372.416992188 c 128,-1,84
 61.8828125 -217.96484375 61.8828125 -217.96484375 61.7529296875 81.0595703125 c 0,85,86
 62.009765625 293.97265625 62.009765625 293.97265625 166.068359375 545.420898438 c 2,87,-1
 181.209960938 582.0078125 l 1,88,-1
 217.94921875 567.23828125 l 1,89,-1
 380.469726562 501.900390625 l 1,90,-1
 417.341796875 487.076171875 l 1,91,-1
 402.7578125 450.108398438 l 2,92,93
 322.01171875 245.42578125 322.01171875 245.42578125 322.268554688 82.8779296875 c 0,94,95
 322.145507812 -94.4326171875 322.145507812 -94.4326171875 416.514648438 -178.76953125 c 128,-1,96
 510.884765625 -263.107421875 510.884765625 -263.107421875 714.36328125 -263.203125 c 0,97,98
 778.670898438 -263.17578125 778.670898438 -263.17578125 832.7890625 -255.13671875 c 128,-1,99
 886.90625 -247.09765625 886.90625 -247.09765625 931.626953125 -230.947265625 c 128,-1,100
 976.346679688 -214.795898438 976.346679688 -214.795898438 1011.48632812 -190.176757812 c 128,-1,101
 1046.625 -165.55859375 1046.625 -165.55859375 1072.75683594 -132.686523438 c 128,-1,102
 1098.88867188 -99.8154296875 1098.88867188 -99.8154296875 1116.0625 -57.998046875 c 128,-1,103
 1133.23632812 -16.1806640625 1133.23632812 -16.1806640625 1141.79296875 34.0302734375 c 128,-1,104
 1150.34960938 84.240234375 1150.34960938 84.240234375 1150.55664062 143.853515625 c 0,105,106
 1150.69726562 201.690429688 1150.69726562 201.690429688 1141.28613281 259.66015625 c 128,-1,107
 1131.875 317.62890625 1131.875 317.62890625 1112.68945312 376.334960938 c 128,-1,108
 1093.50390625 435.041015625 1093.50390625 435.041015625 1064.52832031 494.165039062 c 2,109,-1
 1044.68359375 534.657226562 l 1,110,-1
 1087.25292969 549.530273438 l 1,111,-1
 1259.89453125 609.84765625 l 1,112,-1
 1298.53808594 623.348632812 l 1,113,-1
 1311.14355469 584.404296875 l 1,114,-1
 1371.05566406 399.318359375 l 2,0,1
EndSplineSet
EndChar

StartChar: uniFEB3
Encoding: 65203 65203 190
GlifName: uniF_E_B_3
Width: 1593
VWidth: 2992
GlyphClass: 2
Flags: W
AnchorPoint: "Anchor-10" 859.961 1420.67 basechar 0
AnchorPoint: "Anchor-7" 749.534 -196.974 basechar 0
LayerCount: 2
Fore
SplineSet
1164.72558594 0.9931640625 m 0,0,1
 1081.765625 0.9931640625 1081.765625 0.9931640625 1017.9375 28.4375 c 128,-1,2
 954.109375 55.8818359375 954.109375 55.8818359375 914.31640625 110.879882812 c 1,3,4
 806.560546875 0 806.560546875 0 636.276367188 0 c 0,5,6
 442.627929688 0.9033203125 442.627929688 0.9033203125 358.453125 108.85546875 c 1,7,8
 256.340820312 0 256.340820312 0 38.849609375 0 c 2,9,-1
 -6.9384765625 0 l 2,10,11
 -61.728515625 0 -61.728515625 0 -93.2529296875 35.75390625 c 128,-1,12
 -124.778320312 71.5078125 -124.778320312 71.5078125 -124.778320312 128.313476562 c 2,13,-1
 -124.778320312 147.1328125 l 2,14,15
 -124.92578125 201.53125 -124.92578125 201.53125 -92.8662109375 235.265625 c 128,-1,16
 -60.806640625 268.999023438 -60.806640625 268.999023438 -6.9384765625 268.999023438 c 2,17,-1
 41.00390625 268.999023438 l 2,18,19
 114.106445312 268.999023438 114.106445312 268.999023438 158.482421875 285.890625 c 128,-1,20
 202.858398438 302.78125 202.858398438 302.78125 222.022460938 335.090820312 c 128,-1,21
 241.186523438 367.400390625 241.186523438 367.400390625 241.629882812 419.086914062 c 0,22,23
 241.989257812 479.298828125 241.989257812 479.298828125 238.76953125 509.532226562 c 2,24,-1
 233.369140625 560.248046875 l 1,25,-1
 229.420898438 597.327148438 l 1,26,-1
 266.131835938 603.864257812 l 1,27,-1
 430.857421875 633.197265625 l 1,28,-1
 474.3984375 640.950195312 l 1,29,-1
 477.754882812 596.8515625 l 1,30,-1
 493.822265625 385.729492188 l 2,31,32
 498.685546875 323.76953125 498.685546875 323.76953125 531.48046875 296.405273438 c 128,-1,33
 564.276367188 269.041992188 564.276367188 269.041992188 638.063476562 269.073242188 c 0,34,35
 693.618164062 269.051757812 693.618164062 269.051757812 726.869140625 283.446289062 c 128,-1,36
 760.12109375 297.840820312 760.12109375 297.840820312 775.18359375 327.615234375 c 128,-1,37
 790.24609375 357.389648438 790.24609375 357.389648438 790.7265625 406.797851562 c 0,38,39
 790.858398438 434.884765625 790.858398438 434.884765625 790.401367188 456.024414062 c 128,-1,40
 789.944335938 477.165039062 789.944335938 477.165039062 788.98828125 489.657226562 c 2,41,-1
 783.497070312 561.416992188 l 1,42,-1
 780.736328125 597.50390625 l 1,43,-1
 816.368164062 603.849609375 l 1,44,-1
 981.174804688 633.197265625 l 1,45,-1
 1024.71582031 640.950195312 l 1,46,-1
 1028.07226562 596.8515625 l 1,47,-1
 1044.14355469 385.696289062 l 2,48,49
 1047.4375 342.869140625 1047.4375 342.869140625 1060.53808594 317.581054688 c 128,-1,50
 1073.63867188 292.293945312 1073.63867188 292.293945312 1097.90136719 280.978515625 c 128,-1,51
 1122.1640625 269.663085938 1122.1640625 269.663085938 1161.49707031 269.538085938 c 0,52,53
 1215.70019531 269.711914062 1215.70019531 269.711914062 1240.84570312 302.711914062 c 128,-1,54
 1265.9921875 335.711914062 1265.9921875 335.711914062 1265.98632812 419.403320312 c 0,55,56
 1265.99902344 516.338867188 1265.99902344 516.338867188 1223.5546875 663.202148438 c 2,57,-1
 1212.16113281 702.626953125 l 1,58,-1
 1251.86425781 713.006835938 l 1,59,-1
 1426.81542969 758.747070312 l 1,60,-1
 1463.59863281 768.364257812 l 1,61,-1
 1475.06933594 732.116210938 l 2,62,63
 1525.99902344 571.180664062 1525.99902344 571.180664062 1526.01953125 425.922851562 c 0,64,65
 1526.00878906 424.211914062 1526.00878906 424.211914062 1526.00390625 422.99609375 c 128,-1,66
 1526 421.78125 1526 421.78125 1526 420.403320312 c 0,67,68
 1524.91308594 194.793945312 1524.91308594 194.793945312 1390.71386719 77.166015625 c 0,69,70
 1347.16113281 38.8740234375 1347.16113281 38.8740234375 1290.08496094 19.93359375 c 128,-1,71
 1233.00878906 0.9931640625 1233.00878906 0.9931640625 1164.72558594 0.9931640625 c 0,0,1
EndSplineSet
EndChar

StartChar: uniFEB4
Encoding: 65204 65204 191
GlifName: uniF_E_B_4
Width: 1678
VWidth: 2985
GlyphClass: 2
Flags: W
AnchorPoint: "Anchor-7" 749.534 -196.974 basechar 0
AnchorPoint: "Anchor-10" 859.961 1420.67 basechar 0
LayerCount: 2
Fore
SplineSet
1167.5 0 m 0,0,1
 1086.40722656 0 1086.40722656 0 1022.31640625 28.2900390625 c 128,-1,2
 958.224609375 56.5810546875 958.224609375 56.5810546875 916.006835938 112.359375 c 1,3,4
 808.647460938 0 808.647460938 0 636.370117188 0 c 0,5,6
 443.200195312 0 443.200195312 0 358.322265625 108.715820312 c 1,7,8
 256.340820312 0 256.340820312 0 38.849609375 0 c 2,9,-1
 -6.9384765625 0 l 2,10,11
 -61.728515625 0 -61.728515625 0 -93.2529296875 35.75390625 c 128,-1,12
 -124.778320312 71.5078125 -124.778320312 71.5078125 -124.778320312 128.313476562 c 2,13,-1
 -124.778320312 147.1328125 l 2,14,15
 -124.92578125 201.53125 -124.92578125 201.53125 -92.8662109375 235.265625 c 128,-1,16
 -60.806640625 268.999023438 -60.806640625 268.999023438 -6.9384765625 268.999023438 c 2,17,-1
 41.00390625 268.999023438 l 2,18,19
 114.106445312 268.999023438 114.106445312 268.999023438 158.482421875 285.890625 c 128,-1,20
 202.858398438 302.78125 202.858398438 302.78125 222.022460938 335.090820312 c 128,-1,21
 241.186523438 367.400390625 241.186523438 367.400390625 241.629882812 419.086914062 c 0,22,23
 241.989257812 479.298828125 241.989257812 479.298828125 238.76953125 509.532226562 c 2,24,-1
 233.369140625 560.248046875 l 1,25,-1
 229.420898438 597.327148438 l 1,26,-1
 266.131835938 603.864257812 l 1,27,-1
 430.857421875 633.197265625 l 1,28,-1
 474.3984375 640.950195312 l 1,29,-1
 477.754882812 596.8515625 l 1,30,-1
 493.822265625 385.729492188 l 2,31,32
 498.685546875 323.76953125 498.685546875 323.76953125 531.48046875 296.405273438 c 128,-1,33
 564.276367188 269.041992188 564.276367188 269.041992188 638.063476562 269.073242188 c 0,34,35
 720.359375 269.041992188 720.359375 269.041992188 755.177734375 301.231445312 c 128,-1,36
 789.99609375 333.420898438 789.99609375 333.420898438 790.702148438 407.383789062 c 0,37,38
 790.797851562 425.995117188 790.797851562 425.995117188 790.622070312 441.803710938 c 128,-1,39
 790.4453125 457.612304688 790.4453125 457.612304688 790.033203125 469.5078125 c 128,-1,40
 789.620117188 481.40234375 789.620117188 481.40234375 788.98828125 489.657226562 c 2,41,-1
 783.497070312 561.416992188 l 1,42,-1
 780.736328125 597.50390625 l 1,43,-1
 816.368164062 603.849609375 l 1,44,-1
 981.174804688 633.197265625 l 1,45,-1
 1024.71582031 640.950195312 l 1,46,-1
 1028.07226562 596.8515625 l 1,47,-1
 1044.14355469 385.696289062 l 2,48,49
 1049.01074219 322.411132812 1049.01074219 322.411132812 1076.3828125 296.080078125 c 128,-1,50
 1103.75488281 269.75 1103.75488281 269.75 1163.36914062 269.579101562 c 0,51,52
 1220.45703125 269.739257812 1220.45703125 269.739257812 1246.77636719 304.8203125 c 128,-1,53
 1273.09570312 339.90234375 1273.09570312 339.90234375 1272.37109375 428.163085938 c 0,54,55
 1272.3203125 435.458007812 1272.3203125 435.458007812 1272.18457031 442.559570312 c 128,-1,56
 1272.04980469 449.66015625 1272.04980469 449.66015625 1271.83300781 456.530273438 c 128,-1,57
 1271.61621094 463.400390625 1271.61621094 463.400390625 1271.31640625 470.075195312 c 128,-1,58
 1271.01660156 476.75 1271.01660156 476.75 1270.63671875 483.196289062 c 128,-1,59
 1270.25683594 489.641601562 1270.25683594 489.641601562 1269.79589844 495.891601562 c 128,-1,60
 1269.33496094 502.141601562 1269.33496094 502.141601562 1268.79492188 508.165039062 c 128,-1,61
 1268.25488281 514.1875 1268.25488281 514.1875 1267.63378906 520.014648438 c 2,62,-1
 1262.21582031 570.891601562 l 1,63,-1
 1258.49414062 605.841796875 l 1,64,-1
 1292.67578125 614.02734375 l 1,65,-1
 1457.50390625 653.5 l 1,66,-1
 1502.3046875 664.228515625 l 1,67,-1
 1506.64160156 618.365234375 l 1,68,-1
 1522.63476562 449.2265625 l 2,69,70
 1531.75 351.487304688 1531.75 351.487304688 1567.12988281 310.239257812 c 128,-1,71
 1602.50878906 268.991210938 1602.50878906 268.991210938 1668.31445312 268.998046875 c 2,72,-1
 1686.39648438 269 l 2,73,74
 1700.625 269 1700.625 269 1711.43359375 264.748046875 c 128,-1,75
 1722.2421875 260.49609375 1722.2421875 260.49609375 1728.54882812 250.424804688 c 128,-1,76
 1734.85449219 240.352539062 1734.85449219 240.352539062 1739.00390625 232.862304688 c 128,-1,77
 1743.15332031 225.372070312 1743.15332031 225.372070312 1744.61816406 209.393554688 c 128,-1,78
 1746.08300781 193.415039062 1746.08300781 193.415039062 1746.6171875 187.484375 c 128,-1,79
 1747.15136719 181.553710938 1747.15136719 181.553710938 1746.81933594 164.466796875 c 128,-1,80
 1746.48632812 147.379882812 1746.48632812 147.379882812 1746.48632812 147.173828125 c 2,81,-1
 1746.48632812 128.250976562 l 2,82,83
 1746.46972656 125.280273438 1746.46972656 125.280273438 1746.81933594 109.532226562 c 128,-1,84
 1747.16894531 93.78515625 1747.16894531 93.78515625 1746.73730469 85.609375 c 128,-1,85
 1746.30664062 77.4345703125 1746.30664062 77.4345703125 1744.91894531 62.1357421875 c 128,-1,86
 1743.53222656 46.837890625 1743.53222656 46.837890625 1739.45214844 37.955078125 c 128,-1,87
 1735.37207031 29.0732421875 1735.37207031 29.0732421875 1729.05371094 19.1748046875 c 128,-1,88
 1722.73632812 9.27734375 1722.73632812 9.27734375 1711.8125 4.638671875 c 128,-1,89
 1700.88867188 0 1700.88867188 0 1686.40527344 0 c 2,90,-1
 1670.08007812 0 l 2,91,92
 1584.47949219 0 1584.47949219 0 1519.92675781 25.7275390625 c 128,-1,93
 1455.37304688 51.4541015625 1455.37304688 51.4541015625 1416.89257812 103.841796875 c 1,94,95
 1329.45800781 0 1329.45800781 0 1167.5 0 c 0,0,1
EndSplineSet
EndChar

StartChar: uniFEBA
Encoding: 65210 65210 197
GlifName: uniF_E_B_A_
Width: 2696
VWidth: 2992
GlyphClass: 2
Flags: W
AnchorPoint: "Anchor-10" 2104.53 1417.1 basechar 0
AnchorPoint: "Anchor-7" 595.902 -760.086 basechar 0
LayerCount: 2
Fore
SplineSet
2704.37109375 269 m 2,0,1
 2764.49316406 269 2764.49316406 269 2764.49316406 147.174804688 c 2,2,-1
 2764.49316406 128.194335938 l 2,3,4
 2763.77605195 2.46416220762e-11 2763.77605195 2.46416220762e-11 2704.41210938 0 c 6,5,-1
 2680.2265625 0 l 2,6,7
 2475.6328125 0 2475.6328125 0 2333.04394531 104.208007812 c 1,8,9
 2228.75488281 51.18359375 2228.75488281 51.18359375 2089.61328125 25.591796875 c 128,-1,10
 1950.47167969 0 1950.47167969 0 1773.15136719 0 c 2,11,-1
 1722.34082031 0 l 2,12,13
 1656.59863281 0 1656.59863281 0 1600.10644531 4.12109375 c 128,-1,14
 1543.61523438 8.2421875 1543.61523438 8.2421875 1495.06445312 16.7451171875 c 128,-1,15
 1446.51464844 25.2490234375 1446.51464844 25.2490234375 1406.80859375 38.1650390625 c 1,16,17
 1400.9453125 -19.8056640625 1400.9453125 -19.8056640625 1384.21875 -77.8544921875 c 128,-1,18
 1367.4921875 -135.903320312 1367.4921875 -135.903320312 1340.05078125 -194.040039062 c 0,19,20
 1261.6796875 -360.600585938 1261.6796875 -360.600585938 1101.33984375 -443.734375 c 128,-1,21
 940.999023438 -526.8671875 940.999023438 -526.8671875 706.486328125 -526.724609375 c 0,22,23
 391.981445312 -526.346679688 391.981445312 -526.346679688 227.4609375 -372.731445312 c 128,-1,24
 62.939453125 -219.116210938 62.939453125 -219.116210938 61.7587890625 77.8525390625 c 0,25,26
 60.970703125 291.891601562 60.970703125 291.891601562 166.077148438 545.442382812 c 2,27,-1
 181.231445312 581.999023438 l 1,28,-1
 217.94921875 567.23828125 l 1,29,-1
 380.469726562 501.900390625 l 1,30,-1
 417.282226562 487.100585938 l 1,31,-1
 402.78125 450.16796875 l 2,32,33
 322.01171875 244.458984375 322.01171875 244.458984375 322.26953125 81.83984375 c 0,34,35
 322.604492188 -96.6669921875 322.604492188 -96.6669921875 418.9140625 -180.8203125 c 128,-1,36
 515.223632812 -264.974609375 515.223632812 -264.974609375 722.553710938 -263.16796875 c 0,37,38
 942.584960938 -261.196289062 942.584960938 -261.196289062 1046.32128906 -162.852539062 c 128,-1,39
 1150.05761719 -64.5087890625 1150.05761719 -64.5087890625 1150.55273438 140.212890625 c 0,40,41
 1150.97753906 315.860351562 1150.97753906 315.860351562 1064.45410156 494.317382812 c 2,42,-1
 1044.86425781 534.720703125 l 1,43,-1
 1087.25292969 549.530273438 l 1,44,-1
 1259.89453125 609.84765625 l 1,45,-1
 1298.60644531 623.373046875 l 1,46,-1
 1311.16601562 584.336914062 l 1,47,-1
 1379.08984375 373.213867188 l 2,48,49
 1394.59960938 324.682617188 1394.59960938 324.682617188 1416.36328125 306.89453125 c 1,50,51
 1793.02929688 928.947265625 1793.02929688 928.947265625 2179.69921875 930.423828125 c 0,52,53
 2408.67773438 931.057617188 2408.67773438 931.057617188 2532.96875 755.090820312 c 0,54,55
 2606.99316406 649.6484375 2606.99316406 649.6484375 2607.06152344 515.608398438 c 0,56,57
 2607.046875 486.744140625 2607.046875 486.744140625 2602.76367188 458.23046875 c 128,-1,58
 2598.47949219 429.715820312 2598.47949219 429.715820312 2590.03027344 401.9140625 c 128,-1,59
 2581.58007812 374.111328125 2581.58007812 374.111328125 2569.140625 347.006835938 c 128,-1,60
 2556.70214844 319.90234375 2556.70214844 319.90234375 2540.25390625 293.400390625 c 1,61,62
 2556.50292969 285.607421875 2556.50292969 285.607421875 2577.43457031 280.250976562 c 128,-1,63
 2598.36523438 274.895507812 2598.36523438 274.895507812 2625.82910156 271.947265625 c 128,-1,64
 2653.29296875 269 2653.29296875 269 2685.73828125 269 c 2,65,-1
 2704.37109375 269 l 2,0,1
1698.53710938 269.416992188 m 1,66,-1
 1778.78027344 269.416992188 l 2,67,68
 2080.49414062 269.211914062 2080.49414062 269.211914062 2216.8515625 346.776367188 c 0,69,70
 2342.33496094 418.155273438 2342.33496094 418.155273438 2342.66894531 511.11328125 c 0,71,72
 2342.40625 562.373046875 2342.40625 562.373046875 2316.16992188 596.717773438 c 0,73,74
 2308.20703125 607.141601562 2308.20703125 607.141601562 2299.47851562 615.669921875 c 128,-1,75
 2290.75097656 624.19921875 2290.75097656 624.19921875 2280.88671875 631.11328125 c 128,-1,76
 2271.02246094 638.026367188 2271.02246094 638.026367188 2260.09082031 643.123046875 c 128,-1,77
 2249.15917969 648.21875 2249.15917969 648.21875 2236.88183594 651.665039062 c 128,-1,78
 2224.60546875 655.110351562 2224.60546875 655.110351562 2210.95214844 656.82421875 c 128,-1,79
 2197.29882812 658.538085938 2197.29882812 658.538085938 2182.0859375 658.573242188 c 0,80,81
 2075.63769531 658.495117188 2075.63769531 658.495117188 1953.25585938 562.099609375 c 128,-1,82
 1830.87304688 465.704101562 1830.87304688 465.704101562 1698.53710938 269.416992188 c 1,66,-1
EndSplineSet
EndChar

StartChar: uniFEBB
Encoding: 65211 65211 198
GlifName: uniF_E_B_B_
Width: 1770
VWidth: 2992
GlyphClass: 2
Flags: W
AnchorPoint: "Anchor-10" 1220.91 1416.52 basechar 0
AnchorPoint: "Anchor-7" 719.209 -200.348 basechar 0
LayerCount: 2
Fore
SplineSet
801.612304688 269.416992188 m 1,0,-1
 881.76171875 269.416992188 l 2,1,2
 1034.11816406 269.21484375 1034.11816406 269.21484375 1144.32226562 289.122070312 c 128,-1,3
 1254.52539062 309.029296875 1254.52539062 309.029296875 1319.64941406 346.671875 c 0,4,5
 1445.65234375 418.966796875 1445.65234375 418.966796875 1445.65234375 510.56640625 c 0,6,7
 1445.57421875 561.809570312 1445.57421875 561.809570312 1419.109375 596.7734375 c 0,8,9
 1372.16308594 658.10546875 1372.16308594 658.10546875 1285.03710938 658.573242188 c 0,10,11
 1178.90820312 658.338867188 1178.90820312 658.338867188 1056.49414062 561.903320312 c 128,-1,12
 934.079101562 465.466796875 934.079101562 465.466796875 801.612304688 269.416992188 c 1,0,-1
366.956054688 122.0390625 m 1,13,14
 245.98046875 0 245.98046875 0 9.984375 0 c 2,15,-1
 -6.9384765625 0 l 2,16,17
 -61.728515625 0 -61.728515625 0 -93.2529296875 35.75390625 c 128,-1,18
 -124.778320312 71.5078125 -124.778320312 71.5078125 -124.778320312 128.313476562 c 2,19,-1
 -124.778320312 147.1328125 l 2,20,21
 -124.92578125 201.697265625 -124.92578125 201.697265625 -92.5361328125 235.348632812 c 128,-1,22
 -60.1455078125 269 -60.1455078125 269 -5.9384765625 269 c 2,23,-1
 10.1103515625 269 l 2,24,25
 221.208007812 269 221.208007812 269 237.118164062 362.895507812 c 0,26,27
 242.987304688 397.310546875 242.987304688 397.310546875 242.809570312 443.872070312 c 0,28,29
 242.98828125 473.163085938 242.98828125 473.163085938 240.12109375 510.62890625 c 2,30,-1
 234.630859375 582.384765625 l 1,31,-1
 231.870117188 618.471679688 l 1,32,-1
 267.501953125 624.817382812 l 1,33,-1
 432.30859375 654.165039062 l 1,34,-1
 475.502929688 661.856445312 l 1,35,-1
 479.180664062 618.137695312 l 1,36,-1
 497.0234375 406.037109375 l 2,37,38
 502.544921875 341.489257812 502.544921875 341.489257812 523.307617188 313.44140625 c 1,39,40
 898.82421875 931.018554688 898.82421875 931.018554688 1282.39648438 930.42578125 c 0,41,42
 1513.88964844 929.958007812 1513.88964844 929.958007812 1636.09277344 754.887695312 c 0,43,44
 1709.06054688 649.399414062 1709.06054688 649.399414062 1708.45117188 522.963867188 c 0,45,46
 1707.96386719 464.465820312 1707.96386719 464.465820312 1693.50976562 399.098632812 c 0,47,48
 1601.85546875 0 1601.85546875 0 876.133789062 0 c 2,49,-1
 825.323242188 0 l 2,50,51
 486.694335938 0 486.694335938 0 366.956054688 122.0390625 c 1,13,14
EndSplineSet
EndChar

